<?xml version="1.0" encoding="utf-8"?>
<!-- Generator: Adobe Illustrator 27.0.0, SVG Export Plug-In . SVG Version: 6.00 Build 0)  -->
<svg version="1.1" id="Layer_1" xmlns="http://www.w3.org/2000/svg" xmlns:xlink="http://www.w3.org/1999/xlink" x="0px" y="0px"
	 viewBox="0 0 80.2 91.6" style="enable-background:new 0 0 80.2 91.6;" xml:space="preserve">
<style type="text/css">
	.st0{fill:#E8E8EA;}
	.st1{fill:#DDDDDD;}
	.st2{fill:#BBBBBF;}
	.st3{fill:#00B0F0;}
	.st4{fill:#0061A8;}
	.st5{fill:#EFC516;}
	.st6{fill:#FFFFFF;}
</style>
<path class="st0" d="M73.5,62.7H7.9V23.3c0-1.9,1.5-3.4,3.4-3.4h58.9c1.9,0,3.4,1.5,3.4,3.4V62.7z"/>
<rect x="13" y="25.2" class="st1" width="55.9" height="32.8"/>
<path class="st2" d="M73.5,62.7H7.9l-4.9,6c-1,1.2-0.1,3,1.4,3H77c1.5,0,2.4-1.8,1.4-3L73.5,62.7L73.5,62.7z"/>
<path class="st3" d="M40.9,50.8c2.9,0,4.5-1.3,4.8-4.1c0.8,0,1.7,0,2.5,0c-0.2,4.1-3,6.6-7.4,6.7C40.7,52.5,40.8,51.7,40.9,50.8
	L40.9,50.8z"/>
<path class="st4" d="M48.2,46.7c-0.8,0-1.7,0-2.5,0c0-3,0-6,0-9c0.9,0,1.7,0,2.6,0c0.8,0,1.6-0.1,2.4,0c1.6,0.1,2.9,1.3,3,2.9
	c0.1,0.9,0.1,1.8,0,2.6c-0.1,2-1.4,3.3-3.3,3.4C49.7,46.7,48.9,46.7,48.2,46.7L48.2,46.7z"/>
<path class="st4" d="M33.6,37.7c0.8,0,1.7,0,2.5,0c0,3,0,6,0,9c-0.9,0-1.7,0-2.6,0c-0.8,0-1.6,0.1-2.4,0c-1.6-0.1-2.9-1.3-3-2.9
	c-0.1-0.9-0.1-1.8,0-2.6c0.1-2,1.4-3.3,3.3-3.4C32.2,37.7,32.9,37.7,33.6,37.7L33.6,37.7z"/>
<path class="st3" d="M48.2,36.3c-0.4-3.6-3.7-6.5-7.3-6.4c-3.5-0.2-6.8,2.7-7.3,6.4c-0.1,0.5-0.1,0.9-0.1,1.4c0.9,0,1.7,0,2.6,0
	c0-1.5,0.5-2.9,1.6-4c0.9-0.8,2-1.2,3.2-1.3c1.2,0.1,2.3,0.5,3.2,1.3c1.2,1.1,1.6,2.5,1.6,4c0.9,0,1.7,0,2.6,0
	C48.3,37.2,48.2,36.8,48.2,36.3L48.2,36.3z"/>
<g>
	<circle class="st5" cx="12.6" cy="53.4" r="9.7"/>
	<path class="st6" d="M12.6,43.7c5.4,0,9.7,4.3,9.7,9.7s-4.3,9.7-9.7,9.7s-9.7-4.3-9.7-9.7S7.2,43.7,12.6,43.7 M12.6,42.2
		c-6.2,0-11.2,5-11.2,11.2s5,11.2,11.2,11.2s11.2-5,11.2-11.2S18.7,42.2,12.6,42.2C12.6,42.2,12.6,42.2,12.6,42.2z"/>
</g>
<polygon class="st4" points="11.6,54.6 16.8,49.5 18.4,51.1 13.2,56.2 11.7,57.8 11.6,57.8 6.8,53 8.4,51.4 "/>
</svg>
