<?xml version="1.0" encoding="utf-8"?>
<!-- Generator: Adobe Illustrator 27.0.0, SVG Export Plug-In . SVG Version: 6.00 Build 0)  -->
<svg version="1.1" id="Layer_1" xmlns="http://www.w3.org/2000/svg" xmlns:xlink="http://www.w3.org/1999/xlink" x="0px" y="0px"
	 viewBox="0 0 80.2 91.6" style="enable-background:new 0 0 80.2 91.6;" xml:space="preserve">
<style type="text/css">
	.st0{fill:#E8E8EA;}
	.st1{fill:#EFC516;}
	.st2{fill:#BBBBBF;}
	.st3{fill:#D8B419;}
	.st4{fill:#0061A8;}
	.st5{fill:#00B0F0;}
</style>
<path class="st0" d="M77.9,46.1c-2.4-2.4-10.8-9.8-12.5-11.3c-4.3-3.8-8.8-7.3-15.1-7.2c-6,0.1-12,0.1-18.1,0.1c0,1.9,0,3.8,0,5.7
	c0,0.1,0.1,0.3,0.1,0.4c1.7,1.9,3.4,3.9,5.1,5.8c2.4,2.9,5,5.7,7.8,8.2c0.7,0.6,1.3,1,2.3,1c10.7,0,21.3,0,31.9,0
	C79.3,47.7,78.6,46.8,77.9,46.1L77.9,46.1z"/>
<path class="st1" d="M4.7,18c-0.4-2.2,0.7-3.5,2.5-4.5c4-2.1,8.3-2.4,12.7-2c2.4,0.2,4.7,0.8,6.9,2c1.9,1.1,3,2.5,2.5,4.8
	c-1.5,0.8-2.6,2.2-4.2,2.7c-4.4,1.5-8.8,1.6-13.3,0.8C9.1,21.3,6.4,20.4,4.7,18z"/>
<path class="st2" d="M27.6,59c2.6-1.3,5.1-1.3,7.7,0c2.3,1.6,3.5,3.8,3.7,6.6c-0.6,4.5-3.3,7.3-7.1,7.5c-4.3,0.2-7.6-2.8-8.1-7.6
	C24,62.8,25.3,60.7,27.6,59L27.6,59z M31.5,67.2c0.9-0.1,1.5-0.6,1.5-1.6c0-0.9-0.6-1.5-1.5-1.5c-1,0-1.5,0.6-1.5,1.5
	C30,66.6,30.5,67.1,31.5,67.2L31.5,67.2z"/>
<path class="st2" d="M64.7,59c2.5-1.2,5-1.3,7.5,0c2.4,1.6,3.6,3.8,3.9,6.6c-0.3,2.8-1.4,5.1-3.9,6.6c-4.6,2.6-10.4-0.2-11.1-5.5
	c0-0.3-0.1-0.7-0.1-1C61.1,62.8,62.4,60.6,64.7,59z M68.5,64.1c-1,0.1-1.5,0.7-1.5,1.6c0,0.9,0.6,1.5,1.5,1.5c1,0,1.5-0.7,1.5-1.5
	C70,64.7,69.4,64.2,68.5,64.1z"/>
<path class="st3" d="M4.7,18c1.8,2.4,4.4,3.3,7.1,3.8c4.5,0.8,8.9,0.7,13.3-0.8c1.7-0.6,2.8-1.9,4.2-2.7c0.1,2.1,0.2,4.2,0,6.3
	c-0.3,0.1-0.4,0.3-0.5,0.6c-1.5,1.4-3.3,2.2-5.2,2.8c-3.7,1-7.4,1.2-11.1,0.5c-3-0.5-5.9-1.4-7.8-4.2C4.5,22.2,4.6,20.1,4.7,18
	L4.7,18z"/>
<path class="st3" d="M21.4,41.2c-3.1,0.1-6.1,0.4-9.2-0.2c-1.9-0.4-3.8-0.9-5.5-2c-1.4-0.9-2.3-2-2.2-3.8c0.1-1.5,0.1-3,0.1-4.5
	c0.7,0.4,1,1.2,1.7,1.7c5,3.1,10.4,3,15.9,2.1c2.7-0.5,5-1.7,7-3.4c0,1.1,0,2.3,0.1,3.4c0.3,2.6-1.1,4.1-3.2,5.2
	C24.7,40.4,23,40.6,21.4,41.2z"/>
<path class="st4" d="M35.9,19.8c0-2.2,0-4.1,0-6.1c0-0.4,0-0.8,0-1.1c0.1-0.7,0.4-1.2,1.2-1.2c0.8,0,1.2,0.6,1.2,1.3
	c0,1.6,0,3.2,0,4.8c0,0.7,0,1.4,0,2.4c0.6-0.5,1.1-0.9,1.6-1.2c0.6-0.5,1.2-0.6,1.8,0.1c0.6,0.7,0.3,1.3-0.3,1.8
	c-1.1,0.9-2.1,1.8-3.2,2.6c-0.6,0.5-1.3,0.5-1.9,0c-1.1-0.9-2.1-1.7-3.2-2.6c-0.6-0.5-0.8-1.1-0.3-1.8c0.5-0.6,1.2-0.5,1.8-0.1
	C34.8,18.9,35.2,19.3,35.9,19.8L35.9,19.8z"/>
<path class="st5" d="M6.8,55.1c-1.6,0-3.2,0-4.8,0c-1,0-1.9-0.4-1.9-1.5C0.1,52.4,0.9,52,2,52c3.2,0,6.3,0,9.5,0
	c1,0,1.8,0.3,1.8,1.5c0,1.3-0.8,1.6-1.9,1.6C9.9,55.1,8.4,55.1,6.8,55.1z"/>
<path class="st5" d="M9.7,59.3c0.8,0,1.6-0.1,2.4,0c0.9,0.1,1.4,0.6,1.4,1.5c0,0.8-0.4,1.5-1.2,1.6c-1.7,0.2-3.5,0.3-5.2,0
	c-0.8-0.1-1.3-0.7-1.2-1.6c0.1-0.9,0.6-1.4,1.5-1.4C8.1,59.3,8.9,59.3,9.7,59.3L9.7,59.3z"/>
<path class="st4" d="M80.1,52.9c0-1.4,0-2.8-0.6-4.1c-10.7,0-21.3,0-31.9,0c-0.9,0-1.6-0.4-2.3-1c-2.8-2.5-5.4-5.3-7.8-8.2
	c-1.7-1.9-3.4-3.9-5.1-5.8c0.5,5.7-4.1,7.9-8.4,9.3c-1.3,0.4-2.6,0.9-4,0.7c0,0-0.1,0-0.2,0c-0.1,5-0.1,10.1,0,15.1
	c-0.4,4.5,0.5,6,4,6.6c0.2-2.8,1.5-5,3.7-6.6c2.6-1.3,5.1-1.3,7.7,0l0,0c2.3,1.6,3.5,3.8,3.7,6.6c7.3,0,14.6,0,21.9,0
	c0.2-2.8,1.4-5,3.8-6.6c2.5-1.2,5-1.3,7.5,0l0,0c2.4,1.6,3.6,3.8,3.9,6.6c2.9-0.5,4-1.7,4-4.7C80.1,60.3,80.1,54.9,80.1,52.9
	L80.1,52.9z M32.7,50.3c-0.9,0.3-1.8,0.3-2.7,0.1c-1-0.2-1.6-0.8-1.5-1.7c0.1-1,0.8-1.4,1.8-1.4c0.3,0,0.6,0,0.9,0v0
	c0.4,0,0.8,0,1.2,0c0.8,0.1,1.3,0.6,1.4,1.4C33.9,49.4,33.5,50.1,32.7,50.3L32.7,50.3z"/>
<path class="st1" d="M29.4,29.5c-0.5-0.4-1-0.8-1.1-1.3c0-0.2,0-0.3,0-0.5c-0.1,0.2-0.1,0.3,0,0.5C28.4,28.7,28.8,29.1,29.4,29.5
	c0-0.1,0.1-0.1,0.1-0.2c-0.1-1.5-0.1-3.1-0.2-4.6c-0.3,0.1-0.4,0.3-0.5,0.6c-1.5,1.4-3.3,2.2-5.2,2.8c-3.7,1-7.4,1.2-11.1,0.5
	c-3-0.5-5.9-1.4-7.8-4.2c0,2.1,0,4.2,0,6.3c0.7,0.4,1,1.2,1.7,1.7c5,3.1,10.4,3,15.9,2.1c2.7-0.5,5-1.7,7-3.4l0.1-1.2
	C29.4,29.7,29.4,29.6,29.4,29.5L29.4,29.5z"/>
<path class="st5" d="M31.2,47.2c0.4,0,0.8,0,1.2,0c0.8,0.1,1.3,0.6,1.4,1.4c0.1,0.8-0.3,1.4-1.2,1.7c-0.9,0.3-1.8,0.3-2.7,0.1
	c-1-0.2-1.6-0.8-1.5-1.7c0.1-1,0.8-1.4,1.8-1.4C30.6,47.2,30.9,47.2,31.2,47.2C31.2,47.2,31.2,47.2,31.2,47.2L31.2,47.2z"/>
<path class="st0" d="M31.5,67.2c-0.9-0.1-1.5-0.6-1.5-1.5c0-0.9,0.5-1.5,1.5-1.5c1,0,1.5,0.6,1.5,1.5C33,66.6,32.4,67.1,31.5,67.2
	L31.5,67.2z"/>
<path class="st0" d="M68.5,64.1c0.9,0.1,1.5,0.6,1.5,1.5c0,0.9-0.5,1.5-1.5,1.5c-1,0-1.5-0.6-1.5-1.5C67,64.8,67.5,64.2,68.5,64.1z"
	/>
</svg>
