<?xml version="1.0" encoding="UTF-8"?>
<svg id="Layer_1" data-name="Layer 1" xmlns="http://www.w3.org/2000/svg" viewBox="0 0 80.22 91.56">
  <defs>
    <style>
      .cls-1 {
        fill: #fff;
      }

      .cls-2 {
        fill: #e9686a;
      }

      .cls-3 {
        fill: #00b0f0;
      }

      .cls-4 {
        fill: #0061a8;
      }

      .cls-5 {
        fill: #e8e8ea;
      }

      .cls-6 {
        fill: #bbbbbf;
      }
    </style>
  </defs>
  <path class="cls-6" d="M61.02,16.65c-5.2,.02-10.39,.04-15.59,.08-.67,0-1.04-.17-1.03-.92,.02-5,.02-9.99,.04-14.99,0-.17,.17-.35,.26-.52,5.44,5.45,10.88,10.91,16.33,16.36Z"/>
  <g>
    <path class="cls-6" d="M30.71,47.14c7.39,0,14.77,.02,22.16,.02,.4,0,.82-.04,1.21,.02,.84,.11,1.47,.59,1.47,1.46,0,.87-.63,1.34-1.47,1.45-.4,.05-.81,.02-1.21,.02-7.39,0-14.77,.01-22.16,.02-7.28,0-14.56,0-21.84,0-.3,0-.61,0-.91,0-1.12,0-2.36-.13-2.35-1.51,0-1.36,1.22-1.48,2.36-1.47,7.58,.01,15.17,0,22.75,0Z"/>
    <path class="cls-6" d="M30.73,55.55c7.37,.02,14.74,.04,22.11,.06,.45,0,.91,0,1.36,.01,.88,.02,1.31,.58,1.34,1.35,.04,.74-.48,1.21-1.2,1.34-.44,.08-.91,.05-1.36,.05-7.42,.01-14.84,.02-22.27,.04-7.52-.01-15.05-.02-22.57-.03-.4,0-.82,.04-1.21-.03-.77-.13-1.37-.6-1.35-1.39,.03-.85,.57-1.34,1.51-1.33,2.93,.02,5.86,.01,8.79,0,4.95-.02,9.9-.04,14.84-.07Z"/>
    <path class="cls-6" d="M30.72,63.82c7.24,.01,14.48,.02,21.71,.03,.4,0,.81,0,1.21,0,1.04-.02,1.9,.36,1.87,1.49-.03,1.07-.89,1.28-1.87,1.28-7.09-.02-14.17-.01-21.26,0-.56,0-1.11,.04-1.67,.06-7.47-.02-14.95-.04-22.42-.08-1.1,0-2.69,.4-2.68-1.32,0-1.59,1.5-1.42,2.67-1.43,7.47,0,14.95-.02,22.42-.03Z"/>
    <path class="cls-6" d="M30.72,38.87c7.24,.01,14.47,.03,21.71,.04,.4,0,.81,0,1.21,0,1.02-.02,1.93,.28,1.88,1.45-.04,1.06-.92,1.31-1.88,1.31-5.77,0-11.54,0-17.31,0-1.87,0-3.74,.03-5.62,.04-7.33-.02-14.67-.03-22-.05-.4,0-.81-.01-1.21,0-1.04,.03-1.94-.36-1.9-1.45,.04-.97,.91-1.32,1.9-1.31,5.77,.02,11.53,.01,17.3,0,1.97,0,3.94-.03,5.92-.04Z"/>
    <path class="cls-5" d="M61.09,18.47c0-.61-.05-1.21-.07-1.82-5.2,.02-10.39,.04-15.59,.08-.67,0-1.04-.17-1.03-.92,.02-5,.02-9.99,.04-14.99,0-.17,.17-.35,.26-.52-.41-.43-.95-.27-1.43-.27-4.19,0-8.37,0-12.56,0C20.99,.03,11.28,.04,1.57,0,.42,0,0,.25,0,1.51,.04,27.36,.04,53.22,0,79.07c0,1.25,.42,1.51,1.57,1.5,9.71-.04,19.43-.03,29.14-.03,9.46,0,18.93,0,28.39,0q1.99,0,2-1.94c0-20.05,0-40.09,0-60.14ZM7.51,38.9c5.77,.02,11.53,.01,17.3,0,1.97,0,3.94-.03,5.92-.04,7.24,.01,14.47,.03,21.71,.04,.4,0,.81,0,1.21,0,1.02-.02,1.93,.28,1.88,1.45-.04,1.06-.92,1.31-1.88,1.31-5.77,0-11.54,0-17.31,0-1.87,0-3.74,.03-5.62,.04h0c-7.33-.02-14.67-.03-22-.05-.4,0-.81-.01-1.21,0-1.04,.03-1.94-.36-1.9-1.45,.04-.97,.91-1.32,1.9-1.31Zm46.14,27.72c-7.09-.02-14.17-.01-21.26,0-.56,0-1.11,.04-1.67,.06h0c-7.47-.02-14.95-.04-22.42-.08-1.1,0-2.69,.4-2.68-1.32,0-1.59,1.5-1.42,2.67-1.43,7.47,0,14.95-.02,22.42-.03,7.24,.01,14.48,.02,21.71,.03,.4,0,.81,0,1.21,0,1.04-.02,1.9,.36,1.87,1.49-.03,1.07-.89,1.28-1.87,1.28Zm-22.95-16.5c-7.28,0-14.56,0-21.84,0-.3,0-.61,0-.91,0-1.12,0-2.36-.13-2.35-1.51,0-1.36,1.22-1.48,2.36-1.47,7.58,.01,15.17,0,22.75,0,7.39,0,14.77,.02,22.16,.02,.4,0,.82-.04,1.21,.02,.84,.11,1.47,.59,1.47,1.46,0,.87-.63,1.34-1.47,1.45-.4,.05-.81,.02-1.21,.02-7.39,0-14.77,.01-22.16,.02,0,1.81,.02,3.61,.02,5.42,7.37,.02,14.74,.04,22.11,.06,.45,0,.91,0,1.36,.01,.88,.02,1.31,.58,1.34,1.35,.04,.74-.48,1.21-1.2,1.34-.44,.08-.91,.05-1.36,.05-7.42,.01-14.84,.02-22.27,.04h0c-7.52-.01-15.05-.02-22.57-.03-.4,0-.82,.04-1.21-.03-.77-.13-1.37-.6-1.35-1.39,.03-.85,.57-1.34,1.51-1.33,2.93,.02,5.86,.01,8.79,0,4.95-.02,9.9-.04,14.84-.07"/>
    <path class="cls-2" d="M22.57,17.09h-2.68v-2.68c0-1.77-1.45-3.22-3.22-3.22s-3.22,1.45-3.22,3.22v2.68h-2.68c-1.77,0-3.22,1.45-3.22,3.22s1.45,3.22,3.22,3.22h2.68v2.68c0,1.77,1.45,3.22,3.22,3.22s3.22-1.45,3.22-3.22v-2.68h2.68c1.77,0,3.22-1.45,3.22-3.22s-1.45-3.22-3.22-3.22Z"/>
    <g>
      <circle class="cls-3" cx="61.02" cy="72.36" r="16.64"/>
      <path class="cls-1" d="M61.02,55.72c9.19,0,16.64,7.45,16.64,16.64s-7.45,16.64-16.64,16.64-16.64-7.45-16.64-16.64,7.45-16.64,16.64-16.64m0-2.56c-10.59,0-19.2,8.61-19.2,19.2s8.61,19.2,19.2,19.2,19.2-8.61,19.2-19.2-8.61-19.2-19.2-19.2h0Z"/>
    </g>
    <polygon class="cls-4" points="59.33 74.06 68.21 65.18 70.95 67.92 62.07 76.8 59.46 79.42 59.33 79.54 51.1 71.31 53.84 68.57 59.33 74.06"/>
  </g>
</svg>