<?xml version="1.0" encoding="utf-8"?>
<!-- Generator: Adobe Illustrator 27.0.0, SVG Export Plug-In . SVG Version: 6.00 Build 0)  -->
<svg version="1.1" id="Capa_1" xmlns="http://www.w3.org/2000/svg" xmlns:xlink="http://www.w3.org/1999/xlink" x="0px" y="0px"
	 viewBox="0 0 50 53" style="enable-background:new 0 0 50 53;" xml:space="preserve">
<style type="text/css">
	.st0{fill:#0461A8;}
	.st1{fill:#27ACE3;}
</style>
<g>
	<g>
		<path class="st0" d="M32.5,27.6c-2.5,3.3-5.1,4.8-7.6,4.6c-2.5-0.1-5-1.8-7.3-4.8c-1.4-0.1-1.5,0-2.4,0.9l-0.1,0.1
			c-2.1,2-3.2,4-3.7,6.1c-0.5,2.1-0.5,4.3-0.5,6.9c1.9,1.5,4,2.7,6.3,3.5c2.4,0.9,5,1.3,7.7,1.3v0c2.7,0,5.3-0.5,7.7-1.3
			c2.3-0.8,4.4-2,6.3-3.5c0-5,0-8.6-3.7-12.6c-1.1-1.2-1.9-1.2-2.6-1.2L32.5,27.6L32.5,27.6z M24.9,30.5c2,0.1,4.1-1.3,6.4-4.3
			l0.3-0.4l0.5,0c0.2,0,0.3,0,0.5,0c1.1,0,2.2,0,3.9,1.8c4.2,4.5,4.2,8.5,4.2,13.9v0.3v0.4l-0.3,0.3c-2.1,1.8-4.6,3.2-7.2,4.1
			c-2.6,0.9-5.4,1.4-8.3,1.4v0c-2.9,0-5.7-0.5-8.3-1.4c-2.6-0.9-5.1-2.3-7.2-4.1l-0.3-0.3v-0.4c0-2.9,0-5.4,0.6-7.8
			c0.6-2.4,1.8-4.7,4.2-7L14,27c1.5-1.4,1.6-1.6,4.2-1.3l0.4,0l0.2,0.3C20.8,28.8,22.9,30.4,24.9,30.5z"/>
	</g>
	<g>
		<path class="st0" d="M25.2,4.9c2.5,0,5,1.2,6.8,3.2c1.7,1.8,2.9,4.3,2.9,7c0,5.6-5,11.7-9.7,11.7c-2.4,0-5-1.6-7-3.8
			c-1.9-2.2-3.2-5.1-3.2-7.8c0-2.7,1.3-5.2,3.1-7C20,6.2,22.7,4.9,25.2,4.9L25.2,4.9z M30.6,9.3c-1.5-1.6-3.5-2.6-5.5-2.6
			c-2,0-4.2,1-5.9,2.7c-1.5,1.5-2.5,3.5-2.5,5.7c0,2.3,1.1,4.8,2.8,6.7c1.6,1.9,3.7,3.2,5.6,3.2c3.8,0,7.9-5.2,7.9-9.9
			C33,12.9,32.1,10.8,30.6,9.3z"/>
	</g>
	<g>
		<path class="st0" d="M27,5.8c0.5,2.1-0.5,4.3-2.2,6.1c-1.9,2.1-4.8,3.9-7.3,4.7c-0.1,0-0.1,1-0.1,2.1c0,2.9,0,6.6-4.1,6.9
			c-0.9,0.1-1.9-0.1-2.6-0.6c-0.7-0.5-1.2-1.2-1.4-2.1l-0.2-0.8l0.8-0.2c1-0.3,1.9-0.9,2.6-1.6c0.7-0.8,1.3-1.8,1.8-2.8
			c0.4-0.9,0.5-1.7,0.7-2.6c0.2-1.3,0.4-2.6,1.2-4.1c0.9-1.7,2.5-3.1,4.4-4.1c1.8-1,3.8-1.5,5.7-1.4l0.6,0.1L27,5.8L27,5.8z
			 M23.5,10.7c1.1-1.2,1.8-2.5,1.8-3.8c-1.3,0-2.7,0.5-3.9,1.2c-1.5,0.9-2.9,2.1-3.7,3.4c-0.7,1.2-0.9,2.3-1,3.4
			c0.1,0,0.2-0.1,0.3-0.1C19.2,14.1,21.8,12.5,23.5,10.7L23.5,10.7z M15.6,18.6L15.6,18.6c-0.5,0.9-1.1,1.9-1.8,2.7
			c-0.7,0.7-1.5,1.4-2.4,1.8c0.1,0.1,0.2,0.2,0.3,0.3c0.4,0.3,0.9,0.4,1.5,0.3C15.6,23.5,15.6,20.8,15.6,18.6z"/>
	</g>
	<g>
		<path class="st0" d="M27.2,7.2c0,1.2,0.6,2.5,1.5,3.6c1.3,1.6,3.1,3,4.7,3.8C32.6,11.4,31.5,8.1,27.2,7.2L27.2,7.2z M27.2,11.9
			C25.9,10.1,25,8,25.5,5.9l0.2-0.8l0.8,0.1c6.6,0.8,7.7,5.2,8.8,9.4c0.8,3,1.5,5.8,4.6,6.7l1.1,0.3l-0.5,1c0,0-1.8,3.6-4.8,2.9
			c-3.2-0.7-2.8-4.2-2.5-6.9c0.1-1.1,0.3-2,0.3-2C31.2,15.7,28.8,14,27.2,11.9L27.2,11.9z M34.8,19c-0.2,2-0.4,4.3,1.2,4.7
			c1,0.2,1.8-0.5,2.3-1.1C36.5,21.8,35.5,20.5,34.8,19z"/>
	</g>
	<g>
		<path class="st0" d="M22.9,25.8c-2,2.3-3.3,3-3.3,3l-0.9-1.6c0,0,1-0.5,2.8-2.6L22.9,25.8z"/>
	</g>
	<g>
		<path class="st0" d="M28.7,24.4c1.9,2.1,3.1,3,3.1,3l-1.1,1.5c0,0-1.4-1-3.4-3.3L28.7,24.4z"/>
	</g>
	<g>
		<path class="st1" d="M32.4,36.9c-0.3-3,0.2-5.1,0.6-6.7c0.1-0.4,0.2-0.7,0.2-1.1c0.1-0.3,0.1-0.4,0-0.4c0.2,0,1.4,0.6,1.7,0.9
			c-0.1,0.3-0.1,0.7-0.2,1c-0.4,1.5-0.8,3.5-0.6,6.2L32.4,36.9z"/>
	</g>
	<g>
		<path class="st1" d="M17.8,42.9c-0.5,0-0.9-0.5-0.8-1c0-0.5,0.5-0.9,1-0.8c0.6,0,0.8-0.1,1-0.4c0.2-0.5,0.1-1.2,0.1-1.7
			c0-0.1,0-0.1-0.1-0.4c-0.4-1.3-1.3-4.5-1.3-6.1c0-0.3-0.2-0.5-0.5-0.6c-0.2-0.1-0.3-0.1-0.5-0.1c-0.2,0-0.4,0-0.5,0.1
			c-0.3,0.1-0.5,0.3-0.5,0.6c-0.1,1.6-1,4.8-1.3,6.1c-0.1,0.3-0.1,0.3-0.1,0.4c0,0.6-0.1,1.3,0.1,1.7c0.1,0.3,0.4,0.5,1,0.4
			c0.5,0,0.9,0.3,1,0.8c0,0.5-0.3,0.9-0.8,1c-1.6,0.1-2.4-0.6-2.8-1.6c-0.3-0.8-0.3-1.8-0.2-2.5c0-0.1,0.1-0.4,0.2-0.7
			c0.4-1.3,1.2-4.3,1.3-5.7c0-1.1,0.8-1.9,1.7-2.2c0.4-0.1,0.7-0.2,1.1-0.2c0.4,0,0.8,0.1,1.1,0.2c0.9,0.3,1.6,1.1,1.7,2.2
			c0,1.4,0.9,4.4,1.3,5.7c0.1,0.4,0.2,0.6,0.2,0.7c0.1,0.8,0.1,1.7-0.2,2.5C20.2,42.3,19.4,43,17.8,42.9z"/>
	</g>
	<g>
		<path class="st1" d="M17.4,28.3v3.3h-1.8v-2.9C16.1,28.4,16.4,28.3,17.4,28.3z"/>
	</g>
	<g>
		<path class="st1" d="M33.4,37.9c-0.1,0-0.2,0-0.2,0.1c-0.1,0.1-0.1,0.1-0.1,0.2c0,0.1,0,0.2,0.1,0.2c0.1,0.1,0.1,0.1,0.2,0.1
			s0.2,0,0.2-0.1c0.1-0.1,0.1-0.1,0.1-0.2c0-0.1,0-0.2-0.1-0.2C33.6,37.9,33.5,37.9,33.4,37.9L33.4,37.9z M31.9,36.7
			c0.4-0.4,0.9-0.6,1.5-0.6c0.6,0,1.1,0.2,1.5,0.6c0.4,0.4,0.6,0.9,0.6,1.5c0,0.6-0.2,1.1-0.6,1.5c-0.4,0.4-0.9,0.6-1.5,0.6
			c-0.6,0-1.1-0.2-1.5-0.6c-0.4-0.4-0.6-0.9-0.6-1.5C31.3,37.6,31.5,37.1,31.9,36.7z"/>
	</g>
</g>
</svg>
