<?xml version="1.0" encoding="utf-8"?>
<!-- Generator: Adobe Illustrator 27.0.0, SVG Export Plug-In . SVG Version: 6.00 Build 0)  -->
<svg version="1.1" id="Capa_1" xmlns="http://www.w3.org/2000/svg" xmlns:xlink="http://www.w3.org/1999/xlink" x="0px" y="0px"
	 viewBox="0 0 50 53" style="enable-background:new 0 0 50 53;" xml:space="preserve">
<style type="text/css">
	.st0{fill:#0463A9;}
</style>
<g>
	<g>
		<path class="st0" d="M22.4,28.2c-0.3-0.5-0.4-1-0.5-1.6l-0.1-1.3l1.2,0.3c0.4,0.1,0.8,0.2,1.2,0.2c0.4,0,0.8,0.1,1.2,0.1
			c0.4,0,0.8,0,1.2-0.1c0.4,0,0.8-0.1,1.2-0.2l1.2-0.3L29,26.7c0,0.5-0.2,1.1-0.4,1.5c-0.1,0.3-0.3,0.5-0.5,0.7l0.7,2.6l0.1,0.4
			l-0.2,0.3l-2.4,4.1l-0.8,1.4l-0.8-1.4l-2.4-4.1l-0.2-0.4l0.1-0.4l0.7-2.5C22.7,28.8,22.5,28.5,22.4,28.2L22.4,28.2z M24.5,27.8
			L24.5,27.8l0.6,0.4l-0.2,0.7l-0.8,2.7l1.3,2.3l1.3-2.3l-0.7-2.8l-0.2-0.6l0.5-0.4c-0.3,0-0.6,0-0.9,0
			C25.2,27.9,24.9,27.9,24.5,27.8z"/>
	</g>
	<g>
		<path class="st0" d="M34.7,16.3c-0.2,2.6-1.3,5.3-3,7.3c-1.7,2-3.8,3.4-6,3.4c-2.2,0-4.5-1.4-6.3-3.5c-1.7-2-3-4.7-3.1-7.4
			l0.8-0.2l-0.3-0.5l0.1,0c0.5-0.3,0.6-0.3,0.8-1.2c0-0.2,0-0.4,0.1-0.7c0-0.3,0-0.5,0-0.7c0-0.3,0.1-0.5,0.3-0.7v0
			c0.2-0.2,0.4-0.3,0.6-0.4c0.2,0,0.4,0,0.6,0c0.2,0.1,0.5,0.2,0.6,0.5c0.1,0.1,0.3,0.2,0.6,0.3c0.5,0.1,1.1,0.1,1.7,0
			c0.3,0,0.8-0.3,1.4-0.6c1.8-0.9,4-2,6.5-0.3c0.6,0.4,1.1,0.8,1.7,1.3c0.5,0.5,1.1,1,1.5,1.4c0.1,0.1,0.1,0.2,0.2,0.3
			c0.2,0.2,0.5,0.5,0.6,0.6l0.7,0.2L34.7,16.3L34.7,16.3z M30.2,22.4c1.3-1.6,2.2-3.6,2.5-5.7c-0.3-0.2-0.5-0.5-0.7-0.7
			c-0.1-0.1-0.1-0.1-0.2-0.2c-0.4-0.4-0.9-0.9-1.4-1.3c-0.5-0.4-1-0.8-1.5-1.2c-1.6-1.1-3.2-0.3-4.6,0.4c-0.7,0.4-1.3,0.7-2,0.8
			c-0.8,0.1-1.7,0.1-2.4,0c-0.2,0-0.3-0.1-0.5-0.1c0,0.1,0,0.1,0,0.2c-0.2,1.5-0.4,1.8-1.3,2.3c0.3,1.9,1.3,3.9,2.6,5.4
			c1.5,1.7,3.3,2.9,4.9,2.9C27.3,25.1,28.9,24,30.2,22.4z"/>
	</g>
	<g>
		<path class="st0" d="M33.5,27l-7.4,16.6l-0.9,2.1l-0.8-2.1l-6.5-16.7c-0.2,0-0.3,0-0.5-0.1c-0.7-0.1-1-0.2-1.8,0.6
			c-1.6,1.4-2.8,3.1-3.7,5c-0.8,1.8-1.3,3.9-1.3,6v3.3c2,1.6,4.3,2.9,6.8,3.8c2.5,0.9,5.2,1.4,8.1,1.4v0c2.8,0,5.6-0.5,8.1-1.4
			c2.5-0.9,4.8-2.2,6.8-3.8l0-3.3h0c0-1.9-0.4-3.7-1-5.4c-0.7-1.7-1.7-3.3-2.9-4.6L36,28.2c-0.7-0.8-1.1-1.1-1.3-1.2
			C34.5,26.9,34.2,26.9,33.5,27L33.5,27z M25.2,40.7l6.7-15l0.2-0.5l0.6,0c0.1,0,0.1,0,0.3,0h0c1.1-0.1,1.7-0.1,2.4,0.1
			c0.7,0.3,1.1,0.7,2,1.7l0.1,0.1c1.4,1.5,2.5,3.3,3.3,5.2c0.7,1.9,1.2,3.9,1.2,6.1h0l0,3.8l0,0.4l-0.3,0.3
			c-2.3,1.9-4.9,3.4-7.7,4.4c-2.7,1-5.7,1.5-8.7,1.5v0c-3.1,0-6-0.5-8.7-1.5c-2.8-1-5.4-2.5-7.7-4.4l-0.3-0.3v-0.4v-3.8
			c0-2.4,0.5-4.7,1.5-6.8c1-2.2,2.4-4.1,4.2-5.6c1.5-1.3,2-1.2,3.4-1c0.3,0,0.6,0.1,1,0.1l0.6,0.1l0.2,0.5L25.2,40.7z"/>
	</g>
	<g>
		<path class="st0" d="M35.3,28.4c-0.1,1.2,0,2.2,0.1,3.2c0.2,1.6,0.3,3.3-0.3,5.7l-1.9-0.4c0.6-2.2,0.4-3.7,0.3-5.1
			c-0.1-1.1-0.2-2.2-0.1-3.7l0.1-0.2c0.7-0.1,1.1-0.1,1.3,0C34.9,28,35,28.1,35.3,28.4z"/>
	</g>
	<g>
		<path class="st0" d="M17,42.7c-0.5,0-0.9-0.5-0.9-1c0-0.5,0.5-0.9,1-0.9c0.5,0,0.8-0.1,0.8-0.4c0.2-0.4,0.1-1.1,0.1-1.6
			c0-0.1,0-0.1-0.1-0.3c-0.4-1.3-1.2-4.3-1.3-5.9c0-0.3-0.2-0.4-0.4-0.5C16.1,32,16,32,15.8,32c-0.2,0-0.3,0-0.5,0.1
			c-0.3,0.1-0.5,0.3-0.5,0.5c-0.1,1.6-0.9,4.7-1.3,5.9c-0.1,0.3-0.1,0.3-0.1,0.4c0,0.5-0.1,1.2,0.1,1.6c0.1,0.2,0.3,0.4,0.8,0.4
			c0.5,0,1,0.4,1,0.9c0,0.5-0.4,1-0.9,1c-1.6,0.1-2.4-0.6-2.8-1.6c-0.3-0.8-0.3-1.7-0.2-2.5c0-0.1,0.1-0.4,0.2-0.7
			c0.3-1.2,1.2-4.1,1.2-5.5c0-1.1,0.8-1.9,1.7-2.2c0.4-0.1,0.7-0.2,1.1-0.2c0.4,0,0.8,0.1,1.1,0.2c0.9,0.3,1.6,1.1,1.7,2.3
			c0,1.3,0.9,4.3,1.2,5.5c0.1,0.4,0.2,0.6,0.2,0.7c0.1,0.7,0.1,1.7-0.2,2.5C19.4,42.2,18.6,42.9,17,42.7z"/>
	</g>
	<g>
		<path class="st0" d="M17.1,27.7C17,28.4,16.7,32,16.7,32l-1.9-0.1c0,0,0.2-2,0.3-3.3c0.1-0.1,0.2-0.2,0.3-0.3
			C16.2,27.6,16.5,27.6,17.1,27.7z"/>
	</g>
	<g>
		<path class="st0" d="M31.2,6.6c-0.6-0.4-1.6-0.8-2.7-1.2c-1.5-0.5-3.3-0.7-4.9-0.5c-1.5,0.2-2.9,0.9-3.9,2.3
			c-0.3,0.4-0.5,1-0.7,1.6l-0.1,0.5l-0.5,0.2c-2.3,0.8-2.5,2-2.1,3c0.2,0.7,0.7,1.4,1.1,2.1c0,0.1,0.1,0.1,0.1,0.2
			c0-0.1,0.1-0.3,0.1-0.5c0-0.2,0-0.4,0.1-0.7c0-0.3,0-0.5,0-0.7c0-0.3,0.1-0.5,0.3-0.7c0.2-0.2,0.4-0.3,0.6-0.4c0.2,0,0.4,0,0.6,0
			c0.2,0.1,0.5,0.2,0.6,0.5c0.1,0.1,0.3,0.2,0.6,0.3c0.5,0.1,1.1,0.1,1.7,0c0.3,0,0.8-0.3,1.4-0.6c1.8-0.9,4-2,6.5-0.3
			c0.6,0.4,1.1,0.8,1.7,1.3c0.5,0.5,1.1,1,1.5,1.4c0,0,0.1,0.1,0.2,0.2C34.3,12.2,35.3,9.3,31.2,6.6L31.2,6.6z M29.1,3.6
			C30.4,4,31.5,4.5,32.3,5c5.4,3.5,4,7.3,2.8,10.4c-0.1,0.4-0.3,0.7-0.4,1.1l-0.3,0.8l-0.8-0.1C33,17,32.4,16.4,32,16
			c-0.1-0.1-0.1-0.1-0.2-0.2c-0.4-0.4-0.9-0.9-1.4-1.3c-0.5-0.4-1-0.8-1.5-1.2c-1.6-1.1-3.2-0.3-4.6,0.4c-0.7,0.4-1.3,0.7-2,0.8
			c-0.8,0.1-1.7,0.1-2.4,0c-0.2,0-0.3-0.1-0.5-0.1c0,0.1,0,0.1,0,0.2c-0.2,1.8-0.5,1.9-1.7,2.6l-0.1,0l-1.1,0.6l-0.3-1.2
			c0-0.2-0.3-0.5-0.5-1c-0.4-0.7-0.9-1.5-1.2-2.4c-0.7-2-0.5-4,2.9-5.3c0.2-0.6,0.5-1.1,0.8-1.6c1.3-1.9,3.2-2.9,5.2-3.1
			C25.3,2.8,27.4,3.1,29.1,3.6z"/>
	</g>
	<g>
		<path class="st0" d="M33.8,37.3c-0.1,0-0.3,0.1-0.3,0.1c-0.1,0.1-0.1,0.2-0.1,0.3c0,0.1,0.1,0.3,0.1,0.3c0.1,0.1,0.2,0.1,0.3,0.1
			c0.1,0,0.3-0.1,0.3-0.1c0.1-0.1,0.1-0.2,0.1-0.3c0-0.1-0.1-0.3-0.1-0.3C34.1,37.4,34,37.3,33.8,37.3L33.8,37.3z M32.1,36.1
			c0.4-0.4,1-0.7,1.7-0.7c0.7,0,1.3,0.3,1.7,0.7c0.4,0.4,0.7,1,0.7,1.7c0,0.7-0.3,1.3-0.7,1.7c-0.4,0.4-1,0.7-1.7,0.7
			c-0.7,0-1.3-0.3-1.7-0.7c-0.4-0.4-0.7-1-0.7-1.7C31.4,37.1,31.7,36.6,32.1,36.1z"/>
	</g>
</g>
</svg>
