<?xml version="1.0" encoding="utf-8"?>
<!-- Generator: Adobe Illustrator 27.0.0, SVG Export Plug-In . SVG Version: 6.00 Build 0)  -->
<svg version="1.1" id="Capa_1" xmlns="http://www.w3.org/2000/svg" xmlns:xlink="http://www.w3.org/1999/xlink" x="0px" y="0px"
	 viewBox="0 0 50 53" style="enable-background:new 0 0 50 53;" xml:space="preserve">
<style type="text/css">
	.st0{fill:#0461A8;}
	.st1{fill:#27ACE3;}
</style>
<g>
	<g>
		<path class="st0" d="M12.1,7.7H16h1l-0.1,1l0,0c0,0,0,0,0,0v1.8h16.2V8.8c0,0,0,0,0,0l0,0l-0.1-1h1h3.8c0.5,0,1,0.2,1.3,0.5
			c0.3,0.3,0.6,0.8,0.6,1.3v37.9c0,0.5-0.2,1-0.6,1.3c-0.3,0.3-0.8,0.5-1.3,0.5H12.1c-0.5,0-1-0.2-1.3-0.5c-0.3-0.3-0.6-0.8-0.6-1.3
			V9.5c0-0.5,0.2-1,0.6-1.3C11.1,7.9,11.6,7.7,12.1,7.7L12.1,7.7z M15,9.6h-2.9v37.8h25.7V9.6H35v1.5v1h-1H16h-1v-1V9.6z"/>
	</g>
	<g>
		<path class="st0" d="M17.3,6.5h3.5c0.3-1.3,1.3-2.1,2.5-2.5c0.5-0.2,1.1-0.3,1.7-0.3c0.6,0,1.1,0.1,1.7,0.3
			c1.2,0.4,2.2,1.2,2.5,2.5h3.5c0.6,0,1.2,0.3,1.6,0.7c0.4,0.4,0.7,1,0.7,1.6v2.5v1h-1H16h-1v-1V8.8c0-0.6,0.3-1.2,0.7-1.6
			C16.1,6.7,16.7,6.5,17.3,6.5L17.3,6.5z M21.7,8.4h-4.4c-0.1,0-0.2,0-0.3,0.1c-0.1,0.1-0.1,0.2-0.1,0.3v1.5h16.2V8.8
			c0-0.1,0-0.2-0.1-0.3c-0.1-0.1-0.2-0.1-0.3-0.1h-4.4h-1l0-1l0,0l0,0l0,0h0c0-0.8-0.6-1.4-1.3-1.6c-0.3-0.1-0.7-0.2-1.1-0.2
			c-0.4,0-0.7,0.1-1.1,0.2c-0.7,0.2-1.3,0.8-1.3,1.6h0v0l0,0l0,0l0,1H21.7z"/>
	</g>
	<g>
		<polygon class="st1" points="23.6,21.7 23.6,18.9 20.7,18.9 20.7,16.9 23.6,16.9 23.6,14.1 25.5,14.1 25.5,16.9 28.3,16.9 
			28.3,18.9 25.5,18.9 25.5,21.7 		"/>
	</g>
	<g>
		<rect x="20.7" y="27.4" class="st1" width="15.2" height="1.9"/>
	</g>
	<g>
		<path class="st0" d="M15,23.6h3.8h1v1v3.8v1h-1H15h-1v-1v-3.8v-1H15L15,23.6z M17.8,25.5h-1.9v1.9h1.9V25.5z"/>
	</g>
	<g>
		<rect x="20.7" y="35" class="st1" width="15.2" height="1.9"/>
	</g>
	<g>
		<path class="st0" d="M15,31.2h3.8h1v1V36v1h-1H15h-1v-1v-3.8v-1H15L15,31.2z M17.8,33.1h-1.9V35h1.9V33.1z"/>
	</g>
	<g>
		<rect x="20.7" y="42.7" class="st1" width="15.2" height="1.9"/>
	</g>
	<g>
		<path class="st0" d="M15,38.9h3.8h1v1v3.8v1h-1H15h-1v-1v-3.8v-1H15L15,38.9z M17.8,40.8h-1.9v1.9h1.9V40.8z"/>
	</g>
</g>
</svg>
