<?xml version="1.0" encoding="utf-8"?>
<!-- Generator: Adobe Illustrator 27.0.0, SVG Export Plug-In . SVG Version: 6.00 Build 0)  -->
<svg version="1.1" id="Capa_1" xmlns="http://www.w3.org/2000/svg" xmlns:xlink="http://www.w3.org/1999/xlink" x="0px" y="0px"
	 viewBox="0 0 50 53" style="enable-background:new 0 0 50 53;" xml:space="preserve">
<style type="text/css">
	.st0{fill:#0461A8;}
	.st1{fill:#27ACE3;}
</style>
<g>
	<g>
		<path class="st0" d="M43.7,10.5c1.2,1.4,1.2,3,0.7,4.5c-0.6,1.9-2,3.6-3.2,4.9l0,0c-0.2,0.2-3.1,3.1-6,6c-1.8,1.8-3.7,3.6-4.9,4.8
			l0,0c-1.1,1.1-2.3,1.8-3.3,2.1c-1.1,0.2-2,0.2-3-0.1c-1-0.4-1.7-1-2.3-1.9c-0.5-1-0.8-2-0.8-3.5c0-1.7,0-4.4,0-7.2
			c0-4.2-0.1-8.2,0-8.5v-0.2c0-0.7,0-1.4,0.1-2.1c0.2-2.9,1.2-5.7,5.1-6c-0.1,0.5-0.2,0.8-0.2,1.3c0,0.4,0,0.6,0.1,0.8
			c-2.1,0.4-2.6,2.1-2.9,3.9c-0.1,0.7-0.1,1.3-0.1,2v0.2c0,0.2,0,4.3,0,8.3c0,2.7,0,5.5,0,7.2c0,1.1,0.2,1.9,0.6,2.5
			c0.2,0.5,0.7,0.8,1.1,1c0.5,0.1,1,0.2,1.6,0c0.8-0.2,1.7-0.7,2.5-1.6l0,0c1.2-1.2,3.1-3,4.9-4.8c3-2.9,5.8-5.7,6-5.8l0,0
			c1.1-1.2,2.4-2.6,2.7-4.1c0.2-0.7,0.2-1.4-0.1-2.1c0.2-0.1,0.5-0.4,0.7-0.6C43.2,11.2,43.4,10.8,43.7,10.5z"/>
	</g>
	<g>
		<path class="st0" d="M25.4,32.5c-2.6,5.1-2.6,8.1-2.6,10.9c0,1.4,0,2.7-0.2,4.2l0,0c-0.1,0.8-0.5,1.6-0.8,2.1
			c-0.6,1.1-1.6,2-2.6,2.6c-1.1,0.6-2.5,0.8-3.9,0.6l0,0c-0.7-0.1-1.6-0.5-2.3-0.8c-1.7-1-2.6-2.3-3-3.8c-0.4-1.7-0.1-3.6,0.7-5.5
			c0.2-0.7,1-1.6,1.7-2.6c0.5-0.7,1.1-1.4,1.6-2.3c1-1.4,1.8-3,1.8-4.4c0.1-0.1,0.4-0.2,0.5-0.4c0.6-0.6,1-1.3,1.3-2
			c1.3,2.4,0,5.4-1.8,8c-0.5,0.8-1.1,1.7-1.7,2.4c-0.7,1-1.2,1.7-1.4,2.1C12,45,11.7,46.5,12,47.8c0.2,1,0.8,1.8,1.9,2.4
			c0.6,0.4,1.1,0.5,1.7,0.6l0,0c1,0.2,1.8,0,2.5-0.4s1.3-1,1.7-1.8c0.2-0.5,0.5-1,0.6-1.6l0,0c0.2-1.3,0.2-2.5,0.2-3.8
			c0-3,0-6.3,2.9-11.9L25.4,32.5z"/>
	</g>
	<g>
		<path class="st1" d="M29.6,1.8c0.7,0,1.4,0.4,1.9,0.8c0.5,0.5,0.8,1.2,0.8,1.9S32,5.9,31.5,6.4c-0.5,0.5-1.2,0.8-1.9,0.8
			c-0.7,0-1.4-0.4-1.9-0.8s-0.8-1.2-0.8-1.9s0.4-1.4,0.8-1.9C28.2,2.1,28.9,1.8,29.6,1.8L29.6,1.8z M30,4.1C29.8,4,29.7,4,29.6,4
			c-0.1,0-0.2,0.1-0.4,0.1c-0.1,0.1-0.1,0.2-0.1,0.4c0,0.1,0.1,0.2,0.1,0.4C29.4,5,29.5,5,29.6,5s0.2-0.1,0.4-0.1
			c0.1-0.1,0.1-0.2,0.1-0.4C30.2,4.4,30.1,4.3,30,4.1z"/>
	</g>
	<g>
		<path class="st1" d="M40.2,6.2c0.7,0,1.4,0.4,1.9,0.8C42.6,7.5,43,8.2,43,8.9c0,0.7-0.4,1.4-0.8,1.9c-0.5,0.5-1.2,0.8-1.9,0.8
			c-0.7,0-1.4-0.4-1.9-0.8s-0.8-1.2-0.8-1.9c0-0.7,0.4-1.4,0.8-1.9C38.8,6.4,39.5,6.2,40.2,6.2L40.2,6.2z M40.6,8.4
			c-0.1-0.1-0.2-0.1-0.4-0.1c-0.1,0-0.2,0.1-0.4,0.1c-0.1,0.1-0.1,0.2-0.1,0.4c0,0.1,0.1,0.2,0.1,0.4c0.1,0.1,0.2,0.1,0.4,0.1
			c0.1,0,0.2-0.1,0.4-0.1c0.1-0.1,0.1-0.2,0.1-0.4C40.8,8.7,40.7,8.6,40.6,8.4z"/>
	</g>
	<g>
		<path class="st1" d="M12.2,24.9c1.2,0,2.3,0.5,3.1,1.3c0.8,0.8,1.3,1.9,1.3,3.1c0,1.2-0.5,2.3-1.3,3.1c-0.8,0.8-1.9,1.3-3.1,1.3
			s-2.3-0.5-3.1-1.3c-0.8-0.8-1.3-1.9-1.3-3.1c0-1.2,0.5-2.3,1.3-3.1C9.9,25.4,11,24.9,12.2,24.9L12.2,24.9z M13.9,27.8
			c-0.4-0.4-1-0.7-1.6-0.7c-0.6,0-1.2,0.2-1.6,0.7c-0.4,0.4-0.7,1-0.7,1.6s0.2,1.2,0.7,1.6c0.4,0.4,1,0.7,1.6,0.7
			c0.6,0,1.2-0.2,1.6-0.7c0.4-0.4,0.7-1,0.7-1.6S14.2,28.1,13.9,27.8z"/>
	</g>
</g>
</svg>
