<?xml version="1.0" encoding="utf-8"?>
<!-- Generator: Adobe Illustrator 27.0.0, SVG Export Plug-In . SVG Version: 6.00 Build 0)  -->
<svg version="1.1" id="Capa_1" xmlns="http://www.w3.org/2000/svg" xmlns:xlink="http://www.w3.org/1999/xlink" x="0px" y="0px"
	 viewBox="0 0 50 53" style="enable-background:new 0 0 50 53;" xml:space="preserve">
<style type="text/css">
	.st0{fill:#0463A9;}
	.st1{fill:#28ABE3;}
</style>
<g>
	<g>
		<path class="st0" d="M41.4,21H25.3v17.9h16.2V21L41.4,21z M24.4,19.3h17.9h0.8v0.9v19.6v0.9h-0.8H24.4h-0.8v-0.9V20.1v-0.9H24.4z"
			/>
	</g>
	<g>
		<path class="st0" d="M7.4,25.2h17h0.9v0.8v13.6v0.8h-0.9h-17H6.5v-0.8V26.1v-0.8H7.4L7.4,25.2z M23.6,26.9H8.2v11.9h15.3V26.9z"/>
	</g>
	<g>
		<path class="st0" d="M28.7,22.7H38h0.9v1.2v15.5v1.2H38h-9.4h-0.9v-1.2V23.9v-1.2H28.7L28.7,22.7z M37.2,25.1h-7.7v13.1h7.7V25.1z
			"/>
	</g>
	<g>
		<path class="st0" d="M11.6,28.6h8.5H21v0.9v6.8v0.9h-0.9h-8.5h-0.9v-0.9v-6.8v-0.9H11.6L11.6,28.6z M19.3,30.3h-6.8v5.1h6.8V30.3z
			"/>
	</g>
	<g>
		<polygon class="st1" points="44.5,18.7 32.9,14.3 22.2,18.7 21.5,17.2 32.9,12.5 45.2,17.2 		"/>
	</g>
	<g>
		<rect x="4.8" y="22.7" class="st1" width="17.9" height="1.7"/>
	</g>
	<g>
		<rect x="15.1" y="29.7" class="st0" width="1.7" height="6.2"/>
	</g>
	<g>
		<rect x="32.5" y="24" class="st0" width="1.7" height="16.2"/>
	</g>
</g>
</svg>
