<?xml version="1.0" encoding="utf-8"?>
<!-- Generator: Adobe Illustrator 27.0.0, SVG Export Plug-In . SVG Version: 6.00 Build 0)  -->
<svg version="1.1" id="Layer_1" xmlns="http://www.w3.org/2000/svg" xmlns:xlink="http://www.w3.org/1999/xlink" x="0px" y="0px"
	 viewBox="0 0 88.7 88.8" style="enable-background:new 0 0 88.7 88.8;" xml:space="preserve">
<style type="text/css">
	.st0{fill:#FFFFFF;}
	.st1{fill:#EFC516;}
	.st2{fill:#0061A8;}
	.st3{fill:#E8E8EA;}
</style>
<path class="st0" d="M60.5,26.7c-0.1-0.1-0.2-0.3-0.4-0.4c-0.1-0.1-0.1-0.1-0.2-0.2c-0.2-0.2-0.4-0.3-0.7-0.3
	c-1.4-0.4-2.8-0.8-4.2-1.1c-0.6-0.1-1.1-0.2-1.7-0.3c-0.3-0.1-0.6-0.1-0.8-0.2c-0.6-0.1-1.1-0.2-1.7-0.3c-0.6-0.1-1.1-0.2-1.7-0.2
	c-0.3,0-0.6-0.1-0.8-0.1c-0.8-0.1-1.7-0.1-2.5-0.2c-1.4-0.1-2.8-0.1-4.2,0c-0.6,0-1.1,0-1.7,0.1c-0.6,0-1.1,0.1-1.7,0.1
	c-0.6,0-1.1,0.1-1.7,0.2c-1.4,0.2-2.8,0.4-4.3,0.7c-1,0.2-1.9,0.4-2.8,0.7c-0.5,0.1-0.9,0.2-1.4,0.4c-0.5,0.1-0.9,0.3-1.4,0.4
	c-0.3,0.1-0.5,0.2-0.7,0.3c-0.1,0.1-0.2,0.1-0.2,0.2c-0.1,0.2-0.2,0.4-0.3,0.6c0,0.2-0.1,0.3-0.1,0.5c0,0.1,0,0.2,0,0.3
	c0,0.1,0,0.1,0,0.2c0.1,0.3,0.3,0.5,0.5,0.7c0.1,0.1,0.2,0.1,0.3,0.2c0,0,0.1,0,0.1,0.1c0.1,0,0.2,0.1,0.3,0.1c0.1,0,0.1,0,0.2,0
	c0.1,0,0.1,0,0.2,0c0.2,0,0.4,0,0.5,0c0.2,0,0.3-0.1,0.5-0.1c0.2-0.1,0.3-0.1,0.5-0.1c2.2-0.6,4.3-1.1,6.5-1.5
	c0.5-0.1,1.1-0.2,1.6-0.2c3-0.4,6-0.5,9-0.3c0.8,0,1.6,0.1,2.5,0.2c2.2,0.2,4.4,0.6,6.6,1.1c0.2,0,0.4,0.1,0.6,0.1
	c0.7,0.2,1.5,0.4,2.2,0.6c0.4,0.1,0.7,0.2,1,0.3c0.2,0,0.3,0.1,0.5,0.1c0.7,0,1.2-0.2,1.5-0.5c0.1-0.1,0.1-0.2,0.2-0.3
	c0,0,0-0.1,0.1-0.2c0.1-0.3,0.1-0.6-0.1-0.9C60.7,27,60.6,26.9,60.5,26.7L60.5,26.7z"/>
<path class="st1" d="M43.1,74.1c-0.9-0.1-1.7,0.7-1.7,1.6c0,0.6,0,1.3,0.1,1.9c0.7,6.3,5.9,10.6,12.4,10.4
	c5.9-0.2,10.7-5.3,10.8-11.4c0-2.1,0-4.2,0-6.3c-0.1-7.2,2-13.7,6.4-19.3c0.5-0.7,0.5-1.7-0.2-2.2l0,0c-0.7-0.6-1.7-0.5-2.3,0.2
	c-0.8,1-1.6,2.1-2.3,3.2c-3.6,5.8-5.1,12.2-4.9,19.1c0,2,0.1,4,0,6c-0.3,3.6-3.1,6.5-6.7,7.3c-3.4,0.7-6.9-0.9-8.9-3.8
	c-1-1.6-1.3-3.4-1.3-5.2C44.5,74.8,43.9,74.2,43.1,74.1L43.1,74.1L43.1,74.1z"/>
<path class="st2" d="M66.2,28.7c0.3-5-1.9-8.5-6.6-9.8c-2.8-0.8-5.6-1.4-8.4-1.9c-8.6-1.4-17-0.6-25.2,2.1c-3.3,1.1-5.4,3.5-5.7,7.1
	c-0.2,2.8-0.2,5.6-0.1,8.4c0.1,3,1.3,5.5,4,7.1c1.4,0.8,3,1.2,4.6,1.7c1.6,0.5,1.8,0.7,1.8,2.4c0,5.8,0.1,11.5,0,17.3
	c-0.1,6.1,4.1,11.6,10.3,12.8l0.1,0c1.6,0.3,3.2,0.3,4.8-0.1l0,0c6.3-1.5,10.2-6.4,10.2-12.9c0-5.8,0-11.5,0-17.3
	c0-1.6,0.1-1.8,1.7-2.2c0.7-0.2,1.4-0.4,2.1-0.6c4.3-1.3,6.7-4.7,6.4-9.3C66.1,32,66.1,30.3,66.2,28.7L66.2,28.7z M60.8,28.1
	c0,0.1,0,0.1-0.1,0.2c0,0.1-0.1,0.2-0.2,0.3c-0.3,0.4-0.9,0.6-1.5,0.5c-0.2,0-0.3-0.1-0.5-0.1c-0.3-0.1-0.7-0.2-1-0.3
	c-0.7-0.2-1.4-0.4-2.2-0.6c-0.2,0-0.4-0.1-0.6-0.1c-2.2-0.5-4.4-0.9-6.6-1.1c-0.8-0.1-1.6-0.1-2.5-0.2c-3-0.2-6,0-9,0.3
	c-0.5,0.1-1.1,0.1-1.6,0.2c-2.2,0.3-4.4,0.8-6.5,1.5c-0.2,0-0.3,0.1-0.5,0.1c-0.2,0-0.3,0.1-0.5,0.1c-0.2,0-0.4,0.1-0.5,0
	c-0.1,0-0.1,0-0.2,0c-0.1,0-0.1,0-0.2,0c-0.1,0-0.2,0-0.3-0.1c0,0-0.1,0-0.1-0.1c-0.1,0-0.2-0.1-0.3-0.2c-0.2-0.2-0.4-0.4-0.5-0.7
	c0-0.1,0-0.1,0-0.2c0-0.1,0-0.2,0-0.3c0-0.2,0-0.3,0.1-0.5c0.1-0.2,0.2-0.4,0.3-0.6c0.1-0.1,0.2-0.2,0.2-0.2
	c0.2-0.1,0.4-0.2,0.7-0.3c0.5-0.1,0.9-0.3,1.4-0.4c0.5-0.1,0.9-0.3,1.4-0.4c0.9-0.2,1.9-0.5,2.8-0.7c1.4-0.3,2.8-0.5,4.3-0.7
	c0.6-0.1,1.1-0.1,1.7-0.2c0.6,0,1.1-0.1,1.7-0.1c0.6,0,1.1-0.1,1.7-0.1c1.4,0,2.8,0,4.2,0c0.8,0,1.7,0.1,2.5,0.2
	c0.3,0,0.6,0.1,0.8,0.1c0.6,0.1,1.1,0.1,1.7,0.2s1.1,0.2,1.7,0.3c0.3,0,0.6,0.1,0.8,0.2c0.6,0.1,1.1,0.2,1.7,0.3
	c1.4,0.3,2.8,0.7,4.2,1.1c0.2,0.1,0.4,0.2,0.7,0.3c0.1,0,0.1,0.1,0.2,0.2c0.1,0.1,0.3,0.2,0.4,0.4c0.1,0.1,0.2,0.3,0.2,0.4
	C60.9,27.5,60.9,27.8,60.8,28.1L60.8,28.1z"/>
<path class="st3" d="M26.4,12.5L26.4,12.5c-0.3-1,0.2-2,1.2-2.3c10.3-3,20.8-3,31.1,0c1,0.3,1.5,1.4,1.2,2.3l0,0
	c-0.3,1-1.3,1.5-2.3,1.2c-9.6-2.8-19.3-2.8-28.9,0C27.7,13.9,26.7,13.4,26.4,12.5z"/>
<path class="st3" d="M63.2,7.6c-13.3-4-26.8-4-40.1,0c-1,0.3-2-0.2-2.3-1.2l0,0c-0.3-1,0.2-2,1.2-2.3c14-4.2,28.2-4.2,42.3,0
	c1,0.3,1.5,1.4,1.2,2.3l0,0C65.2,7.4,64.2,7.9,63.2,7.6z"/>
</svg>
