<?xml version="1.0" encoding="UTF-8"?>
<svg id="Layer_1" data-name="Layer 1" xmlns="http://www.w3.org/2000/svg" viewBox="0 0 85.36 89.34">
  <defs>
    <style>
      .cls-1 {
        fill: #e9686a;
      }

      .cls-2 {
        fill: #0061a8;
      }

      .cls-3 {
        fill: #e8e8ea;
      }
    </style>
  </defs>
  <g>
    <path class="cls-2" d="M15.9,66.6c2.41-2.43,4.88-4.92,7.35-7.4,3.37-3.38,6.73-6.78,10.15-10.12,.65-.63,.68-1.08,.29-1.87-1.91-3.84-1.55-7.57,1.11-10.89,2.7-3.36,6.34-4.56,10.49-3.44,4.14,1.12,6.63,3.97,7.39,8.22,.25,1.38,.18,2.77-.36,4.33-.95-.98-1.79-1.87-2.67-2.72-2.39-2.3-5.96-2.62-8.41-.76-3.14,2.38-3.43,6.63-.64,9.63,.29,.31,.62,.59,.89,.97-1.4-.01-2.64-.48-3.8-1.15-.42-.24-.68-.24-1.04,.12-5.91,5.93-11.84,11.85-17.76,17.78-.06,.06-.11,.15-.06,.07,.48,1.52,1.07,2.89,1.33,4.33,.94,5.32-2.84,10.5-8.23,11.43-5.45,.94-10.71-2.64-11.72-8-.99-5.23,2.03-10.22,7.13-11.71,.65-.19,.8-.48,.8-1.09-.02-3.63-.03-7.26,0-10.89,0-.65-.2-.9-.82-1.08C2.95,51.06,.05,47.18,.03,42.68c-.01-4.53,2.91-8.44,7.33-9.76,.55-.17,.79-.37,.79-1-.03-3.66-.03-7.32,0-10.98,0-.67-.24-.88-.84-1.06C2.49,18.46-.64,13.59,.11,8.77,.93,3.54,5.29-.14,10.5,0c5.01,.14,9.06,3.88,9.77,9.04,.65,4.68-2.52,9.47-7.23,10.83-.67,.19-.86,.47-.85,1.14,.03,3.6,.04,7.2,0,10.8,0,.7,.24,.94,.88,1.13,4.35,1.29,7.27,5.23,7.26,9.72,0,4.5-2.91,8.4-7.29,9.69-.67,.2-.85,.49-.84,1.16,.03,3.6,.03,7.2,0,10.8,0,.68,.2,.95,.87,1.14,.92,.26,1.78,.71,2.84,1.15Z"/>
    <path class="cls-3" d="M73.05,61.37c0,3.72,.11,7.45-.02,11.17-.27,7.36-5.85,14.23-12.96,16.1-6.84,1.8-12.82,.19-17.9-4.7-1.99-1.91-3.92-3.89-5.86-5.85-1.09-1.1-1.24-2.43-.41-3.4,.81-.94,2.1-.99,3.34-.11,1.1,.77,2.18,.72,2.91-.13,.76-.87,.68-1.93-.25-2.91-.57-.61-1.2-1.17-1.77-1.79-.96-1.03-.96-2.45-.04-3.33,.87-.83,2.31-.78,3.28,.14,.56,.53,1.09,1.11,1.65,1.64,1.07,1.03,2.26,1.12,3.13,.27,.87-.86,.79-2.06-.25-3.12-.87-.89-1.76-1.75-2.63-2.64-1.05-1.08-1.08-2.41-.1-3.39,.86-.86,2.34-.79,3.34,.2,1.57,1.54,3.11,3.12,4.68,4.67,.84,.83,1.7,1.02,2.52,.61,1.11-.55,1.48-1.88,.79-2.91-.22-.33-.5-.63-.79-.91-3.99-4-7.98-7.99-11.98-11.97-.6-.6-1.04-1.25-.97-2.11,.06-.82,.43-1.5,1.22-1.84,.82-.35,1.64-.33,2.38,.21,.3,.21,.56,.49,.82,.75,5.99,5.99,11.98,11.98,17.98,17.96,.37,.36,.79,.74,1.26,.92,1.29,.5,2.61-.49,2.64-2,.04-2.08,.01-4.16,.02-6.24,0-1.43-.03-2.86,.03-4.28,.08-1.78,1.27-3.17,2.93-3.51,.94-.19,1.1-.07,1.1,.9,0,3.88,0,7.76,0,11.63-.03,0-.06,0-.09,0Z"/>
    <path class="cls-1" d="M75.19,20.3c-5.58,.01-10.14-4.5-10.17-10.07C64.98,4.61,69.54,.01,75.15,0c5.61-.01,10.17,4.56,10.16,10.18-.01,5.58-4.54,10.1-10.12,10.12Z"/>
    <path class="cls-2" d="M52.8,10.16c0,5.64-4.56,10.16-10.19,10.13-5.59-.03-10.08-4.55-10.08-10.15C32.55,4.51,37.11-.03,42.73,0c5.58,.03,10.08,4.57,10.08,10.16Z"/>
    <path class="cls-2" d="M77.21,52.49c0-.94-.05-1.81,0-2.67,.23-3.71-2.8-5.98-6.52-4.84-1.66,.51-3,1.45-4.09,2.78-2.08-2.75-2.17-7.32,.12-10.75,2.57-3.85,7.45-5.48,11.8-3.93,4.38,1.55,7.13,5.81,6.74,10.45-.37,4.4-3.77,8.24-8.06,8.96Z"/>
    <path class="cls-2" d="M72.42,84.88c4.83-5.85,5.09-12.63,4.72-19.66,3.8,.89,6.31,3.05,7.54,6.47,1.41,3.92,.63,7.56-2.31,10.55-2.68,2.73-5.96,3.58-9.95,2.63Z"/>
  </g>
  <path class="cls-1" d="M12.14,6.22c-.75,0-1.43,.31-1.91,.81-.49-.5-1.16-.81-1.91-.81-1.48,0-2.67,1.2-2.67,2.67,0,3,4.58,5.18,4.58,5.18,0,0,4.58-2.18,4.58-5.18,0-1.48-1.2-2.67-2.67-2.67Z"/>
  <path class="cls-3" d="M78.37,8.55h-1.61v-1.61c0-.6-.49-1.1-1.1-1.1h-1.01c-.6,0-1.09,.49-1.09,1.1v1.61h-1.61c-.6,0-1.1,.49-1.1,1.09v1.01c0,.6,.49,1.09,1.1,1.09h1.61v1.61c0,.6,.49,1.09,1.09,1.09h1.01c.6,0,1.1-.49,1.1-1.09v-1.61h1.61c.6,0,1.09-.49,1.09-1.09v-1.01c0-.6-.49-1.09-1.09-1.09Z"/>
</svg>