<?xml version="1.0" encoding="UTF-8"?>
<svg id="Layer_1" data-name="Layer 1" xmlns="http://www.w3.org/2000/svg" viewBox="0 0 78.56 89.34">
  <defs>
    <style>
      .cls-1 {
        fill: #0061a8;
      }

      .cls-2 {
        fill: #e8e8ea;
      }

      .cls-3 {
        fill: #efc516;
      }
    </style>
  </defs>
  <path class="cls-2" d="M47.17,73.28c0,1.47,0,2.82,0,4.16,0,2.93,.02,5.85-.01,8.78-.02,2.2-.96,3.11-3.17,3.11-10.09,0-20.19,0-30.28,0-2.18,0-3.1-.93-3.1-3.16-.01-8.73,.02-17.46-.05-26.19,0-.79-.42-1.75-.95-2.35C.29,47.3-2.44,35.39,2.25,22.38,6.87,9.52,16.45,1.98,30.07,.27c19.53-2.46,36.83,12.18,37.96,31.79,.04,.71,.32,1.48,.71,2.08,2.95,4.52,5.96,9,8.94,13.5,1.45,2.2,1.1,3.56-1.24,4.74-2.43,1.23-4.85,2.47-7.31,3.64-.8,.38-1.08,.86-1.07,1.74,.04,2.62,.1,5.25-.04,7.87-.24,4.53-3.41,7.54-7.96,7.63-3.68,.07-7.37,.02-11.05,.02-.55,0-1.1,0-1.85,0ZM20.95,36.62c1,1.9,1.7,3.79,2.87,5.32,1.68,2.19,2.62,4.44,2.47,7.24-.12,2.25,.95,3.16,3.26,3.17,2.83,.02,5.65,0,8.48,0,3.22,0,3.99-.68,3.88-3.89-.09-2.37,.57-4.33,2.18-6.07,.71-.77,1.44-1.68,1.71-2.65,.63-2.28,1.63-3.6,4.32-3.21,1.28,.19,2.31-1.23,2.32-2.51,0-1.35-1.02-2.46-2.46-2.58-.75-.06-1.52,.05-2.26-.07-.35-.05-.8-.37-.94-.69-.59-1.27-1.08-2.59-1.73-4.19,.54-.45,1.25-.96,1.84-1.57,1.22-1.27,1.25-2.83,.14-3.89-1.07-1.03-2.54-.98-3.78,.17-.48,.44-.89,.97-1.41,1.37-.26,.2-.74,.36-1.01,.25-1.35-.54-2.65-1.18-4.08-1.83,0-.87,.06-1.83-.01-2.78-.11-1.53-1.25-2.55-2.69-2.5-1.38,.04-2.38,1.05-2.48,2.54-.04,.7,.06,1.42-.05,2.11-.06,.35-.36,.81-.67,.96-1.26,.6-2.58,1.1-4.15,1.76-.53-.59-1.11-1.36-1.81-2-1.17-1.07-2.64-1.04-3.67-.02-1.03,1.02-1.08,2.51,0,3.66,.65,.69,1.46,1.24,2.16,1.81-.55,1.04-1.12,1.71-1.26,2.47-.39,2.09-1.55,2.64-3.56,2.46-1.62-.15-2.72,1.11-2.69,2.6,.03,1.43,1.08,2.47,2.65,2.55,.9,.05,1.81,0,2.46,0Zm13.19,26.17c1.67,0,3.33,.03,5,0,1.72-.05,2.77-1.04,2.79-2.54,.03-1.56-1.07-2.65-2.84-2.66-3.33-.03-6.66-.03-9.99,0-1.67,.02-2.78,1.08-2.81,2.56-.03,1.53,1.09,2.61,2.85,2.65,1.66,.04,3.33,0,5,0Z"/>
  <path class="cls-1" d="M20.95,36.62c-.65,0-1.56,.04-2.46,0-1.57-.08-2.62-1.12-2.65-2.55-.03-1.49,1.07-2.75,2.69-2.6,2.01,.18,3.18-.37,3.56-2.46,.14-.75,.71-1.42,1.26-2.47-.7-.58-1.51-1.12-2.16-1.81-1.08-1.16-1.02-2.64,0-3.66,1.03-1.02,2.5-1.05,3.67,.02,.7,.64,1.28,1.41,1.81,2,1.58-.66,2.89-1.16,4.15-1.76,.31-.15,.61-.6,.67-.96,.11-.69,0-1.41,.05-2.11,.09-1.49,1.09-2.5,2.48-2.54,1.44-.05,2.58,.98,2.69,2.5,.07,.95,.01,1.91,.01,2.78,1.43,.65,2.74,1.29,4.08,1.83,.27,.11,.75-.06,1.01-.25,.51-.4,.93-.93,1.41-1.37,1.25-1.15,2.71-1.21,3.78-.17,1.11,1.06,1.08,2.63-.14,3.89-.59,.61-1.3,1.12-1.84,1.57,.65,1.61,1.14,2.92,1.73,4.19,.15,.32,.59,.63,.94,.69,.74,.11,1.51,0,2.26,.07,1.44,.12,2.47,1.23,2.46,2.58,0,1.28-1.04,2.7-2.32,2.51-2.68-.39-3.68,.93-4.32,3.21-.27,.97-1,1.88-1.71,2.65-1.61,1.74-2.26,3.7-2.18,6.07,.12,3.21-.65,3.89-3.88,3.89-2.83,0-5.65,.01-8.48,0-2.31-.01-3.38-.93-3.26-3.17,.15-2.8-.8-5.05-2.47-7.24-1.17-1.53-1.87-3.41-2.87-5.32Zm15.77,10.41c-.08-3.36,1.62-5.84,3.57-8.3,3.29-4.16,1.46-10.3-3.49-12.09-3.26-1.18-6.83-.13-8.95,2.63-2.09,2.74-2.02,6.51-.03,9.46,1.25,1.86,2.29,3.88,3.29,5.88,.36,.72,.35,1.62,.5,2.41h5.1Z"/>
  <path class="cls-1" d="M34.14,62.79c-1.67,0-3.33,.03-5,0-1.76-.04-2.89-1.12-2.85-2.65,.03-1.47,1.14-2.54,2.81-2.56,3.33-.04,6.66-.04,9.99,0,1.76,.02,2.86,1.1,2.84,2.66-.03,1.5-1.08,2.5-2.79,2.54-1.66,.04-3.33,0-5,.01Z"/>
  <path class="cls-3" d="M36.72,47.03h-5.1c-.15-.79-.14-1.69-.5-2.41-1.01-2.01-2.04-4.02-3.29-5.88-1.99-2.95-2.06-6.72,.03-9.46,2.11-2.76,5.69-3.81,8.95-2.63,4.94,1.79,6.78,7.93,3.49,12.09-1.95,2.46-3.65,4.95-3.57,8.3Z"/>
</svg>