<?xml version="1.0" encoding="UTF-8"?><svg id="Layer_1" xmlns="http://www.w3.org/2000/svg" viewBox="0 0 110.82 130.01"><defs><style>.cls-1{fill:#e9686a;}.cls-2{fill:#0061a8;}.cls-3{fill:#e8e8ea;}.cls-4{fill:#efc516;}</style></defs><circle class="cls-2" cx="89.69" cy="21.13" r="21.13"/><path class="cls-3" d="M63.59,21.13c0-5.15,1.51-9.95,4.09-14H0v122.89H95.33V46.6c-1.82,.4-3.7,.62-5.64,.62-14.39,0-26.1-11.71-26.1-26.1Z"/><path class="cls-1" d="M97.63,16.79h-3.6v-3.6c0-2.39-1.95-4.34-4.34-4.34s-4.34,1.95-4.34,4.34v3.6h-3.6c-2.39,0-4.34,1.95-4.34,4.34s1.95,4.34,4.34,4.34h3.6v3.6c0,2.39,1.95,4.34,4.34,4.34s4.34-1.95,4.34-4.34v-3.6h3.6c2.39,0,4.34-1.95,4.34-4.34s-1.95-4.34-4.34-4.34Z"/><rect class="cls-2" x="13.43" y="107.3" width="42.75" height="8.17"/><rect class="cls-2" x="13.43" y="92.48" width="68.47" height="8.17"/><rect class="cls-4" x="13.43" y="23.69" width="21.22" height="21.22"/></svg>