<?xml version="1.0" encoding="utf-8"?>
<!-- Generator: Adobe Illustrator 27.0.0, SVG Export Plug-In . SVG Version: 6.00 Build 0)  -->
<svg version="1.1" id="Layer_1" xmlns="http://www.w3.org/2000/svg" xmlns:xlink="http://www.w3.org/1999/xlink" x="0px" y="0px"
	 viewBox="0 0 87.4 77.7" style="enable-background:new 0 0 87.4 77.7;" xml:space="preserve">
<style type="text/css">
	.st0{fill:#0061A8;}
	.st1{fill:#E8E8EA;}
	.st2{fill:#EFC516;}
	.st3{fill:#E9686A;}
</style>
<path class="st0" d="M77.2,11.6H10.1c-2.3,0-4.2,1.9-4.2,4.2v12.6c0,4.6,3.8,8.4,8.4,8.4H73c4.6,0,8.4-3.8,8.4-8.4V15.7
	C81.4,13.4,79.5,11.6,77.2,11.6L77.2,11.6z"/>
<path class="st1" d="M43.7,28.3H6v37.7c0,2.3,1.9,4.2,4.2,4.2h67.1c2.3,0,4.2-1.9,4.2-4.2V28.3H43.7z"/>
<g>
	<path class="st2" d="M26.9,19.9c-2.3,0-4.2-1.9-4.2-4.2V7.4c0-2.3,1.9-4.2,4.2-4.2s4.2,1.9,4.2,4.2v8.4
		C31.1,18.1,29.2,19.9,26.9,19.9L26.9,19.9L26.9,19.9z"/>
	<path class="st2" d="M60.5,19.9c-2.3,0-4.2-1.9-4.2-4.2V7.4c0-2.3,1.9-4.2,4.2-4.2s4.2,1.9,4.2,4.2v8.4
		C64.6,18.1,62.8,19.9,60.5,19.9L60.5,19.9L60.5,19.9z"/>
</g>
<path class="st3" d="M43.7,35.9c0.9,0,1.8,0,2.7,0c1.8,0,2.3,0.6,2.3,2.4c0,1.6,0,3.3,0,4.9c0,0.8,0.2,1.1,1,1c1.7-0.1,3.5,0,5.3,0
	c1.5,0,2.1,0.6,2.1,2.1c0,1.9,0,3.9,0,5.8c0,1.5-0.6,2.1-2.2,2.2c-1.8,0-3.6,0-5.4,0c-0.7,0-0.8,0.2-0.8,0.9c0,1.8,0,3.6,0,5.4
	c0,1.5-0.6,2.1-2.2,2.1c-1.9,0-3.8,0-5.7,0c-1.6,0-2.2-0.6-2.2-2.2c0-1.7,0-3.4,0-5.1c0-0.7-0.2-1-0.9-1c-1.7,0.1-3.5,0-5.3,0
	c-1.5,0-2.2-0.6-2.2-2.2c0-1.9,0-3.8,0-5.7c0-1.6,0.6-2.2,2.2-2.2c1.8,0,3.5,0,5.3,0c0.7,0,0.9-0.2,0.9-0.9c0-1.7,0-3.5,0-5.3
	c0-1.6,0.6-2.2,2.2-2.2C41.8,35.9,42.7,35.9,43.7,35.9L43.7,35.9z"/>
</svg>
