<?xml version="1.0" encoding="utf-8"?>
<!-- Generator: Adobe Illustrator 27.0.0, SVG Export Plug-In . SVG Version: 6.00 Build 0)  -->
<svg version="1.1" id="Layer_1" xmlns="http://www.w3.org/2000/svg" xmlns:xlink="http://www.w3.org/1999/xlink" x="0px" y="0px"
	 viewBox="0 0 71 78.9" style="enable-background:new 0 0 71 78.9;" xml:space="preserve">
<style type="text/css">
	.st0{fill:#E8E8EA;}
	.st1{fill:#BBBBBF;}
	.st2{fill:#FEFEFE;}
	.st3{fill:#FFFFFF;}
	.st4{fill:#0061A8;}
</style>
<g>
	<path class="st0" d="M51.3,67c1.5,0,2.8-0.4,3.7-1.7c0.3-0.4,0.5-0.8,0.7-1.2c0-0.5,0-0.9,0-1.4c0-15.1,0-30.1,0-45.2
		c0-0.5,0-0.8,0-1.3c-0.4-1.1-0.9-2.1-2.1-2.6c-0.6-0.3-1.2-0.5-1.9-0.5c0,0,0,0,0,0.1c-0.3,0-0.7,0-0.9,0c-9.4,0-18.9,0-28.4,0
		c-2.3,0-4,0.6-4.9,2.9c0,0.6,0,1.1,0,1.7c0,14.9,0,29.8,0,44.7c0,0.6,0,1.1,0,1.7l0.1,0.1c0.7,2.1,2.1,2.8,4.2,2.8
		c6.5,0,13.1,0,19.7,0C44.7,67,47.9,67,51.3,67L51.3,67"/>
	<path class="st1" d="M55.7,64.1c-0.2,0.4-0.4,0.8-0.7,1.2c-0.9,1.3-2.1,1.7-3.7,1.7H51c-3.2,0-6.3,0-9.6,0c-6.5,0-13.1,0-19.7,0
		c-2.1,0-3.5-0.7-4.2-2.8l-0.1-0.3c0,1.5,0,3.3,0,4.8c0,0.7,0,1.2,0,1.9c0.1,2.1,1.6,3.5,3.6,3.5c10.4,0,20.6,0,31,0
		c2.1,0,3.5-1.5,3.6-3.5C55.7,68.3,55.7,66.2,55.7,64.1L55.7,64.1z M37.6,71.4c-0.4,0-0.7,0-1.1,0l0,0c-0.4,0-0.8,0-1.2,0
		c-0.6,0-0.8-0.4-0.8-0.8c0-0.6,0.2-0.9,0.7-1c0.8-0.1,1.8-0.1,2.6,0c0.6,0.1,0.7,0.5,0.7,0.9C38.6,71,38.2,71.3,37.6,71.4
		L37.6,71.4z"/>
	<path class="st2" d="M40.3,8.5c0.6,0.3,0.9,0.7,0.7,1.3s-0.7,0.7-1.2,0.7c-2.1,0-4.3,0-6.4,0c-0.6,0-1.1-0.1-1.2-0.7
		c-0.2-0.7,0.2-1,0.7-1.3C35.3,8.5,37.7,8.5,40.3,8.5L40.3,8.5z"/>
	<path class="st1" d="M51.7,6c0,0-0.1,0-0.2,0C41.4,6,31.2,6,21,6c-2.1,0-3.5,1.5-3.6,3.6c0,2.1,0,4.2,0,6.3
		c0.8-2.2,2.6-2.9,4.9-2.9c9.4,0.1,18.9,0,28.4,0c0.4,0,0.7,0,0.9,0l0,0c0.7,0,1.3,0.1,1.9,0.4c1.1,0.6,1.7,1.5,2.1,2.6
		c0-2.1,0-4.3,0-6.4C55.7,7.4,54,5.9,51.7,6L51.7,6z M40.3,8.5c0.6,0.3,0.9,0.7,0.7,1.3s-0.7,0.7-1.2,0.7c-2.1,0-4.3,0-6.4,0
		c-0.6,0-1.1-0.1-1.2-0.7c-0.2-0.7,0.2-1,0.7-1.3l0,0C35.3,8.5,37.7,8.5,40.3,8.5"/>
	<path class="st2" d="M36.5,71.4c-0.4,0-0.8,0-1.2,0c-0.6,0-0.8-0.4-0.8-0.8c0-0.6,0.2-0.9,0.7-1c0.8-0.1,1.8-0.1,2.6,0
		c0.6,0.1,0.7,0.5,0.7,0.9c0,0.6-0.4,0.8-0.9,0.9C37.3,71.4,36.9,71.4,36.5,71.4L36.5,71.4L36.5,71.4z"/>
</g>
<g>
	<g>
		<path class="st3" d="M15.3,32c-1.1,0-1.6-0.6-1.6-1.6s0.6-1.6,1.6-1.6s1.6,0.6,1.6,1.6S16.3,32,15.3,32L15.3,32z"/>
		<path class="st3" d="M10.6,30.5c0,1-0.6,1.6-1.6,1.6s-1.6-0.6-1.6-1.6s0.5-1.6,1.6-1.6S10.6,29.4,10.6,30.5z"/>
		<path class="st3" d="M21.4,32c-1,0-1.6-0.6-1.6-1.6s0.6-1.6,1.6-1.6s1.6,0.6,1.6,1.7C23,31.6,22.4,32,21.4,32L21.4,32z"/>
		<path class="st3" d="M27.6,32c-1,0-1.5-0.6-1.5-1.6s0.6-1.6,1.6-1.6s1.6,0.6,1.5,1.6C29.2,31.6,28.6,32.1,27.6,32z"/>
		<path class="st3" d="M32.3,30.5c0-1,0.6-1.5,1.6-1.5c1,0,1.6,0.6,1.5,1.7c-0.1,1.1-0.6,1.6-1.6,1.5C32.8,32,32.3,31.5,32.3,30.5
			L32.3,30.5z"/>
		<path class="st3" d="M23,36.7c0,1-0.6,1.5-1.6,1.5s-1.6-0.6-1.6-1.6c0-1,0.6-1.6,1.6-1.5C22.5,35.2,23,35.7,23,36.7z"/>
		<path class="st3" d="M27.8,38.3c-1.1,0-1.6-0.5-1.6-1.5c0-1,0.6-1.5,1.6-1.6c1,0,1.6,0.5,1.5,1.5C29.2,37.7,28.7,38.3,27.8,38.3
			L27.8,38.3z"/>
		<path class="st3" d="M33.8,38.3c-1,0-1.5-0.5-1.5-1.5c0-1,0.5-1.5,1.5-1.6c1-0.1,1.5,0.5,1.6,1.6C35.4,37.7,34.9,38.3,33.8,38.3z"
			/>
	</g>
	<path class="st4" d="M11.7,47.6c-2.3,0-4.6,0-6.9,0c-2.3-0.1-3.5-1.2-3.5-3.6c0-6.9,0-13.8,0-20.7c0-2.4,1.2-3.5,3.6-3.5
		c2.3,0,4.6,0,6.9-0.1c1.1,0,2.2,0,3.4,0c7.6,0,15.1,0,22.7,0c2.7,0,3.8,1.1,3.8,3.8c0,6.8,0,13.5,0,20.3c0,2.7-1.1,3.8-3.8,3.8
		c-1.6,0-3.1,0-4.7,0c-0.7,0-0.8,0.2-0.8,0.8c0,2.3,0,4.8,0,7.1c0,0.4,0,0.7,0,1c-0.6,0-0.7-0.4-1-0.6c-3.3-2.6-6.6-5.2-9.9-7.9
		c-0.5-0.4-1-0.6-1.7-0.6C17.1,47.6,14.4,47.6,11.7,47.6L11.7,47.6z M15.3,32c1,0,1.5-0.6,1.5-1.6s-0.6-1.6-1.6-1.6
		s-1.6,0.6-1.6,1.6C13.7,31.5,14.1,32,15.3,32L15.3,32z M10.6,30.5c0-1-0.6-1.6-1.6-1.6c-1,0-1.6,0.6-1.6,1.6S8,32,9,32
		S10.6,31.6,10.6,30.5z M21.4,32c1,0,1.6-0.5,1.6-1.5c0-1.1-0.6-1.7-1.6-1.7s-1.6,0.6-1.6,1.6C19.8,31.6,20.4,32,21.4,32L21.4,32z
		 M27.6,32c1,0,1.6-0.5,1.6-1.5c0-1.1-0.5-1.6-1.5-1.6s-1.6,0.6-1.6,1.6C26.1,31.6,26.5,32,27.6,32z M32.3,30.5
		c0,1.1,0.5,1.6,1.5,1.6c1.1,0,1.6-0.5,1.6-1.5c0-1.1-0.5-1.6-1.5-1.7C32.9,29,32.3,29.4,32.3,30.5L32.3,30.5z M23,36.7
		c0-1-0.5-1.6-1.5-1.6c-1.1,0-1.6,0.5-1.6,1.5s0.6,1.6,1.6,1.6C22.4,38.3,23,37.7,23,36.7z M27.8,38.3c0.9,0,1.5-0.6,1.5-1.6
		s-0.5-1.5-1.5-1.5s-1.6,0.6-1.6,1.6C26.1,37.7,26.6,38.3,27.8,38.3L27.8,38.3z M33.8,38.3c1,0,1.6-0.5,1.6-1.5c0-1-0.6-1.6-1.6-1.6
		c-1,0-1.5,0.6-1.5,1.6C32.3,37.7,32.8,38.3,33.8,38.3z"/>
</g>
</svg>
