<?xml version="1.0" encoding="utf-8"?>
<!-- Generator: Adobe Illustrator 27.0.0, SVG Export Plug-In . SVG Version: 6.00 Build 0)  -->
<svg version="1.1" id="Layer_1" xmlns="http://www.w3.org/2000/svg" xmlns:xlink="http://www.w3.org/1999/xlink" x="0px" y="0px"
	 viewBox="0 0 96.1 77.9" style="enable-background:new 0 0 96.1 77.9;" xml:space="preserve">
<style type="text/css">
	.st0{fill:#E8E8EA;}
	.st1{fill:#DDDDDD;}
	.st2{fill:#BBBBBF;}
	.st3{fill:#0061A8;}
	.st4{fill:#FFFFFF;}
	.st5{fill:#00B0F0;}
	.st6{fill:#EFC516;}
</style>
<g>
	<path class="st0" d="M83.4,62.6H12.6V21.5c0-2.7,2.2-5,5-5h60.9c2.7,0,5,2.2,5,5L83.4,62.6L83.4,62.6z"/>
	<rect x="18.1" y="22.2" class="st1" width="60.2" height="35.4"/>
	<path class="st2" d="M83.4,62.6H12.6l-5.2,6.5c-1,1.3-0.1,3.2,1.5,3.2h78.3c1.6,0,2.6-1.9,1.5-3.2L83.4,62.6L83.4,62.6z"/>
</g>
<g>
	<path class="st3" d="M23,13.2c0-1.1-0.1-2.2,0-3.2c0.1-2.4,1.9-4.3,4.3-4.3c13.9,0,27.9,0,41.8,0c2.4,0,4.2,1.8,4.3,4.3
		c0,1.1,0,2.1,0,3.2C56.6,13.2,39.8,13.2,23,13.2L23,13.2z"/>
	<path class="st4" d="M23,13.2c16.8,0,33.6,0,50.4,0c0.1,1,0.1,5,0,6c-16.8,0-33.6,0-50.4,0C23,18.1,23,14.1,23,13.2L23,13.2z"/>
	<path class="st3" d="M23,19.1c16.8,0,33.6,0,50.4,0c0,0.2,0.1,0.4,0.1,0.5c0,4.6-0.1,9.2-0.1,13.9c0,3.3-1.7,5-5,5
		c-10.7,0-21.4,0-32.1,0c-2.8,0-5.5,0-8.3,0c-3.2,0-5-1.7-5-4.9C23,28.8,23,23.9,23,19.1z M40.1,29.5c-3.6,0-7.1,0-10.7,0
		c-1.3,0-2.2,0.7-2,1.6c0.2,1.1,1,1.5,2,1.5c7,0,14,0,21.1,0c1.4,0,2.2-0.6,2.1-1.7c-0.1-1.4-1.1-1.4-2.1-1.4
		C47,29.5,43.5,29.5,40.1,29.5L40.1,29.5z M63.1,31c0.5,0,1,0,1.5,0c1.7-0.1,2.8-1.2,2.9-2.8c0.1-1.7-1.1-3-2.7-3.1
		c-1.1-0.1-2.2-0.1-3.4,0c-1.7,0.1-2.9,1.5-2.8,3.1c0.1,1.6,1.3,2.7,2.9,2.8C62.1,31,62.6,31,63.1,31L63.1,31z M40.8,26.4
		c0.9,0,1.9,0,2.8,0c0.9,0,1.6-0.4,1.6-1.4c0-0.9-0.6-1.4-1.5-1.5c-1.9,0-3.8,0-5.8,0c-0.9,0-1.6,0.5-1.6,1.4c0,0.9,0.7,1.4,1.6,1.4
		C38.9,26.4,39.9,26.4,40.8,26.4L40.8,26.4z M30.3,26.4c0.5,0,1,0,1.5,0c0.9,0,1.4-0.6,1.5-1.4c0-0.8-0.5-1.4-1.4-1.4
		c-1,0-2.1,0-3.1,0c-0.9,0-1.4,0.6-1.4,1.4c0,0.7,0.5,1.3,1.3,1.4C29.3,26.5,29.8,26.4,30.3,26.4L30.3,26.4z"/>
	<path class="st5" d="M40.1,29.5c3.5,0,6.9,0,10.4,0c1,0,2.1,0,2.1,1.4c0.1,1.1-0.7,1.7-2.1,1.7c-7,0-14,0-21.1,0
		c-1.1,0-1.9-0.4-2-1.5c-0.1-0.9,0.8-1.6,2-1.6C33,29.6,36.5,29.6,40.1,29.5L40.1,29.5z"/>
	<path class="st6" d="M63.1,31c-0.5,0-1,0-1.5,0c-1.6-0.1-2.8-1.2-2.9-2.8c-0.1-1.6,1.1-3,2.8-3.1c1.1-0.1,2.2-0.1,3.4,0
		c1.7,0.1,2.8,1.5,2.7,3.1c-0.1,1.6-1.2,2.7-2.9,2.8C64.1,31,63.6,31,63.1,31L63.1,31z"/>
	<path class="st5" d="M40.8,26.4c-0.9,0-1.9,0-2.8,0c-0.9,0-1.6-0.5-1.6-1.4c0-0.9,0.6-1.4,1.6-1.4c1.9,0,3.8,0,5.8,0
		c0.9,0,1.6,0.5,1.5,1.5c0,1-0.7,1.4-1.6,1.4C42.7,26.5,41.7,26.5,40.8,26.4L40.8,26.4z"/>
	<path class="st5" d="M30.3,26.4c-0.5,0-1,0-1.5,0c-0.8,0-1.3-0.6-1.3-1.4c0-0.8,0.5-1.4,1.4-1.4c1,0,2.1,0,3.1,0
		c0.9,0,1.4,0.6,1.4,1.4c0,0.8-0.5,1.4-1.5,1.4C31.3,26.5,30.8,26.5,30.3,26.4L30.3,26.4z"/>
</g>
</svg>
