<?xml version="1.0" encoding="UTF-8"?>
<svg id="Layer_1" data-name="Layer 1" xmlns="http://www.w3.org/2000/svg" viewBox="0 0 91.56 88.55">
  <defs>
    <style>
      .cls-1 {
        fill: #fff;
      }

      .cls-2 {
        fill: #e9686a;
      }

      .cls-3 {
        fill: #00b0f0;
      }

      .cls-4 {
        fill: #0061a8;
      }
    </style>
  </defs>
  <g>
    <path class="cls-4" d="M34.13,74.51c-1-.01-1.77,.26-2.55,.89-5.11,4.12-10.25,8.21-15.39,12.29-.44,.35-.8,.92-1.66,.86,0-.56,0-1.09,0-1.63,0-3.7-.03-7.39,.02-11.09,.01-.99-.26-1.36-1.3-1.33-2.43,.07-4.85,.02-7.28,.02-4.16,0-5.96-1.78-5.96-5.93,0-10.53,0-21.07,0-31.6,0-4.14,1.79-5.9,5.99-5.9,11.75,0,47.71-.02,51.29,.02,3.78,.04,5.6,1.82,5.61,5.58,.02,10.74,.02,21.49,0,32.23,0,3.77-1.85,5.57-5.6,5.61-3.58,.03-19.02,.04-23.16-.02Z"/>
    <path class="cls-1" d="M27.03,49.83c-.58-.11-1.12-.2-1.66-.3-.15,.41-.26,.79-.42,1.16-.94,2.11-3.17,3.35-5.37,3.02-2.47-.37-4.31-2.2-4.62-4.59-.29-2.17,1.07-4.42,3.22-5.3,.37-.15,.57-.37,.72-.73,1.16-2.74,4.34-3.92,7.04-2.64,.18,.08,.46,.11,.63,.03,2.27-1.05,4.56-.58,5.89,1.24,1.44,1.96,1.3,4.75-.34,6.51-.34,.36-.74,.68-1.15,.95-.42,.27-.89,.45-1.4,.7,.15,.5,.3,1.03,.46,1.6,1.23-.32,2.21-.99,3.06-1.75,.73,.32,1.41,.61,2.17,.94,.12-.64,.22-1.18,.32-1.73-.45-.2-.88-.39-1.36-.59,1.46-2.76,1.28-5.36-.52-7.84,2.17-1.37,6.04-.27,7.05,3.03-1.38-.22-2.73-.19-4.08,.39,.22,.52,.43,1.03,.66,1.57,1.08-.4,2.15-.48,3.24-.22,2.15,.51,3.79,2.36,4.01,4.54,.22,2.13-1.01,4.25-3.04,5.18-.33,.15-.48,.3-.49,.68-.02,.97-.34,1.86-.84,2.69-.89,1.46-1.37,3.02-1.32,4.75,.03,1.23-.75,2.25-1.88,2.62-1.13,.37-2.43,.03-3.07-.98-.97-1.55-2.2-2.7-4.07-3.14,.54-.39,1.05-.7,1.49-1.09,.44-.38,.83-.82,1.19-1.27,.19-.23,.36-.32,.66-.32,2.4,.02,4.4-1.94,4.34-4.27h-1.67c-.26,1.58-1.12,2.6-2.82,2.53-1.37-.05-2.11-.88-2.47-2.53h-1.69c.06,1.63,.81,2.81,2.16,3.7-.91,1.15-2.06,1.85-3.45,2.16-.13,.03-.32-.06-.45-.15-1.16-.72-2.15-1.64-2.89-2.8-.16-.25-.34-.35-.64-.36-1.46-.04-2.69-.6-3.79-1.75,2.11,.04,3.85-.59,5.27-1.99,1-.99,1.64-2.18,1.92-3.65Z"/>
  </g>
  <g>
    <path class="cls-3" d="M34.58,43.21c-3.73-.03-5.56-1.83-5.57-5.58-.02-10.69-.02-21.37,0-32.06,0-3.74,1.82-5.51,5.58-5.55,3.56-.04,39.33-.02,51.01-.02,4.18,0,5.95,1.75,5.95,5.87,0,10.48,0,20.96,0,31.43,0,4.12-1.79,5.89-5.93,5.9-2.41,0-4.83,.05-7.24-.02-1.04-.03-1.3,.34-1.29,1.32,.05,3.67,.02,7.35,.02,11.03,0,.53,0,1.06,0,1.62-.86,.06-1.21-.51-1.65-.86-5.12-4.06-10.23-8.12-15.31-12.22-.78-.63-1.55-.9-2.54-.88-4.11,.06-19.47,.05-23.03,.02Z"/>
    <path class="cls-2" d="M56.91,10.59c-2.17,0-4.12,.9-5.52,2.34-1.4-1.44-3.35-2.34-5.52-2.34-4.26,0-7.72,3.45-7.72,7.72,0,8.65,13.23,14.95,13.23,14.95,0,0,13.23-6.3,13.23-14.95,0-4.26-3.45-7.72-7.72-7.72Z"/>
    <path class="cls-1" d="M69.62,15.03c-.11,.69-.21,1.38-.32,2.06-.47,3.05-.95,6.11-1.42,9.16-.13,.87-.25,1.73-.39,2.6-.04,.27-.1,.58-.26,.78-.14,.16-.49,.3-.67,.23-.23-.09-.49-.37-.54-.6-.29-1.5-.53-3.01-.78-4.51-.31-1.84-.61-3.67-.92-5.51-.01-.08-.07-.16-.19-.41-.13,.48-.22,.8-.3,1.13-.15,.65-.31,1.3-.44,1.96-.1,.52-.41,.7-.91,.71-3.79,.04-7.57,.1-11.36,.14-.2,0-.4-.03-.61-.04v-1.61c.22-.02,.43-.05,.65-.05,2.41,0,4.82-.02,7.23,0,1,0,2.01,.08,3.01,.15,.5,.03,.73-.13,.84-.64,.42-1.97,.88-3.93,1.32-5.89,.1-.45,.28-.78,.81-.74,.5,.04,.62,.42,.68,.82,.49,2.98,.99,5.95,1.48,8.93,.02,.1,.08,.19,.26,.29,.12-.7,.24-1.39,.35-2.09,.36-2.34,.71-4.68,1.07-7.01,.33-2.14,.66-4.27,.98-6.4,.03-.17,.06-.33,.1-.49,.1-.37,.35-.57,.74-.54,.4,.03,.59,.28,.63,.66,.11,1.07,.23,2.15,.33,3.22,.19,2.04,.37,4.08,.55,6.13,.16,1.86,.31,3.71,.46,5.57,.15,1.84,.31,3.68,.47,5.52,0,.08,.05,.16,.22,.25,.08-.44,.17-.87,.24-1.31,.51-3.28,1.01-6.55,1.51-9.83,.16-1.01,.3-2.03,.47-3.03,.06-.37,.25-.67,.69-.69,.47-.02,.67,.25,.76,.66,.45,2,.91,3.99,1.34,6,.1,.48,.31,.64,.79,.63,1.57-.02,3.14,0,4.71,0,.17,0,.34,0,.5,0,.44,.02,.72,.23,.73,.68,0,.45-.26,.7-.7,.7-2.15,.01-4.29,0-6.44,0-.41,0-.65-.23-.74-.63-.18-.78-.35-1.56-.53-2.34-.04-.17-.1-.34-.2-.66-.11,.24-.18,.34-.19,.45-.75,4.86-1.5,9.72-2.24,14.58-.08,.55-.16,1.11-.26,1.66-.07,.42-.27,.76-.77,.72-.48-.04-.66-.39-.7-.81-.09-.95-.14-1.9-.22-2.84-.17-1.97-.36-3.93-.53-5.9-.17-1.87-.33-3.75-.49-5.62-.17-1.97-.34-3.94-.51-5.9,0-.09-.05-.17-.08-.25-.06,0-.13-.01-.19-.02Z"/>
  </g>
</svg>