<?xml version="1.0" encoding="UTF-8"?>
<svg id="Layer_1" data-name="Layer 1" xmlns="http://www.w3.org/2000/svg" viewBox="0 0 88.69 88.72">
  <defs>
    <style>
      .cls-1 {
        fill: #0061a8;
      }

      .cls-2 {
        fill: #e8e8ea;
      }

      .cls-3 {
        fill: #efc516;
      }
    </style>
  </defs>
  <path class="cls-1" d="M11.04,0c6.16-.02,11.14,4.99,11.1,11.15-.05,6.11-4.92,10.97-11.02,10.99C4.95,22.17-.03,17.18,0,11.01,.03,4.97,5,.02,11.04,0Z"/>
  <path class="cls-1" d="M77.57,22.14c-6.19-.02-11.11-5.03-11.02-11.21C66.65,4.84,71.58-.02,77.65,0c6.13,.02,11.1,5.08,11.04,11.23-.06,6.05-5.04,10.94-11.12,10.91Z"/>
  <path class="cls-1" d="M44.48,22.14c-6.19-.02-11.11-5.03-11.02-11.21C33.56,4.84,38.49-.02,44.56,0c6.13,.02,11.1,5.08,11.04,11.23-.06,6.05-5.04,10.94-11.12,10.91Z"/>
  <path class="cls-1" d="M11.16,88.72C5.01,88.75-.01,83.75,0,77.61c.01-6.07,4.91-10.99,11-11.03,6.18-.05,11.15,4.9,11.14,11.09-.02,6.08-4.93,11.02-10.98,11.05Z"/>
  <path class="cls-1" d="M11.02,55.4C4.85,55.38-.07,50.38,0,44.19c.07-6.05,5.03-10.9,11.13-10.88,6.1,.02,10.97,4.88,11,10.99,.03,6.19-4.91,11.12-11.12,11.1Z"/>
  <g>
    <path class="cls-2" d="M38.68,75.41c.1-5.87-.05-10.4-5.19-13.44-2.63-1.55-5.16-2.12-7.06-2.29-3.92-.36-6.29-3.88-4.57-7.33,.8-1.61,2.13-2.6,3.94-2.73,5.34-.39,9.8,2.59,11.38,3.77,.4,.3,1.05,.8,1.34,.59s.33-1,.33-1.53c.01-10.93,0-21.86,0-32.8,0-2.13,.88-3.72,2.75-4.72,1.74-.93,3.49-.81,5.13,.24,1.64,1.06,2.34,2.63,2.33,4.59-.03,5.51-.01,11.02-.01,17.07,1.25-2.52,2.9-3.9,5.28-3.84,2.4,.07,4.02,1.47,4.98,3.98,1.15-2.44,2.74-3.99,5.23-3.97,2.53,.02,4.13,1.53,5.06,3.96,.69-1.32,1.31-2.58,2.59-3.25,1.22-.64,2.48-.95,3.89-.5,2.55,.82,3.8,2.46,3.81,5.33,0,12.28,0,24.56,0,36.85-4.68,.03-9.36,.1-14.05,.09-9.05,0-18.09-.05-27.14-.08Z"/>
    <path class="cls-3" d="M38.68,75.41c9.05,.03,18.09,.08,27.14,.08,4.68,0,9.36-.06,14.05-.09,1.79-.16,2.44,.53,2.31,2.41-.19,2.62-.1,5.26-.02,7.89,.03,1.2-.24,1.69-1.58,1.69-14.13-.05-28.25-.05-42.38,0-1.33,0-1.62-.47-1.58-1.67,.07-2.69,.14-5.4-.02-8.09-.1-1.69,.44-2.38,2.09-2.22Z"/>
  </g>
</svg>