<?xml version="1.0" encoding="UTF-8"?>
<svg id="Layer_1" data-name="Layer 1" xmlns="http://www.w3.org/2000/svg" viewBox="0 0 108.45 91.51">
  <defs>
    <style>
      .cls-1 {
        fill: #d8b419;
      }

      .cls-2 {
        fill: #0061a8;
      }

      .cls-3 {
        fill: #e9c5ba;
      }

      .cls-4 {
        fill: #e0b4aa;
      }

      .cls-5 {
        fill: #efc516;
      }
    </style>
  </defs>
  <g>
    <path class="cls-3" d="M23.77,60.62c4.9-5.1,14.12-6.59,21.01-3.38,.8,.37,1.74,.64,2.34,1.24,2,1.99,4.44,1.98,7,1.94,5.38-.08,10.77-.03,16.15-.02,3.46,0,5.8,1.64,6.63,4.61,.81,2.92-.37,5.67-3.19,7.43-.17,.11-.33,.23-.78,.55,2.31,.13,4.18,.29,6.18-.84,6.83-3.83,13.76-7.46,20.7-11.08,2.93-1.53,6.16-.54,7.8,2.2,1.61,2.71,.9,6.06-1.83,7.89-9.15,6.14-18.32,12.26-27.52,18.33-2.01,1.33-4.34,1.99-6.76,1.99-15.88,.02-31.75,0-47.63-.01-.02-6.12-.04-12.24-.05-18.36-.01-4.16-.02-8.32-.03-12.48Zm37.41,10.83c-3.2,0-6.4,0-9.6,0-1,0-1.78,.35-1.98,1.37-.22,1.14,.62,1.74,1.48,2.17,.39,.2,.93,.13,1.4,.13,5.65,0,11.3,0,16.96,0,.41,0,.83,.03,1.22-.05,1.21-.26,1.9-.9,1.77-2.28-.13-1.4-1.08-1.35-2.06-1.35-3.06,0-6.13,0-9.19,0Z"/>
    <path class="cls-4" d="M61.18,71.45c3.06,0,6.13,0,9.19,0,.98,0,1.93-.06,2.06,1.35,.13,1.38-.56,2.02-1.77,2.28-.39,.08-.81,.05-1.22,.05-5.65,0-11.3,0-16.96,0-.47,0-1.01,.06-1.4-.13-.86-.43-1.71-1.03-1.48-2.17,.2-1.02,.98-1.38,1.98-1.37,3.2,.01,6.4,0,9.6,0Z"/>
    <path class="cls-2" d="M23.8,73.09c-.01-4.16-.02-8.32-.03-12.48-.19-.06-.38-.18-.57-.18-7.39-.04-14.79-.06-22.18-.1-1.04,0-.98,.68-.98,1.37,.02,3.8,.04,7.59,.07,11.39-.02,5.63,0,11.26-.1,16.89-.02,1.35,.51,1.53,1.66,1.53,7.4-.05,14.8-.04,22.19-.06-.02-6.12-.04-12.24-.05-18.36Z"/>
  </g>
  <g>
    <g>
      <path class="cls-5" d="M34.59,26.68c-.75-9.7,2.11-17.79,10.6-23.25,13.2-8.49,31.31-.4,33.92,15.09,.44,2.62,.34,5.25,.3,7.88-.71,.49-.33,1.31-.53,1.96-2.11,6.8-6.18,11.81-12.79,14.73-5.57,2.46-11.16,2.72-16.82,.55-6.83-2.62-11.46-7.37-13.77-14.39-.28-.84,0-1.95-.91-2.57Z"/>
      <path class="cls-1" d="M34.59,26.68c.91,.63,.63,1.73,.91,2.57,2.31,7.02,6.94,11.77,13.77,14.39,5.65,2.17,11.25,1.91,16.82-.55,6.6-2.92,10.68-7.93,12.79-14.73,.2-.65-.18-1.46,.53-1.96,1.52,14.49-9.03,24.75-20.34,25.65-13.27,1.06-24.47-9.13-24.53-22.48,0-.96,.04-1.93,.06-2.89Z"/>
    </g>
    <g>
      <path class="cls-1" d="M56.96,33.9c-4.73,0-7.66-3.73-7.66-7.19h6.12c0,.33,.39,1.07,1.54,1.07,.77,0,1.33-.6,1.53-.92-.08-1.2-.65-1.26-1.53-1.26-5.63,0-7.46-3.89-7.64-5.95-.03-.39-.24-3.74,2-6.17,.95-1.03,2.69-2.26,5.59-2.26s4.64,1.22,5.6,2.25c2.26,2.41,2.12,5.74,2.09,6.11l-6.11-.39,3.06,.19-3.06-.15c.01-.34-.09-1.2-.45-1.58-.19-.2-.57-.3-1.13-.3-.37,0-.86,.05-1.09,.28-.29,.3-.4,.98-.41,1.39,.17,.34,.89,.46,1.54,.46,5.29,0,7.66,3.87,7.66,7.7,0,2.68-3.06,6.73-7.66,6.73Zm1.6-7.17h0Z"/>
      <rect class="cls-1" x="53.9" y="9.92" width="6.12" height="4.36"/>
      <rect class="cls-1" x="53.9" y="30.84" width="6.12" height="4.36"/>
    </g>
  </g>
  <g>
    <rect class="cls-2" x="32.67" y="16.8" width="4.29" height="10.82"/>
    <polygon class="cls-2" points="34.87 30.84 28.51 25.58 31.25 22.28 34.9 25.3 38.66 22.27 41.35 25.6 34.87 30.84"/>
  </g>
  <g>
    <rect class="cls-2" x="69.43" y="41.51" width="4.29" height="10.82"/>
    <polygon class="cls-2" points="71.63 55.54 65.27 50.29 68 46.99 71.66 50.01 75.42 46.97 78.11 50.31 71.63 55.54"/>
  </g>
</svg>