<?xml version="1.0" encoding="UTF-8"?>
<svg id="Layer_1" data-name="Layer 1" xmlns="http://www.w3.org/2000/svg" viewBox="0 0 89.05 94.33">
  <defs>
    <style>
      .cls-1 {
        fill: #0061a8;
      }

      .cls-2 {
        fill: #e9c5ba;
      }
    </style>
  </defs>
  <path class="cls-2" d="M5.57,29.81c-1.6,5.99-2.74,12.06-3.66,18.19C.95,54.48,.22,60.98,0,67.52c-.06,1.93,1.23,3.27,2.37,4.59,4.6,5.35,10.54,8.68,17.02,11.2,8.53,3.31,17.4,4.44,26.45,3.8,7.34-.52,14.3-2.56,20.51-6.65,1.61-1.06,2.61-1.06,4.1,.28,4.92,4.43,10.01,8.67,15.02,12.99,.71,.62,1.5,.77,2.3,.41,1.03-.47,1.29-1.38,1.29-2.5-.03-16.77-.03-33.54-.03-50.31,0-.3,0-.59,0-.89,0-4.27-.29-4.74-4.5-4.41-8.74,.67-16.23,4.01-21.78,11.03-.7,.89-1.32,1.14-2.41,.75-5.7-2.08-11.64-2.59-17.64-2.2-5.15,.33-9.96,1.96-14.38,4.62-1.54,.93-1.55,.31-1.55-1,.03-6.1,0-12.21-.02-18.31-7.16,1.56-14.19,.76-21.18-1.1Z"/>
  <path class="cls-2" d="M26.38,22.78c2.93,.88,5.53,.59,7.33-2.2,.45-.7,1.06-.62,1.7-.63,2.8-.07,3.9-.94,4.58-3.67,.14-.57,.47-.94,.86-1.31,1.75-1.66,2.03-3.68,1.35-5.87-1.51-4.88-4.93-7.67-9.84-8.67-5.71-1.16-11.11,.12-16.44,2.15-2.79,1.06-3.78,3.41-4.74,5.83-1.44,3.65-1.97,7.51-2.53,11.36,2.2,3.14,5.59,3.69,9.02,4.07,1.81,.2,3.62-.01,4.98-1.33,1.44-1.39,2.58-1.25,3.72,.26Z"/>
  <path class="cls-1" d="M26.38,22.78c-1.14-1.51-2.28-1.65-3.72-.26-1.36,1.32-3.17,1.53-4.98,1.33-3.44-.38-6.82-.94-9.02-4.07-1.34,3.01-2.07,6.21-2.93,9.38-.05,.15-.11,.3-.17,.44,0,.07,0,.14,.02,.21,6.98,1.86,14.02,2.66,21.18,1.1,.17-2.72-.62-5.4-.37-8.13Z"/>
  <path class="cls-2" d="M5.55,29.6c.06-.15,.11-.3,.17-.44-.06,.15-.11,.3-.17,.44Z"/>
</svg>