<?xml version="1.0" encoding="UTF-8"?>
<svg id="Layer_1" data-name="Layer 1" xmlns="http://www.w3.org/2000/svg" viewBox="0 0 92.42 91.51">
  <defs>
    <style>
      .cls-1 {
        fill: #fff;
      }

      .cls-2 {
        fill: #0061a8;
      }

      .cls-3 {
        fill: #e8e8ea;
      }

      .cls-4 {
        fill: #efc516;
      }
    </style>
  </defs>
  <g>
    <g>
      <path class="cls-4" d="M45.75,0C20.48,0,0,20.48,0,45.75c0,10.7,3.68,20.54,9.84,28.33L74.08,9.84C66.29,3.68,56.46,0,45.75,0Z"/>
      <path class="cls-4" d="M81.66,17.42L17.42,81.66c7.79,6.16,17.63,9.84,28.33,9.84,25.27,0,45.75-20.48,45.75-45.75,0-10.7-3.68-20.54-9.84-28.33Z"/>
      <path class="cls-3" d="M74.08,9.84L9.84,74.08c2.22,2.81,4.77,5.36,7.58,7.58L81.66,17.42c-2.22-2.81-4.77-5.36-7.58-7.58Z"/>
    </g>
    <circle class="cls-2" cx="78.55" cy="77.64" r="13.86"/>
  </g>
  <rect class="cls-1" x="71.05" y="75.74" width="15.01" height="3.81"/>
</svg>