<?xml version="1.0" encoding="utf-8"?>
<!-- Generator: Adobe Illustrator 27.0.1, SVG Export Plug-In . SVG Version: 6.00 Build 0)  -->
<svg version="1.1" id="Layer_1" xmlns="http://www.w3.org/2000/svg" xmlns:xlink="http://www.w3.org/1999/xlink" x="0px" y="0px"
	 viewBox="0 0 82.5 98.8" style="enable-background:new 0 0 82.5 98.8;" xml:space="preserve">
<style type="text/css">
	.st0{fill:#00B0F0;}
	.st1{fill:#EFC516;}
	.st2{fill:#0061A8;}
	.st3{fill:#E8E8EA;}
	.st4{fill:#BBBBBF;}
	.st5{fill:#B4EEFE;}
</style>
<path class="st0" d="M81.8,29.7c-1.2-8.5-5.2-15.6-11.7-21.2C63.8,2.9,56.3,0.1,47.7,0c-7.6-0.1-14.5,2.1-20.6,6.6
	c-2.5,1.9-5.2,3.5-6.5,6.6c5.3,0,10.6,0.2,15.9,0c4.8-0.2,9.2,3.7,10.3,8.6c1,4.7-1.8,9.9-6.5,11.7c-0.9,0.3-1.5,0.8-1.7,1.7
	c-1.7,6.2-6.1,8.1-11.6,8.3c-3.1,0.1-6.2,0-9.3,0c-1.5,0-2.9-0.4-4-1.5c0.1,0.6,0.1,1.2,0.2,1.8c4.2,15.6,18.4,25.9,33.8,25.6
	c1.3-0.1,2.8,0.4,4-0.4c-1.6-0.9-2.2-2.3-2.1-4.2c0.1-3.6,0-7.2,0-10.9c0.1-10.5,8.3-18.8,18.8-18.9c3.2,0,6.3,0,9.5,0
	c1.8,0,3.1,0.5,4.1,2.1C82.9,34.7,82.2,32.1,81.8,29.7L81.8,29.7z"/>
<path class="st1" d="M20.6,13.2c5.3,0,10.6,0.2,15.9,0c4.8-0.2,9.2,3.7,10.3,8.6c1,4.7-1.8,9.9-6.5,11.7c-0.9,0.3-1.5,0.8-1.7,1.7
	c-1.7,6.2-6.1,8.1-11.6,8.3c-3.1,0.1-6.2,0-9.3,0c-1.5,0-2.9-0.4-4-1.5c-0.6-1.2-0.7-2.4-0.8-3.7c0-2.2,0-4.3,0-6.4
	c0.6-6.9,2.7-13.1,7.3-18.4C20.3,13.5,20.4,13.4,20.6,13.2L20.6,13.2L20.6,13.2z"/>
<path class="st1" d="M51.8,69.1c-1.6-0.9-2.2-2.3-2.1-4.2c0.1-3.6,0-7.2,0-10.9c0.1-10.5,8.3-18.8,18.8-18.9c3.2,0,6.3,0,9.5,0
	c1.8,0,3.1,0.5,4.1,2.1c-0.2,7.2-2.8,13.5-7.2,19C69.5,63,62.5,67.2,54,68.9C53.3,69.1,52.5,69,51.8,69.1L51.8,69.1z"/>
<path class="st2" d="M12.9,31.9c0,2.1,0,4.3,0,6.4c-4.2,1.5-6.6,4.5-6.7,9.3c-0.1,9.3-0.2,18.7,0,28.1c0.1,6.2,4.1,9.9,10.3,9.9
	c4.2,0,8.5,0,12.7,0c1.1,0,1.6,0.2,1.3,1.5c-0.2,0.9-0.3,1.9-0.1,2.8c0.3,1.5-0.1,2-1.7,1.9c-4.2-0.1-8.5,0-12.7-0.1
	C6.7,91.7,0.1,85.1,0,75.6c0-9.2,0-18.3,0-27.5C0,39.8,4.7,33.9,12.9,31.9z"/>
<path class="st3" d="M51.5,85.2c0,1.5,0,3,0,4.6c0,1.6,0,3.1,0,4.7c0,0.5,0,1.1,0,1.6c0,2-1.2,2.8-3.7,2.9c-2.9,0-4.3-1.1-4.3-3.3
	c0-5.8,0-11.6,0-17.4c0-1.2,0.4-1.8,2-1.6c1,0.1,2,0.1,3,0c1.9-0.1,3,0.6,3.1,2c0,0.6,0,1.3,0,1.9C51.6,82,51.6,83.6,51.5,85.2
	L51.5,85.2z"/>
<path class="st4" d="M51.5,85.3c0-1.7,0-3.4,0-5.2c1.5,0,2.9-0.1,4.4-0.1c1.7,0.1,3,1.3,3,2.6c0,1.4-1.4,2.6-3.1,2.6
	C54.3,85.4,52.9,85.3,51.5,85.3L51.5,85.3z"/>
<path class="st4" d="M51.5,95.1c0-1.7,0-3.3,0-5c1.5,0,3.1-0.1,4.7,0c1.6,0.1,2.7,1.1,2.7,2.6c0,1.3-1.2,2.4-2.7,2.4
	C54.7,95.2,53.1,95.1,51.5,95.1L51.5,95.1z"/>
<path class="st5" d="M20.6,13.2c-0.1,0.1-0.3,0.2-0.4,0.3C20.3,13.5,20.4,13.4,20.6,13.2z"/>
<path class="st2" d="M39.8,76.4c-6.3,0-11.4,5.2-11.2,11.6c0.2,6.1,5.4,10.8,11.5,10.8h5.3c1.3,0,2.4-1.1,2.4-2.4V78.8
	c0-1.3-1-2.4-2.4-2.4L39.8,76.4L39.8,76.4z"/>
</svg>
