<?xml version="1.0" encoding="utf-8"?>
<!-- Generator: Adobe Illustrator 27.0.1, SVG Export Plug-In . SVG Version: 6.00 Build 0)  -->
<svg version="1.1" id="Layer_1" xmlns="http://www.w3.org/2000/svg" xmlns:xlink="http://www.w3.org/1999/xlink" x="0px" y="0px"
	 viewBox="0 0 88.7 88.7" style="enable-background:new 0 0 88.7 88.7;" xml:space="preserve">
<style type="text/css">
	.st0{fill:#0061A8;}
	.st1{fill:#6F7E97;}
	.st2{fill:#EFC516;}
</style>
<path class="st0" d="M44.3,0.1c-2,0-4-0.1-6,0c-8.9,0.3-16.6,7.7-17.2,16.6c-0.3,3.9-0.2,7.7-0.1,11.6c0.3,10.5,7.8,18.3,17.6,18.5
	c3.1,0.1,3,0.1,3.2,3.2c0.1,1.6-0.4,2-2,2c-7-0.1-14.1-0.1-21.1,0c-4.4,0-7.4,2.8-7.9,7.1c-0.3,2.9,0,5.9-0.2,8.8c1.8,0,3.6,0,5.4,0
	c0-2.5,0-5.1,0-7.6c0-2.2,0.9-3.1,3.2-3.1c7.1,0,14.1,0,21.2,0c1.1,0,1.5,0.2,1.5,1.4c-0.1,3.1,0,6.2,0,9.3c0.9,0,1.8,0,2.7,0.1
	l0-0.1c0.9,0,1.8,0,2.7,0c0-3.1,0-6.2,0-9.3c0-1,0.3-1.4,1.4-1.4c7.2,0,14.3,0,21.5,0c2.1,0,3,1,3.1,3.1c0,2.5,0,5.1,0,7.6
	c1.8,0,3.6,0,5.3,0c0-2.5,0-5,0-7.4c-0.1-5.3-3.2-8.5-8.6-8.5c-6.8,0-13.5,0-20.2,0c-2.7,0-2.3,0.4-2.4-2.4c0-2.8,0-2.8,2.7-2.8
	c9.2-0.1,17-7,17.9-16.2c0.4-4.3,0.3-8.6,0.1-13C67.4,9.2,61.8,2.5,53.8,0.5C50.7-0.3,47.5,0.1,44.3,0.1L44.3,0.1z"/>
<path class="st1" d="M44.3,10.4c1.7,0,3.3,0.1,5,0.1c4.6,0,7.8,3.2,7.9,7.8c0,3.6,0,7.1,0,10.7c0,4.1-3.3,7.4-7.5,7.5
	c-1.8,0-3.6,0-5.3,0.1c-2.3-0.2-4.7,0.3-7-0.3c-3.5-0.9-5.8-3.6-5.8-7.2c0-3.6-0.1-7.3,0-10.9c0.1-4.2,3.3-7.5,7.5-7.6
	C40.8,10.4,42.6,10.4,44.3,10.4"/>
<path class="st2" d="M10.5,67.9c1.8,0,3.6,0,5.4,0c1.4,0.1,2.8-0.1,4.1,0.2c3.9,0.8,6.1,3.8,6.2,8.2c0.1,1.8,0.1,3.7-0.2,5.5
	c-0.5,3.8-3.5,6.7-7.4,6.8c-3.8,0.1-7.5,0.1-11.2,0c-4-0.1-7.3-3.4-7.4-7.5c-0.1-1.7,0-3.3,0-5c0-5,3.2-8.2,8.2-8.3
	C9,67.9,9.7,67.9,10.5,67.9L10.5,67.9z"/>
<path class="st2" d="M72.8,67.9c1.8,0,3.6,0,5.3,0c1.5,0.1,3-0.1,4.5,0.3c3.5,0.9,5.9,3.8,6,7.3c0.1,1.8,0.1,3.6,0,5.4
	c-0.1,4.4-3.4,7.8-7.8,7.8c-3.2,0.1-6.5,0-9.7,0c-5.2,0-8.2-2.7-8.7-7.8c-0.2-1.8-0.2-3.7,0-5.5c0.6-4.8,3.5-7.4,8.4-7.4
	C71.5,67.9,72.2,67.9,72.8,67.9L72.8,67.9z"/>
<path class="st2" d="M57.2,74.2c-0.6-3.5-3.6-6.1-7-6.3c-1-0.1-2.1,0-3.1,0c-0.9,0-1.8,0-2.7,0l0,0.1l0,0c-0.9,0-1.8,0-2.7-0.1
	c-0.6,0-1.3,0-1.9,0c-4.8,0.1-7.7,2.6-8.3,7.4c-0.2,1.9-0.3,3.9,0,5.9c0.6,4.9,3.5,7.5,8.4,7.5c1.5,0,3,0,4.5-0.1
	c1.7,0,3.5,0.1,5.2,0.1c3.9,0,7-2.6,7.7-6.4C57.6,79.6,57.6,76.9,57.2,74.2L57.2,74.2z"/>
<path class="st2" d="M44.3,36.5c-2.3-0.2-4.7,0.3-7-0.3c-3.5-0.9-5.8-3.6-5.8-7.2c0-3.6-0.1-7.3,0-10.9c0.1-4.2,3.3-7.5,7.5-7.6
	c1.8-0.1,3.6,0,5.3-0.1c1.7,0,3.3,0.1,5,0.1c4.6,0,7.8,3.2,7.9,7.8c0,3.6,0,7.1,0,10.7c0,4.1-3.3,7.4-7.5,7.5
	C47.9,36.4,46.1,36.4,44.3,36.5L44.3,36.5z"/>
</svg>
