<?xml version="1.0" encoding="UTF-8"?>
<svg id="Layer_1" data-name="Layer 1" xmlns="http://www.w3.org/2000/svg" viewBox="0 0 90.24 90.24">
  <defs>
    <style>
      .cls-1 {
        fill: #d8b419;
      }

      .cls-2 {
        fill: #0061a8;
      }

      .cls-3 {
        fill: #e8e8ea;
      }

      .cls-4 {
        fill: #bbbbbf;
      }

      .cls-5 {
        fill: #efc516;
      }
    </style>
  </defs>
  <g>
    <path class="cls-2" d="M49.48,60.35c-9.14,5.15-18.66,6.19-28.57,2.54C1.09,55.59-6.41,30.4,6.18,13.49,18.97-3.7,43.6-4.61,57.46,11.61c8.55,10,10.01,24.87,3.59,36.53-.24,.44-.46,.9-.7,1.34-2.84,4.41-6.46,8.03-10.87,10.87Zm.51-45.43c-9.75-9.7-25.31-9.66-35.04,.09-9.72,9.74-9.71,25.3,.03,35.04,9.8,9.8,25.43,9.76,35.18-.1,9.68-9.78,9.6-25.31-.17-35.03Z"/>
    <path class="cls-1" d="M66.09,55.33c5.29,4.94,10.4,10.05,15.34,15.34-1.55,.59-2.55,1.87-3.61,3.02-2.37,2.59-5.35,4.62-7.15,7.74-5.28-4.94-10.4-10.05-15.34-15.34,1.55-.59,2.55-1.87,3.61-3.02,2.37-2.59,5.35-4.62,7.15-7.74Z"/>
    <path class="cls-5" d="M70.67,81.43c1.8-3.11,4.77-5.15,7.15-7.74,1.06-1.15,2.06-2.43,3.61-3.02,2.52,2.35,5.14,4.63,7.22,7.39,2.4,3.19,2.02,7.33-.73,10.01-2.69,2.62-6.74,2.93-9.86,.58-2.76-2.08-5.04-4.7-7.39-7.22Z"/>
    <path class="cls-5" d="M66.09,55.33c-1.8,3.12-4.77,5.15-7.15,7.74-1.06,1.15-2.05,2.43-3.61,3.02-1.95-1.91-3.9-3.82-5.85-5.74,4.41-2.84,8.04-6.46,10.87-10.87,1.91,1.95,3.82,3.9,5.73,5.85Z"/>
    <path class="cls-3" d="M49.99,14.92c9.77,9.72,9.85,25.25,.17,35.03-9.75,9.86-25.38,9.9-35.18,.1-9.73-9.73-9.74-25.29-.03-35.04,9.72-9.75,25.28-9.79,35.04-.09Z"/>
  </g>
  <g>
    <path class="cls-4" d="M35.95,20.88h-8.47c-1.63,0-2.96,1.33-2.96,2.96s1.33,2.96,2.96,2.96h8.47c1.63,0,2.96-1.33,2.96-2.96s-1.33-2.96-2.96-2.96Z"/>
    <path class="cls-4" d="M45.07,30.55h-4.1c-1.63,0-2.96,1.33-2.96,2.96h0c0,1.63,1.33,2.96,2.96,2.96h4.1c1.63,0,2.96-1.33,2.96-2.96h0c0-1.63-1.33-2.96-2.96-2.96Z"/>
    <path class="cls-4" d="M33.41,37.8h-12.7c-1.63,0-2.96,1.33-2.96,2.96s1.33,2.96,2.96,2.96h12.7c1.63,0,2.96-1.33,2.96-2.96s-1.33-2.96-2.96-2.96Z"/>
  </g>
</svg>