<?xml version="1.0" encoding="UTF-8"?>
<svg id="Layer_1" data-name="Layer 1" xmlns="http://www.w3.org/2000/svg" viewBox="0 0 88.91 88.72">
  <defs>
    <style>
      .cls-1 {
        fill: #00b0f0;
      }

      .cls-2 {
        fill: #0061a8;
      }

      .cls-3 {
        fill: #e8e8ea;
      }

      .cls-4 {
        fill: none;
      }

      .cls-5 {
        fill: #bbbbbf;
      }

      .cls-6 {
        fill: #efc516;
      }
    </style>
  </defs>
  <path class="cls-5" d="M44.47,.09c13.51-.02,27.01-.04,40.52-.06q3.83,0,3.83,3.83c-.01,5.66-.04,11.31-.06,16.97-14.76,0-29.52,0-44.27,.01l-.03-.03c0-6.91,0-13.82,.01-20.73Zm23.34,15.62c2.99,.02,5.13-2.09,5.15-5.06,.02-2.99-2.09-5.13-5.06-5.15-2.99-.02-5.13,2.09-5.15,5.06-.02,2.99,2.09,5.13,5.06,5.15Z"/>
  <path class="cls-3" d="M44.48,20.84c14.76,0,29.52,0,44.27-.01,0,6.93,0,13.85,.01,20.78-14.77,0-29.55,.02-44.32,.03,0,0,0,0,0,0,.01-6.93,.03-13.86,.04-20.79Zm23.29,5.43c-2.93,.03-5.07,2.24-5.04,5.2,.03,2.93,2.24,5.07,5.2,5.04,2.93-.03,5.07-2.24,5.04-5.2-.03-2.93-2.24-5.07-5.2-5.04Z"/>
  <path class="cls-5" d="M44.48,20.84c-.01,6.93-.03,13.86-.04,20.79-14.76,0-29.53-.01-44.29-.02,0-6.93,0-13.85,.01-20.77,14.76,0,29.53,0,44.29-.01l.03,.03Zm-31.19,7.98q-2.6,0-2.6,2.33,0,2.81,2.12,2.81,3.03,0,3.03-2.42,0-2.72-2.56-2.72Zm10.39,0q-2.6,0-2.6,2.34,0,2.8,2.13,2.81,3.03,0,3.03-2.42,0-2.72-2.56-2.72Zm10.43,5.14q2.52,0,2.53-2.23,0-2.91-2.2-2.91-2.96,0-2.96,2.49,0,2.65,2.63,2.65Z"/>
  <path class="cls-3" d="M44.46,20.82c-14.76,0-29.53,0-44.29,.01-.02-6.58-.01-13.16-.09-19.74C.06-.31,.97,.04,1.69,.04c8.72-.01,17.43-.01,26.15,0,5.54,0,11.08,.04,16.62,.05,0,6.91,0,13.82-.01,20.73ZM13.31,13.17q2.55,0,2.55-2.18,0-2.96-2.11-2.96-3.07,0-3.07,2.52t2.63,2.61Zm10.45,0q2.49,0,2.49-2.23,0-2.9-2.17-2.9-3.01,0-3.01,2.41,0,2.73,2.69,2.73Zm10.35-5.13q-2.64,0-2.64,2.26,0,2.87,2.2,2.87,2.98,0,2.98-2.43,0-2.7-2.54-2.7Z"/>
  <path class="cls-6" d="M41.91,73.53c.17-.06,.35-.13,.52-.19,.68-.08,1.36-.15,2.05-.23,.84,.13,1.69,.25,2.53,.38,2.3,.98,3.95,2.62,4.94,4.91,.3,1.7,.31,3.41,0,5.11-2.48,5.47-7.62,6.26-11.4,4.11-1.69-.96-2.64-2.52-3.54-4.13-.3-1.69-.31-3.38,0-5.07,1.04-2.23,2.65-3.88,4.91-4.88Z"/>
  <path class="cls-5" d="M37,78.41c-.31,1.69-.3,3.38,0,5.07-11.94,.02-23.87,.03-35.81,.08-.8,0-1.07-.21-1.11-1.05-.22-4.16-.25-4.16,3.88-4.16,11.01,.02,22.03,.04,33.04,.06Z"/>
  <path class="cls-5" d="M51.94,83.5c.31-1.7,.3-3.41,0-5.11,11.93-.01,23.87-.02,35.8-.06,.81,0,1.06,.22,1.1,1.06,.2,4.16,.23,4.16-3.86,4.16-11.01-.01-22.02-.03-33.03-.04Z"/>
  <path class="cls-5" d="M47.08,62.44c.02,.06,.05,.12,.09,.16,13.48,.01,26.97,.03,40.45,.03,.42,0,1.13,.32,1.15-.58,0-6.82,0-13.63,0-20.45-14.77,0-29.55,.02-44.32,.03,0,6.93,.02,13.86,.03,20.78,.87,0,1.74,.01,2.61,.02"/>
  <path class="cls-2" d="M13.29,54.75q-2.61,0-2.61-2.63t3.08-2.5q2.1,0,2.1,2.97,0,2.16-2.57,2.16Z"/>
  <path class="cls-2" d="M26.26,52.2q0,2.55-2.87,2.55-2.31,0-2.31-2.76c0-2.38,0-2.4,3.21-2.37,2.23,.02,1.94-.46,1.97,2.58Z"/>
  <path class="cls-2" d="M34.22,49.62q2.43,0,2.43,2.82,0,2.32-3.1,2.32-2.09,0-2.08-2.99,0-2.15,2.75-2.15Z"/>
  <path class="cls-1" d="M67.81,15.7c-2.97-.01-5.07-2.15-5.06-5.15,.02-2.97,2.15-5.07,5.15-5.06,2.97,.02,5.07,2.15,5.06,5.15-.02,2.97-2.15,5.07-5.15,5.06Z"/>
  <path class="cls-1" d="M67.77,26.27c2.96-.03,5.17,2.11,5.2,5.04,.03,2.96-2.11,5.17-5.04,5.2-2.96,.03-5.17-2.11-5.2-5.04-.03-2.96,2.11-5.17,5.04-5.2Z"/>
  <path class="cls-2" d="M13.29,28.82q2.56,0,2.56,2.72,0,2.42-3.03,2.42-2.12,0-2.12-2.81,0-2.33,2.6-2.33Z"/>
  <path class="cls-2" d="M23.68,28.82q2.56,0,2.56,2.72,0,2.42-3.03,2.42-2.13,0-2.13-2.81,0-2.34,2.6-2.34Z"/>
  <path class="cls-2" d="M34.11,33.96q-2.63,0-2.63-2.65,0-2.49,2.96-2.49,2.2,0,2.2,2.91,0,2.23-2.53,2.23Z"/>
  <path class="cls-2" d="M13.31,13.17q-2.63,0-2.63-2.61t3.07-2.52q2.12,0,2.11,2.96,0,2.18-2.55,2.18Z"/>
  <path class="cls-2" d="M23.76,13.17q-2.69,0-2.69-2.73,0-2.41,3.01-2.41,2.17,0,2.17,2.9,0,2.23-2.49,2.23Z"/>
  <path class="cls-2" d="M34.11,8.03q2.54,0,2.54,2.7,0,2.43-2.98,2.43-2.2,0-2.2-2.87,0-2.26,2.64-2.26Z"/>
  <path class="cls-1" d="M72.88,52.23c.37,3.18-3.05,5.27-5.2,5.31-2.59,.04-5.22-2.74-5.19-5.41,.03-2.88,2.3-4.98,5.38-4.97,3.09,0,5.02,1.96,5.01,5.07Z"/>
  <path class="cls-4" d="M24.29,49.63c-3.21-.03-3.21-.01-3.21,2.37q0,2.76,2.31,2.76,2.87,0,2.87-2.55c-.03-3.04,.26-2.55-1.97-2.58Z"/>
  <path class="cls-4" d="M34.22,49.62q-2.75,0-2.75,2.15,0,2.99,2.08,2.99,3.09,0,3.1-2.32,0-2.81-2.43-2.82Z"/>
  <path class="cls-4" d="M13.76,49.62q-3.08,0-3.08,2.51t2.61,2.63,2.57-2.16q0-2.97-2.1-2.97Z"/>
  <path class="cls-3" d="M44.49,62.42c0-6.93-.02-13.86-.03-20.78h0c-14.76-.01-29.53-.02-44.29-.03-.02,6.35,.02,12.69-.09,19.04-.03,1.56,.36,2.02,1.97,2.01,12.52-.07,25.05-.04,37.57-.04,2.19,0,.98,0,2.19,0,.05,0,0-.05,0,0v-.19h2.67Zm-31.18-7.67q-2.61,0-2.61-2.63t3.08-2.51q2.1,0,2.1,2.97,0,2.16-2.57,2.16Zm10.1,0q-2.31,0-2.31-2.76c0-2.38,0-2.4,3.21-2.37,2.23,.02,1.94-.46,1.97,2.58q0,2.55-2.87,2.55Zm10.17,0q-2.09,0-2.08-2.99,0-2.15,2.75-2.15,2.43,0,2.43,2.82,0,2.32-3.1,2.32Z"/>
  <path class="cls-3" d="M44.66,62.42h-.19c.06,0,.13,0,.19,0h0Z"/>
  <path class="cls-5" d="M47.08,62.44c-.81,0-1.61-.01-2.42-.02-.06,0-.13,0-.19,0h-2.67v2.65h0c.02,2.82,.07,5.64,.1,8.46l.52-.19h0c.68-.08,1.36-.15,2.05-.23,0-.03,0-.05,0-.08,0,.03,0,.05,0,.08,.84,.13,1.69,.25,2.53,.38,.06-3.62,.11-7.25,.17-10.87-.04-.05-.07-.1-.09-.16Z"/>
</svg>