<?xml version="1.0" encoding="UTF-8"?>
<svg id="Layer_1" data-name="Layer 1" xmlns="http://www.w3.org/2000/svg" viewBox="0 0 102.48 88.72">
  <defs>
    <style>
      .cls-1 {
        fill: #fff;
      }

      .cls-2 {
        fill: #0061a8;
      }

      .cls-3 {
        fill: #e8e8ea;
      }

      .cls-4 {
        fill: #bbbbbf;
      }

      .cls-5 {
        fill: #efc516;
      }
    </style>
  </defs>
  <path class="cls-2" d="M90.42,0H12.06C5.4,0,0,5.4,0,12.06V51.95H102.48V12.06c0-6.66-5.4-12.06-12.06-12.06Z"/>
  <path class="cls-3" d="M0,51.88v15.3c0,4.29,3.48,7.77,7.77,7.77H94.71c4.29,0,7.77-3.48,7.77-7.77v-15.3H0Z"/>
  <circle class="cls-5" cx="51.24" cy="63.42" r="3.38"/>
  <rect class="cls-4" x="40.77" y="74.95" width="20.94" height="7.68"/>
  <rect class="cls-3" x="24.78" y="82.63" width="52.93" height="6.09" rx="3.05" ry="3.05"/>
  <g>
    <path class="cls-1" d="M43.88,39.69c-.77,0-1.54-.29-2.12-.88l-10.07-10.07c-1.17-1.17-1.17-3.07,0-4.24l10.07-10.07c1.17-1.17,3.07-1.17,4.24,0,1.17,1.17,1.17,3.07,0,4.24l-7.95,7.95,7.95,7.95c1.17,1.17,1.17,3.07,0,4.24-.59,.59-1.35,.88-2.12,.88Z"/>
    <path class="cls-1" d="M58.6,13.54c.77,0,1.54,.29,2.12,.88l10.07,10.07c1.17,1.17,1.17,3.07,0,4.24l-10.07,10.07c-1.17,1.17-3.07,1.17-4.24,0-1.17-1.17-1.17-3.07,0-4.24l7.95-7.95-7.95-7.95c-1.17-1.17-1.17-3.07,0-4.24,.59-.59,1.35-.88,2.12-.88Z"/>
  </g>
</svg>