<?xml version="1.0" encoding="UTF-8"?>
<svg id="Layer_1" data-name="Layer 1" xmlns="http://www.w3.org/2000/svg" viewBox="0 0 98.32 88.72">
  <defs>
    <style>
      .cls-1 {
        fill: #00b0f0;
      }

      .cls-2 {
        fill: #0061a8;
      }
    </style>
  </defs>
  <path class="cls-2" d="M54.36,75.48c0-3.75,.03-7.51-.02-11.26-.01-.94,.19-1.38,1.23-1.45,8.06-.51,14.26-6.31,16.29-12.9,1.08-3.51,.95-6.94,.15-10.64-1.46-6.74-8.8-12.99-15.24-13.45-2.41-.17-2.39-.25-2.39-2.6,0-7.23,0-14.46-.02-21.7,0-.98-.04-1.41,1.38-1.43,2.41-.03,4.83,.11,7.24-.04,.93-.06,1.25,.25,1.23,1.21-.07,3.09-.03,6.18-.09,9.27-.02,.89,.21,1.4,1.12,1.71,1.34,.45,2.68,.98,3.92,1.65,.87,.46,1.4,.26,2.01-.35,2.18-2.19,4.41-4.34,6.55-6.56,.65-.67,1.03-.71,1.7-.03,3.99,4.05,7.99,8.09,12.04,12.08,.83,.81,.63,1.28-.1,1.97-2.16,2.04-4.25,4.15-6.39,6.21-.66,.64-.97,1.16-.44,2.12,.69,1.25,1.17,2.62,1.64,3.97,.27,.76,.57,1.16,1.48,1.15,3.27-.04,6.55,0,9.82,.03,1.05,.01,.82,.85,.82,1.46,.02,4.36,0,8.72,0,13.08,0,1.1-.04,2.21,0,3.31,.05,1.14-.22,1.67-1.57,1.61-2.92-.13-5.85-.03-8.77-.07-1-.01-1.55,.29-1.87,1.35-.44,1.47-.94,3.02-1.83,4.23-.98,1.33-.55,2,.43,2.93,2.08,1.97,4.03,4.07,6.09,6.06,.72,.69,.74,1.09-.03,1.81-4.15,3.88-8.26,7.82-12.35,11.76-.58,.56-.97,.7-1.61,.03-2.23-2.31-4.53-4.56-6.78-6.85-.47-.48-.97-.5-1.5-.26-.59,.26-1.13,.7-1.74,.87-1.19,.35-2.8,.28-3.4,1.3-.54,.92-.22,2.36-.25,3.57-.07,2.15-.17,4.3-.16,6.46,0,.97-.21,1.39-1.28,1.34-2.04-.11-4.08-.14-6.13-.11-1.08,.02-1.26-.46-1.24-1.4,.04-3.81,.02-7.62,.02-11.43h.01Z"/>
  <rect class="cls-2" x="37.77" y=".58" width="12.59" height="12.59"/>
  <rect class="cls-2" x="25.18" y="13.18" width="12.59" height="12.59"/>
  <rect class="cls-1" x="37.77" y="25.77" width="12.59" height="12.59"/>
  <rect class="cls-2" x="25.18" y="38.36" width="12.59" height="12.59"/>
  <rect class="cls-2" x="37.77" y="50.95" width="12.59" height="12.59"/>
  <rect class="cls-2" x="25.18" y="63.54" width="12.59" height="12.59"/>
  <rect class="cls-2" y="38.36" width="12.59" height="12.59"/>
  <rect class="cls-1" y="63.54" width="12.59" height="12.59"/>
  <rect class="cls-2" x="37.77" y="76.13" width="12.59" height="12.59"/>
  <rect class="cls-1" x="12.59" y="25.77" width="12.59" height="12.59"/>
  <rect class="cls-1" x="12.59" y="50.95" width="12.59" height="12.59"/>
  <rect class="cls-2" x="12.59" y="76.13" width="12.59" height="12.59"/>
</svg>