<?xml version="1.0" encoding="utf-8"?>
<!-- Generator: Adobe Illustrator 27.0.0, SVG Export Plug-In . SVG Version: 6.00 Build 0)  -->
<svg version="1.1" id="Capa_1-2" xmlns="http://www.w3.org/2000/svg" xmlns:xlink="http://www.w3.org/1999/xlink" x="0px" y="0px"
	 viewBox="0 0 140.1 313.2" style="enable-background:new 0 0 140.1 313.2;" xml:space="preserve">
<style type="text/css">
	.st0{fill-rule:evenodd;clip-rule:evenodd;fill:#195C9B;}
	.st1{clip-path:url(#SVGID_00000128469209375633317160000016585382220964635306_);}
	.st2{clip-path:url(#SVGID_00000172439582344371849750000010465420571215795627_);}
	.st3{clip-path:url(#SVGID_00000065771593849976935430000010619165088960991913_);}
	.st4{fill-rule:evenodd;clip-rule:evenodd;fill:#F4F8FC;}
	.st5{clip-path:url(#SVGID_00000080892301647566619780000002800537235954023850_);}
	.st6{clip-path:url(#SVGID_00000176725230489637991320000007127076481777740689_);}
	.st7{clip-path:url(#SVGID_00000000197059756801038330000017199585190215005588_);}
	.st8{clip-path:url(#SVGID_00000100341291123481893810000016224730175507937201_);}
	.st9{clip-path:url(#SVGID_00000022550431993130400610000008139719412676177317_);}
	.st10{clip-path:url(#SVGID_00000001653412744200118630000015707083129190970258_);}
	.st11{clip-path:url(#SVGID_00000083786756007296174870000015446784671785376702_);}
	.st12{fill-rule:evenodd;clip-rule:evenodd;fill:#FFFFFF;}
	.st13{clip-path:url(#SVGID_00000142137480143582456600000002293291927385726880_);}
	.st14{clip-path:url(#SVGID_00000023961882311680233670000008389646939892414643_);}
	.st15{clip-path:url(#SVGID_00000137816884829905057570000011902523108958524047_);}
	.st16{fill:none;}
	.st17{fill:#E4BE28;}
	.st18{fill:#E9E8EA;}
	.st19{fill:#195C9B;}
	.st20{fill:#BBBABE;}
	.st21{fill:#25A2DA;}
	.st22{enable-background:new    ;}
</style>
<g>
	<g>
		<g>
			<path class="st0" d="M23.2,214l50.4,0.4l0.8-115.7l-50.4-0.4C57.8,145.3,57.7,167.5,23.2,214C23.2,214,23.2,214,23.2,214z"/>
			<path class="st0" d="M123.8,214.7c-33.8-47-33.6-69.2,0.8-115.7l-50.2-0.4l-0.8,115.7L123.8,214.7L123.8,214.7z"/>
			<g>
				<defs>
					<polyline id="SVGID_1_" points="137.4,-9.5 2.5,-10.5 2.5,-10.5 0,330.5 134.9,331.4 					"/>
				</defs>
				<clipPath id="SVGID_00000103254322652804337500000013374544165266908298_">
					<use xlink:href="#SVGID_1_"  style="overflow:visible;"/>
				</clipPath>
				<g style="clip-path:url(#SVGID_00000103254322652804337500000013374544165266908298_);">
					<path class="st0" d="M73.6,188.9c34.3,0.2,61.8,28.3,61.6,62.6s-28.2,62-62.5,61.7s-61.8-28.3-61.6-62.6
						C11.4,216.3,39.4,188.7,73.6,188.9L73.6,188.9z"/>
					<path class="st0" d="M75,0.8C109.3,1,136.9,29,136.6,63.2c-0.2,34.3-28.2,61.8-62.5,61.6S12.3,96.6,12.5,62.3S40.8,0.5,75,0.8
						L75,0.8L75,0.8z"/>
					<g>
						<defs>
							<polyline id="SVGID_00000173848190056397174990000001545782959958301622_" points="140.1,-378.3 5.2,-379.3 5.2,-379.3 
								0,330.5 134.9,331.4 							"/>
						</defs>
						<clipPath id="SVGID_00000110438762733631895340000017471746047865593216_">
							<use xlink:href="#SVGID_00000173848190056397174990000001545782959958301622_"  style="overflow:visible;"/>
						</clipPath>
						<g style="clip-path:url(#SVGID_00000110438762733631895340000017471746047865593216_);">
							<g>
								<defs>
									<polyline id="SVGID_00000018225874073633291230000010758556135050018970_" points="140.1,-378.3 5.2,-379.3 5.2,-379.3 
										0,330.5 134.9,331.4 									"/>
								</defs>
								<clipPath id="SVGID_00000000188630315269276690000004428360341056521349_">
									<use xlink:href="#SVGID_00000018225874073633291230000010758556135050018970_"  style="overflow:visible;"/>
								</clipPath>
								<g style="clip-path:url(#SVGID_00000000188630315269276690000004428360341056521349_);">
									<path class="st4" d="M73.6,197.8c29.6,0.2,53.3,24.3,53.1,53.8s-24.3,53.2-53.9,53c-29.6-0.2-53.3-24.3-53.1-53.8
										C19.9,221.3,44,197.6,73.6,197.8L73.6,197.8z"/>
									<g>
										<defs>
											<polyline id="SVGID_00000134214403674385496000000016274945340169931440_" points="140.1,-378.3 5.2,-379.3 5.2,-379.3 
												0,330.5 134.9,331.4 											"/>
										</defs>
										<clipPath id="SVGID_00000174567058030553269900000007673659302897084599_">
											<use xlink:href="#SVGID_00000134214403674385496000000016274945340169931440_"  style="overflow:visible;"/>
										</clipPath>
										<g style="clip-path:url(#SVGID_00000174567058030553269900000007673659302897084599_);">
											<path class="st4" d="M75,9.2c29.6,0.2,53.3,24.3,53.1,53.8c-0.2,29.5-24.3,53.2-53.9,53C44.6,115.7,20.8,91.7,21,62.2
												C21.3,32.7,45.4,8.9,75,9.2C75,9.2,75,9.2,75,9.2z"/>
											<g>
												<defs>
													<line id="SVGID_00000008850028317372834690000009439163368165383837_" x1="0" y1="330.5" x2="134.9" y2="331.4"/>
												</defs>
												<clipPath id="SVGID_00000070112781115103255540000006177375835920806589_">
													<use xlink:href="#SVGID_00000008850028317372834690000009439163368165383837_"  style="overflow:visible;"/>
												</clipPath>
												<g style="clip-path:url(#SVGID_00000070112781115103255540000006177375835920806589_);">
													<g>
														<defs>
															<line id="SVGID_00000060728551305415715980000013214814665915634071_" x1="0" y1="330.5" x2="134.9" y2="331.4"/>
														</defs>
														<clipPath id="SVGID_00000116195375918071995880000008969293173036412060_">
															<use xlink:href="#SVGID_00000060728551305415715980000013214814665915634071_"  style="overflow:visible;"/>
														</clipPath>
														<g style="clip-path:url(#SVGID_00000116195375918071995880000008969293173036412060_);">
															<g>
																<defs>
																	<line id="SVGID_00000031925059579282426470000012932379035008310714_" x1="0" y1="330.5" x2="134.9" y2="331.4"/>
																</defs>
																<clipPath id="SVGID_00000183232517129174328870000018442938847796088488_">
																	<use xlink:href="#SVGID_00000031925059579282426470000012932379035008310714_"  style="overflow:visible;"/>
																</clipPath>
																<g style="clip-path:url(#SVGID_00000183232517129174328870000018442938847796088488_);">
																	<g>
																		<defs>
																			
																				<line id="SVGID_00000032643404464170849740000000074750440744472214_" x1="0" y1="330.5" x2="134.9" y2="331.4"/>
																		</defs>
																		<clipPath id="SVGID_00000021091817678809530110000013547890569985882798_">
																			<use xlink:href="#SVGID_00000032643404464170849740000000074750440744472214_"  style="overflow:visible;"/>
																		</clipPath>
																		<g style="clip-path:url(#SVGID_00000021091817678809530110000013547890569985882798_);">
																			<g>
																				<defs>
																					
																						<line id="SVGID_00000097468428609530751310000009331367038094498182_" x1="0" y1="330.5" x2="134.9" y2="331.4"/>
																				</defs>
																				<clipPath id="SVGID_00000016037865640162799010000001836765541264262564_">
																					<use xlink:href="#SVGID_00000097468428609530751310000009331367038094498182_"  style="overflow:visible;"/>
																				</clipPath>
																				<g style="clip-path:url(#SVGID_00000016037865640162799010000001836765541264262564_);">
																					<g transform="translate(114.82 402.1) rotate(90.42) scale(.24)">
																						
																							<image style="overflow:visible;enable-background:new    ;" width="339" height="339" id="image" xlink:href="27499D66.png"  transform="matrix(-1.759268e-03 0.24 -0.24 -1.759268e-03 114.82 22.7788)">
																						</image>
																					</g>
																					<g>
																						<defs>
																							
																								<line id="SVGID_00000173122919639654867390000005958117214525251213_" x1="0" y1="330.5" x2="134.9" y2="331.4"/>
																						</defs>
																						<clipPath id="SVGID_00000140012292731431376280000017073743515458961829_">
																							<use xlink:href="#SVGID_00000173122919639654867390000005958117214525251213_"  style="overflow:visible;"/>
																						</clipPath>
																						<g style="clip-path:url(#SVGID_00000140012292731431376280000017073743515458961829_);">
																							<path class="st12" d="M86.3,72.8l0.1-14c0-1.1-0.9-2-2-2h-0.5c-0.3,0-0.5,0.2-0.5,0.5s0.2,0.5,0.5,0.5h0.5
																								c0.6,0,1,0.5,1,1l-0.1,14c0,0.5-0.4,1-1,1l-14-0.1c-0.6,0-1-0.5-1-1v-0.5c0-0.3-0.2-0.5-0.5-0.5
																								s-0.5,0.2-0.5,0.5v0.5c0,1.1,0.9,2,2,2l14,0.1C85.3,74.8,86.2,73.9,86.3,72.8 M68.4,57l4.6,3.1l-2.3,1.5
																								c-0.2,0.1-0.3,0.2-0.3,0.5c0,0.1,0.1,0.3,0.1,0.4l1.5,1.6l-3.7,2.2L68.4,57L68.4,57L68.4,57z M68,67.6
																								L68,67.6C68,67.6,68,67.6,68,67.6l5-3l0,0c0.2-0.1,0.3-0.2,0.3-0.5c0-0.1-0.1-0.3-0.1-0.4l-1.6-1.6l2.4-1.6
																								c0.2-0.1,0.3-0.2,0.3-0.5c0-0.2-0.1-0.3-0.2-0.4l0,0l-6-4.1l0,0c-0.1,0-0.2-0.1-0.3-0.1
																								c-0.3,0-0.5,0.2-0.5,0.5l-0.1,11c0,0.3,0.2,0.5,0.5,0.5C67.9,67.6,68,67.6,68,67.6L68,67.6L68,67.6z
																								 M78.4,57.7c0,0.5-0.4,1-1,1s-1-0.5-1-1s0.4-1,1-1S78.4,57.1,78.4,57.7 M75.4,57.6c0,1.1,0.9,2,2,2
																								s2-0.9,2-2s-0.9-2-2-2S75.4,56.5,75.4,57.6 M66.3,69.6c-0.6,0-1-0.5-1-1l0.1-14c0-0.5,0.4-1,1-1l14,0.1
																								c0.6,0,1,0.5,1,1l-0.1,14c0,0.5-0.4,1-1,1L66.3,69.6L66.3,69.6z M82.3,68.7l0.1-14c0-1.1-0.9-2-2-2l-14-0.1
																								c-1.1,0-2,0.9-2,2l-0.1,14c0,1.1,0.9,2,2,2l14,0.1C81.4,70.7,82.3,69.8,82.3,68.7"/>
																							<g>
																								<defs>
																									
																										<line id="SVGID_00000093876430329561205030000016015773574085044139_" x1="0" y1="330.5" x2="134.9" y2="331.4"/>
																								</defs>
																								<clipPath id="SVGID_00000038381243167228147050000017024040761153896639_">
																									
																										<use xlink:href="#SVGID_00000093876430329561205030000016015773574085044139_"  style="overflow:visible;"/>
																								</clipPath>
																								<g style="clip-path:url(#SVGID_00000038381243167228147050000017024040761153896639_);">
																									<g>
																										<defs>
																											
																												<line id="SVGID_00000180360108171934301080000000030092918316410022_" x1="0" y1="330.5" x2="134.9" y2="331.4"/>
																										</defs>
																										<clipPath id="SVGID_00000051368237053307018770000011015352989089504129_">
																											
																												<use xlink:href="#SVGID_00000180360108171934301080000000030092918316410022_"  style="overflow:visible;"/>
																										</clipPath>
																										<g style="clip-path:url(#SVGID_00000051368237053307018770000011015352989089504129_);">
																											<g>
																												<defs>
																													
																														<line id="SVGID_00000115505199425110223910000017121124139526572689_" x1="0" y1="330.5" x2="134.9" y2="331.4"/>
																												</defs>
																												<clipPath id="SVGID_00000025404425650027843160000010082556002584156307_">
																													
																														<use xlink:href="#SVGID_00000115505199425110223910000017121124139526572689_"  style="overflow:visible;"/>
																												</clipPath>
																												<g style="clip-path:url(#SVGID_00000025404425650027843160000010082556002584156307_);">
																													<path class="st16" d="M75.2,264.4l0-3h1c0.6,0,1-0.4,1-1v-2c0-0.5-0.4-1-1-1h-1l0-6h1c0.6,0,1-0.4,1-1
																														v-2c0-0.5-0.4-1-1-1h-1l0-3l5,0l-0.2,20L75.2,264.4L75.2,264.4L75.2,264.4z"/>
																													<polygon class="st16" points="76.2,258.4 76.2,260.4 73.2,260.4 73.2,258.4 76.2,258.4 
																																																											"/>
																													<polygon class="st16" points="76.3,248.4 76.3,250.4 73.3,250.4 73.3,248.4 76.3,248.4 
																																																											"/>
																													<path class="st16" d="M66.2,263.3l0.1-18l8,0.1v2h-1c-0.6,0-1,0.4-1,1v2c0,0.5,0.4,1,1,1h1l0,6h-1
																														c-0.6,0-1,0.4-1,1v2c0,0.5,0.4,1,1,1h1l0,2L66.2,263.3L66.2,263.3L66.2,263.3z"/>
																													<path class="st16" d="M82.2,252.4l0,4c0,0.5-0.5,1-1,1l0-6C81.8,251.4,82.2,251.9,82.2,252.4"/>
																													<path class="st12" d="M81.2,264.4l0-6c1.1,0,2-0.9,2-2l0-4c0-1.1-0.9-2-2-2l0-6c0-0.5-0.4-1-1-1l-5,0
																														c-0.6,0-1,0.4-1,1l-8-0.1c-0.6,0-1,0.4-1,1l-0.1,18c0,0.5,0.4,1,1,1l8,0.1c0,0.5,0.4,1,1,1l5,0
																														C80.7,265.4,81.1,265,81.2,264.4"/>
																												</g>
																											</g>
																										</g>
																									</g>
																								</g>
																							</g>
																						</g>
																					</g>
																				</g>
																			</g>
																		</g>
																	</g>
																</g>
															</g>
														</g>
													</g>
												</g>
											</g>
										</g>
									</g>
								</g>
							</g>
							<polyline class="st16" points="140.1,-378.3 5.2,-379.3 5.2,-379.3 0,330.5 134.9,331.4 							"/>
						</g>
					</g>
				</g>
			</g>
			<polyline class="st16" points="140.1,-378.3 5.2,-379.3 5.2,-379.3 0,330.5 134.9,331.4 			"/>
		</g>
	</g>
	<g>
		<path class="st17" d="M96.6,225.5c-7.4,0-14.8,0-22.2,0c-0.8,0-1.2-0.1-1.3-1c-0.1-1-0.4-1.9-0.6-2.9c-0.3-1.6-0.9-2-2.5-1.9
			c-5.5,0-10.9-0.1-16.4,0c-1.1,0-1.8,0.6-2,1.7c-0.2,0.8-0.4,1.6-0.5,2.4c-0.1,1.3-0.6,1.8-2,1.7c-1.3-0.1-2,0.6-2,1.9
			c0,7,0,14.1,0,21.2c1.3-0.2,2.6-0.6,4-0.7c3-0.2,5.8,0.5,8.2,2.2c3.7,2.6,5.4,6.3,5.5,10.7c0,1.8-0.4,3.7-1.3,5.3
			c2.1,0,4.2,0,6.3,0c0.3,0,0.7,0,1,0h26c1.9,0,2.4-0.5,2.4-2.4v-35.5C99.3,225.9,98.8,225.5,96.6,225.5L96.6,225.5L96.6,225.5z
			 M89.7,258.8c-3.8,0-7.6,0-11.4,0c-1.3,0-2.1-0.7-2.1-1.7c0-1.1,0.8-1.8,2.1-1.8c1.9,0,3.8,0,5.8,0s3.8,0,5.7,0
			c1.3,0,2.1,0.6,2.1,1.7C91.8,258.1,91.1,258.8,89.7,258.8L89.7,258.8z"/>
		<path class="st18" d="M47.2,248.6c1.3-0.2,2.6-0.6,4-0.7c3-0.2,5.8,0.5,8.2,2.2c3.7,2.6,5.4,6.3,5.5,10.7c0,1.8-0.4,3.7-1.3,5.3
			c-4.2,7.9-13.8,9.6-20.4,3.6c-6.3-5.7-4.8-16.5,2.9-20.5C46.4,249,46.8,248.8,47.2,248.6L47.2,248.6L47.2,248.6z M51.9,266
			c1.4,0,2.8,0,4.2,0c1.5,0,1.9-0.5,1.9-2c0-1.7,0-3.3,0-5c0-1.3-0.7-2.1-1.7-2.1s-1.7,0.8-1.7,2.1c0,1,0,2,0,2.9
			c0,0.3-0.1,0.6-0.5,0.6c-0.4,0-0.4-0.3-0.4-0.6c0-0.2,0-0.4,0-0.6c0-1.3-0.7-2.2-1.8-2.2c-1,0-1.6,0.8-1.7,2.1c0,0.1,0,0.2,0,0.3
			c0,0.3,0.1,0.8-0.5,0.8c-0.6,0-0.4-0.5-0.4-0.9c0-1.7,0-3.4,0-5.1c0-1.2-0.8-1.9-1.8-1.9c-1,0-1.8,0.7-1.8,1.9c0,2.6,0,5.1,0,7.7
			c0,1.1,0.7,1.7,1.8,1.7C49.1,266,50.5,266,51.9,266L51.9,266L51.9,266z"/>
		<path class="st19" d="M84.1,255.3c1.9,0,3.8,0,5.7,0c1.3,0,2.1,0.6,2.1,1.7c0,1.1-0.8,1.8-2.1,1.8c-3.8,0-7.6,0-11.4,0
			c-1.3,0-2.1-0.7-2.1-1.7c0-1.1,0.8-1.8,2.1-1.8C80.2,255.3,82.1,255.3,84.1,255.3L84.1,255.3z"/>
		<path class="st20" d="M51.9,266c-1.4,0-2.9,0-4.3,0c-1.1,0-1.8-0.7-1.8-1.7c0-2.6,0-5.1,0-7.7c0-1.2,0.7-1.9,1.8-1.9
			s1.8,0.7,1.8,1.9c0,1.7,0,3.4,0,5.1c0,0.3-0.2,0.8,0.4,0.9c0.6,0,0.4-0.5,0.5-0.8c0-0.1,0-0.2,0-0.3c0-1.3,0.6-2.1,1.7-2.1
			c1,0,1.7,0.8,1.8,2.2v0.6c0,0.3,0,0.5,0.4,0.6c0.4,0,0.5-0.2,0.5-0.6v-2.9c0-1.3,0.7-2.1,1.7-2.1s1.7,0.8,1.7,2.1c0,1.7,0,3.3,0,5
			c0,1.5-0.5,2-1.9,2C54.7,266,53.3,266,51.9,266L51.9,266L51.9,266z"/>
	</g>
	<g>
		<path class="st20" d="M73.6,33.6c8.1,0,16.1,0,24.2,0c1.5,0,2.3,0.8,2.3,2.3c0,3.4,0,6.8,0,10.1c-8.8,0-17.6,0-26.4,0l0,0
			C73.6,41.8,73.6,37.7,73.6,33.6L73.6,33.6L73.6,33.6z M87.5,42.9c1.8,0,3.1-1.2,3.1-3c0-1.8-1.2-3.1-3-3.1c-1.8,0-3.1,1.2-3.1,3
			C84.5,41.6,85.8,42.9,87.5,42.9z"/>
		<path class="st18" d="M73.6,46c8.8,0,17.6,0,26.4,0c0,4.1,0,8.3,0,12.4c-8.8,0-17.6,0-26.4,0l0,0C73.6,54.2,73.6,50.1,73.6,46
			L73.6,46L73.6,46z M87.5,49.2c-1.8,0-3,1.3-3,3.1c0,1.8,1.3,3,3.1,3c1.8,0,3-1.3,3-3.1C90.6,50.5,89.3,49.2,87.5,49.2z"/>
		<path class="st20" d="M73.6,46c0,4.1,0,8.3,0,12.4c-8.8,0-17.6,0-26.4,0c0-4.1,0-8.3,0-12.4C56,46,64.8,46,73.6,46L73.6,46
			L73.6,46L73.6,46z M55,50.7c-1,0-1.5,0.5-1.5,1.4c0,1.1,0.4,1.7,1.3,1.7c1.2,0,1.8-0.5,1.8-1.5C56.6,51.2,56.1,50.7,55,50.7
			L55,50.7L55,50.7z M61.2,50.7c-1,0-1.5,0.5-1.5,1.4c0,1.1,0.4,1.7,1.3,1.7c1.2,0,1.8-0.5,1.8-1.5C62.8,51.3,62.3,50.7,61.2,50.7
			L61.2,50.7L61.2,50.7z M67.5,53.8c1,0,1.5-0.4,1.5-1.3c0-1.2-0.4-1.7-1.3-1.7c-1.2,0-1.8,0.5-1.8,1.5
			C65.9,53.2,66.4,53.8,67.5,53.8L67.5,53.8z"/>
		<path class="st18" d="M73.6,45.9c-8.8,0-17.6,0-26.4,0c0-3.9,0-7.9,0-11.8c0-0.8,0.5-0.6,1-0.6c5.2,0,10.4,0,15.6,0
			c3.3,0,6.6,0,9.9,0C73.6,37.7,73.6,41.8,73.6,45.9L73.6,45.9L73.6,45.9z M55.1,41.4c1,0,1.5-0.4,1.5-1.3c0-1.2-0.4-1.8-1.3-1.8
			c-1.2,0-1.8,0.5-1.8,1.5S54,41.3,55.1,41.4L55.1,41.4L55.1,41.4z M61.3,41.4c1,0,1.5-0.4,1.5-1.3c0-1.1-0.4-1.7-1.3-1.7
			c-1.2,0-1.8,0.5-1.8,1.4C59.7,40.8,60.2,41.4,61.3,41.4L61.3,41.4L61.3,41.4z M67.5,38.3c-1.1,0-1.6,0.5-1.6,1.4
			c0,1.1,0.4,1.7,1.3,1.7c1.2,0,1.8-0.5,1.8-1.5C69,38.8,68.5,38.3,67.5,38.3L67.5,38.3z"/>
		<path class="st17" d="M72.1,77.4c0.1,0,0.2-0.1,0.3-0.1c0.4,0,0.8-0.1,1.2-0.1c0.5,0.1,1,0.1,1.5,0.2c1.4,0.6,2.3,1.6,2.9,2.9
			c0.2,1,0.2,2,0,3c-1.5,3.3-4.5,3.7-6.8,2.5c-1-0.6-1.6-1.5-2.1-2.5c-0.2-1-0.2-2,0-3C69.8,79,70.8,78,72.1,77.4L72.1,77.4z"/>
		<path class="st20" d="M69.2,80.3c-0.2,1-0.2,2,0,3c-7.1,0-14.2,0-21.3,0c-0.5,0-0.6-0.1-0.7-0.6c-0.1-2.5-0.2-2.5,2.3-2.5
			C56,80.3,62.6,80.3,69.2,80.3L69.2,80.3z"/>
		<path class="st20" d="M78.1,83.4c0.2-1,0.2-2,0-3c7.1,0,14.2,0,21.3,0c0.5,0,0.6,0.1,0.7,0.6c0.1,2.5,0.1,2.5-2.3,2.5
			C91.2,83.4,84.7,83.4,78.1,83.4L78.1,83.4L78.1,83.4z"/>
		<path class="st20" d="M75.2,70.8c0,0,0,0.1,0.1,0.1c8,0,16.1,0,24.1,0c0.2,0,0.7,0.2,0.7-0.4V58.4c-8.8,0-17.6,0-26.4,0
			c0,4.1,0,8.3,0,12.4C74.2,70.8,74.7,70.8,75.2,70.8"/>
		<path class="st19" d="M55,66.2c-1,0-1.6-0.5-1.6-1.6c0-1.1,0.6-1.5,1.8-1.5c0.8,0,1.2,0.6,1.2,1.8C56.6,65.8,56.1,66.2,55,66.2z"
			/>
		<path class="st19" d="M62.8,64.7c0,1-0.6,1.5-1.7,1.5c-0.9,0-1.4-0.5-1.4-1.6c0-1.4,0-1.4,1.9-1.4C62.9,63.1,62.8,62.9,62.8,64.7
			L62.8,64.7z"/>
		<path class="st19" d="M67.5,63.1c1,0,1.4,0.6,1.4,1.7c0,0.9-0.6,1.4-1.8,1.4c-0.8,0-1.2-0.6-1.2-1.8
			C65.9,63.6,66.4,63.1,67.5,63.1z"/>
		<path class="st21" d="M87.6,42.9c-1.8,0-3-1.3-3-3.1c0-1.8,1.3-3,3.1-3c1.8,0,3,1.3,3,3.1C90.6,41.6,89.3,42.9,87.6,42.9z"/>
		<path class="st21" d="M87.5,49.2c1.8,0,3.1,1.3,3.1,3c0,1.8-1.3,3.1-3,3.1c-1.8,0-3.1-1.3-3.1-3C84.5,50.5,85.8,49.2,87.5,49.2z"
			/>
		<path class="st19" d="M55,50.7c1,0,1.5,0.5,1.5,1.6c0,1-0.6,1.5-1.8,1.5c-0.8,0-1.3-0.6-1.3-1.7C53.5,51.2,54,50.7,55,50.7
			L55,50.7L55,50.7z"/>
		<path class="st19" d="M61.2,50.7c1,0,1.5,0.5,1.5,1.6c0,1-0.6,1.5-1.8,1.5c-0.8,0-1.3-0.6-1.3-1.7C59.7,51.2,60.2,50.7,61.2,50.7
			L61.2,50.7L61.2,50.7z"/>
		<path class="st19" d="M67.5,53.8c-1.1,0-1.6-0.5-1.6-1.6c0-1,0.6-1.5,1.8-1.5c0.9,0,1.3,0.6,1.3,1.7C69,53.4,68.5,53.8,67.5,53.8
			L67.5,53.8z"/>
		<path class="st19" d="M55.1,41.4c-1,0-1.6-0.5-1.6-1.6s0.6-1.5,1.8-1.5c0.8,0,1.3,0.6,1.3,1.8C56.6,41,56.1,41.4,55.1,41.4
			L55.1,41.4L55.1,41.4z"/>
		<path class="st19" d="M61.3,41.4c-1.1,0-1.6-0.5-1.6-1.6c0-1,0.6-1.4,1.8-1.4c0.9,0,1.3,0.6,1.3,1.7
			C62.8,40.9,62.3,41.4,61.3,41.4L61.3,41.4L61.3,41.4z"/>
		<path class="st19" d="M67.5,38.3c1,0,1.5,0.5,1.5,1.6c0,1-0.6,1.5-1.8,1.5c-0.9,0-1.3-0.6-1.3-1.7C65.9,38.8,66.4,38.3,67.5,38.3
			L67.5,38.3z"/>
		<path class="st21" d="M90.6,64.7c0.2,1.9-1.8,3.1-3.1,3.2c-1.5,0-3.1-1.6-3.1-3.2c0-1.7,1.4-3,3.2-3S90.6,62.8,90.6,64.7
			L90.6,64.7z"/>
		<path class="st16" d="M61.6,63.1c-1.9,0-1.9,0-1.9,1.4c0,1.1,0.5,1.6,1.4,1.6c1.1,0,1.7-0.5,1.7-1.5
			C62.8,62.9,62.9,63.2,61.6,63.1L61.6,63.1z"/>
		<path class="st16" d="M67.5,63.1c-1.1,0-1.6,0.4-1.6,1.3c0,1.2,0.4,1.8,1.2,1.8c1.2,0,1.8-0.5,1.8-1.4
			C69,63.7,68.5,63.1,67.5,63.1z"/>
		<path class="st16" d="M55.3,63.1c-1.2,0-1.8,0.5-1.8,1.5c0,1,0.5,1.5,1.6,1.6s1.5-0.4,1.5-1.3C56.6,63.7,56.2,63.2,55.3,63.1
			L55.3,63.1L55.3,63.1z"/>
		<path class="st18" d="M73.7,70.8c0-4.1,0-8.3,0-12.4l0,0c-8.8,0-17.6,0-26.4,0c0,3.8,0,7.6,0,11.4c0,0.9,0.2,1.2,1.2,1.2
			c7.5,0,14.9,0,22.4,0h1.3c0,0,0,0,0,0v-0.1L73.7,70.8L73.7,70.8z M55.1,66.2c-1,0-1.6-0.5-1.6-1.6c0-1.1,0.6-1.5,1.8-1.5
			c0.8,0,1.2,0.6,1.2,1.8C56.6,65.8,56.1,66.2,55.1,66.2L55.1,66.2L55.1,66.2z M61.1,66.2c-0.9,0-1.4-0.5-1.4-1.6
			c0-1.4,0-1.4,1.9-1.4c1.3,0,1.2-0.3,1.2,1.5C62.8,65.7,62.2,66.2,61.1,66.2L61.1,66.2z M67.1,66.2c-0.8,0-1.2-0.6-1.2-1.8
			c0-0.9,0.6-1.3,1.6-1.3c1,0,1.4,0.6,1.4,1.7C69,65.7,68.4,66.2,67.1,66.2z"/>
		<path class="st20" d="M75.2,70.8c-0.5,0-1,0-1.4,0h-1.7v1.6l0,0c0,1.7,0,3.4,0.1,5l0.3-0.1l0,0c0.4,0,0.8-0.1,1.2-0.1l0,0
			c0.5,0.1,1,0.1,1.5,0.2c0-2.2,0.1-4.3,0.1-6.5C75.2,70.9,75.2,70.8,75.2,70.8L75.2,70.8L75.2,70.8z"/>
	</g>
	<g class="st22">
		<path class="st19" d="M71.3,276.5c0.2,0.1,0.4,0.3,0.6,0.6s0.2,0.5,0.2,0.8c0,0.3-0.1,0.6-0.2,0.8s-0.3,0.4-0.6,0.6
			c-0.2,0.1-0.5,0.2-0.9,0.2h-1.2v-3.2h1.2C70.8,276.3,71.1,276.3,71.3,276.5z M71.1,278.5c0.2-0.2,0.2-0.4,0.2-0.7
			s-0.1-0.5-0.2-0.7c-0.2-0.2-0.4-0.2-0.7-0.2H70v1.8h0.4C70.7,278.8,70.9,278.7,71.1,278.5z"/>
		<path class="st19" d="M74.5,278.9h-1.2l-0.2,0.6h-0.8l1.1-3.2h0.9l1.1,3.2h-0.8L74.5,278.9z M74.3,278.3l-0.4-1.2l-0.4,1.2H74.3z"
			/>
		<path class="st19" d="M78.1,276.3v0.6h-0.8v2.5h-0.8v-2.5h-0.8v-0.6H78.1z"/>
		<path class="st19" d="M80.5,278.9h-1.2l-0.2,0.6h-0.8l1.1-3.2h0.9l1.1,3.2h-0.8L80.5,278.9z M80.3,278.3l-0.4-1.2l-0.4,1.2H80.3z"
			/>
	</g>
	<g class="st22">
		<path class="st19" d="M58.3,93.1c0.2,0.1,0.4,0.3,0.5,0.6s0.2,0.5,0.2,0.8c0,0.3-0.1,0.6-0.2,0.8s-0.3,0.4-0.5,0.6
			s-0.5,0.2-0.8,0.2h-1.1v-3.2h1.1C57.8,92.9,58.1,93,58.3,93.1z M58.1,95.2c0.1-0.2,0.2-0.4,0.2-0.7s-0.1-0.5-0.2-0.7
			c-0.1-0.2-0.4-0.2-0.6-0.2h-0.3v1.8h0.3C57.7,95.4,57.9,95.4,58.1,95.2z"/>
		<path class="st19" d="M60.1,92.9v3.2h-0.7v-3.2H60.1z"/>
		<path class="st19" d="M62.6,93.9c-0.1-0.1-0.1-0.2-0.2-0.2c-0.1-0.1-0.2-0.1-0.3-0.1c-0.2,0-0.4,0.1-0.6,0.2
			c-0.1,0.2-0.2,0.4-0.2,0.7c0,0.3,0.1,0.5,0.2,0.7c0.1,0.2,0.3,0.2,0.6,0.2c0.2,0,0.3,0,0.4-0.1c0.1-0.1,0.2-0.2,0.3-0.4h-0.9v-0.6
			h1.5V95c-0.1,0.2-0.1,0.4-0.3,0.5s-0.3,0.3-0.5,0.4c-0.2,0.1-0.4,0.2-0.7,0.2c-0.3,0-0.5-0.1-0.8-0.2c-0.2-0.1-0.4-0.3-0.5-0.6
			c-0.1-0.2-0.2-0.5-0.2-0.8c0-0.3,0.1-0.6,0.2-0.8c0.1-0.2,0.3-0.4,0.5-0.6s0.5-0.2,0.8-0.2c0.3,0,0.6,0.1,0.9,0.3
			c0.2,0.2,0.4,0.4,0.5,0.8H62.6z"/>
		<path class="st19" d="M64.5,92.9v3.2h-0.7v-3.2H64.5z"/>
		<path class="st19" d="M67.1,92.9v0.6h-0.8v2.5h-0.7v-2.5h-0.8v-0.6H67.1z"/>
		<path class="st19" d="M69.3,95.5h-1.1L68,96.1h-0.7l1.1-3.2h0.8l1.1,3.2h-0.7L69.3,95.5z M69.1,94.9l-0.4-1.2l-0.4,1.2H69.1z"/>
		<path class="st19" d="M71.2,95.5h0.9v0.6h-1.6v-3.2h0.7V95.5z"/>
		<path class="st19" d="M73.2,92.9v3.2h-0.7v-3.2H73.2z"/>
		<path class="st19" d="M74.5,95.5h1.2v0.6h-2.1v-0.6l1.2-1.9h-1.2v-0.6h2.1v0.6L74.5,95.5z"/>
		<path class="st19" d="M78,95.5h-1.1l-0.2,0.6H76l1.1-3.2h0.8l1.1,3.2h-0.7L78,95.5z M77.8,94.9l-0.4-1.2l-0.4,1.2H77.8z"/>
		<path class="st19" d="M79.3,93.7c0.1-0.2,0.3-0.4,0.5-0.6s0.5-0.2,0.8-0.2c0.3,0,0.6,0.1,0.9,0.3c0.2,0.2,0.4,0.5,0.5,0.8h-0.8
			c-0.1-0.1-0.1-0.2-0.2-0.3c-0.1-0.1-0.2-0.1-0.4-0.1c-0.2,0-0.4,0.1-0.5,0.2s-0.2,0.4-0.2,0.7s0.1,0.5,0.2,0.7s0.3,0.2,0.5,0.2
			c0.1,0,0.3,0,0.4-0.1c0.1-0.1,0.2-0.2,0.2-0.3H82c-0.1,0.3-0.2,0.6-0.5,0.8s-0.5,0.3-0.9,0.3c-0.3,0-0.5-0.1-0.8-0.2
			c-0.2-0.1-0.4-0.3-0.5-0.6c-0.1-0.2-0.2-0.5-0.2-0.8C79.1,94.2,79.2,93.9,79.3,93.7z"/>
		<path class="st19" d="M83.1,92.9v3.2h-0.7v-3.2H83.1z"/>
		<path class="st19" d="M84.2,95.9c-0.2-0.1-0.4-0.3-0.5-0.6c-0.1-0.2-0.2-0.5-0.2-0.8c0-0.3,0.1-0.6,0.2-0.8s0.3-0.4,0.5-0.6
			c0.2-0.1,0.5-0.2,0.8-0.2s0.5,0.1,0.8,0.2c0.2,0.1,0.4,0.3,0.5,0.6s0.2,0.5,0.2,0.8c0,0.3-0.1,0.6-0.2,0.8
			c-0.1,0.2-0.3,0.4-0.5,0.6c-0.2,0.1-0.5,0.2-0.7,0.2S84.5,96.1,84.2,95.9z M85.5,95.2c0.1-0.2,0.2-0.4,0.2-0.7
			c0-0.3-0.1-0.5-0.2-0.7c-0.1-0.2-0.3-0.2-0.6-0.2c-0.2,0-0.4,0.1-0.6,0.2c-0.1,0.2-0.2,0.4-0.2,0.7c0,0.3,0.1,0.5,0.2,0.7
			c0.1,0.2,0.3,0.2,0.6,0.2C85.2,95.4,85.4,95.3,85.5,95.2z M85.5,92.3l-1,0.5v-0.5l1-0.5V92.3z"/>
		<path class="st19" d="M89.5,96.1h-0.7l-1.2-1.9v1.9h-0.7v-3.2h0.7l1.2,2v-2h0.7V96.1z"/>
	</g>
</g>
<line class="st16" x1="0" y1="330.5" x2="134.9" y2="331.4"/>
</svg>
