<?xml version="1.0" encoding="utf-8"?>
<!-- Generator: Adobe Illustrator 27.0.0, SVG Export Plug-In . SVG Version: 6.00 Build 0)  -->
<svg version="1.1" id="Capa_2_00000146500646106225733950000014161980197209945217_"
	 xmlns="http://www.w3.org/2000/svg" xmlns:xlink="http://www.w3.org/1999/xlink" x="0px" y="0px" viewBox="0 0 380.5 193.8"
	 style="enable-background:new 0 0 380.5 193.8;" xml:space="preserve">
<style type="text/css">
	.st0{fill-rule:evenodd;clip-rule:evenodd;fill:#195C9B;}
	.st1{fill-rule:evenodd;clip-rule:evenodd;fill:#F4F8FC;}
	.st2{enable-background:new    ;}
	.st3{fill:#195C9B;}
</style>
<g id="Capa_1-2">
	<g>
		<path class="st0" d="M380.5,171c-16,6.9-126-90.1-126-107.9c-4,6.2-9.3,12.2-15.4,17l0,0c18.3-3.7,103,70.5,97,88.1"/>
		<path class="st0" d="M180.3,193.7c15.8-8.3,16.1-86.2,0.9-96.4c8.6,0.9,17.3,0.6,25.9-1.5l0,0c-16,11.1-13.6,90.8,4.4,97.7"/>
		<path class="st0" d="M0,171c16,6.9,126-90.1,126-107.9c4,6.2,9.3,12.2,15.5,17l0,0c-18.3-3.7-103,70.5-97,88.1"/>
	</g>
	<path class="st1" d="M191.1,100.8c-36.5,0.7-66.6-21-67.1-48.4C123.5,25,152.8,2.3,189.3,1.6c36.5-0.7,66.6,21,67.1,48.4
		C256.9,77.3,227.7,100.1,191.1,100.8L191.1,100.8z"/>
	<g class="st2">
		<path class="st3" d="M169.9,45.5c-0.5-0.2-0.9-0.5-1.2-0.9c-0.3-0.4-0.4-0.9-0.5-1.4h1c0,0.5,0.3,0.9,0.6,1.3s0.9,0.5,1.7,0.5
			c0.7,0,1.2-0.2,1.6-0.5c0.4-0.3,0.6-0.8,0.6-1.3c0-0.4-0.1-0.8-0.3-1s-0.5-0.5-0.8-0.6c-0.3-0.1-0.8-0.3-1.3-0.4
			c-0.7-0.2-1.2-0.4-1.6-0.5c-0.4-0.2-0.7-0.4-1-0.8s-0.4-0.8-0.4-1.5c0-0.5,0.1-1,0.4-1.4c0.3-0.4,0.6-0.7,1.1-0.9
			c0.5-0.2,1-0.3,1.7-0.3c0.9,0,1.7,0.2,2.2,0.7c0.6,0.4,0.9,1,1,1.7h-1.1c-0.1-0.4-0.3-0.8-0.7-1.1c-0.4-0.3-0.9-0.5-1.5-0.5
			c-0.6,0-1.1,0.2-1.5,0.5c-0.4,0.3-0.6,0.7-0.6,1.3c0,0.4,0.1,0.8,0.3,1c0.2,0.3,0.5,0.4,0.8,0.6c0.3,0.1,0.8,0.3,1.3,0.4
			c0.6,0.2,1.2,0.4,1.6,0.5c0.4,0.2,0.7,0.4,1,0.8c0.3,0.4,0.4,0.8,0.4,1.4c0,0.5-0.1,0.9-0.4,1.3c-0.2,0.4-0.6,0.8-1.1,1
			c-0.5,0.3-1.1,0.4-1.7,0.4C171,45.8,170.4,45.7,169.9,45.5z"/>
		<path class="st3" d="M176.7,39.7c0.3-0.6,0.8-1.1,1.3-1.4c0.6-0.3,1.2-0.5,1.9-0.5c0.7,0,1.4,0.2,1.9,0.5c0.5,0.3,0.9,0.8,1.2,1.3
			V38h1v7.7h-1V44c-0.2,0.5-0.6,1-1.2,1.3c-0.5,0.3-1.2,0.5-1.9,0.5c-0.7,0-1.3-0.2-1.9-0.5c-0.6-0.3-1-0.8-1.3-1.4
			c-0.3-0.6-0.5-1.3-0.5-2.1C176.2,41,176.4,40.3,176.7,39.7z M182.6,40.2c-0.3-0.5-0.6-0.8-1-1.1c-0.4-0.3-0.9-0.4-1.5-0.4
			c-0.5,0-1,0.1-1.5,0.4c-0.4,0.2-0.8,0.6-1,1.1s-0.4,1-0.4,1.7c0,0.6,0.1,1.2,0.4,1.7c0.2,0.5,0.6,0.8,1,1.1
			c0.4,0.2,0.9,0.4,1.5,0.4c0.5,0,1-0.1,1.5-0.4c0.4-0.3,0.8-0.6,1-1.1c0.3-0.5,0.4-1,0.4-1.6C183,41.2,182.9,40.7,182.6,40.2z"/>
		<path class="st3" d="M187.2,35.2v10.5h-1V35.2H187.2z"/>
		<path class="st3" d="M196.2,38v7.7h-1v-1.4c-0.2,0.5-0.6,0.8-1,1.1s-1,0.4-1.6,0.4c-0.9,0-1.7-0.3-2.3-0.9
			c-0.6-0.6-0.9-1.4-0.9-2.5V38h1v4.4c0,0.8,0.2,1.5,0.6,1.9c0.4,0.4,1,0.7,1.7,0.7c0.7,0,1.3-0.2,1.8-0.7s0.7-1.2,0.7-2.1V38H196.2
			z"/>
		<path class="st3" d="M198.5,39.7c0.3-0.6,0.8-1.1,1.3-1.4c0.6-0.3,1.2-0.5,1.9-0.5c0.7,0,1.3,0.2,1.8,0.5c0.5,0.3,0.9,0.8,1.2,1.3
			v-4.4h1v10.5h-1V44c-0.2,0.5-0.6,1-1.2,1.3c-0.5,0.3-1.2,0.5-1.9,0.5c-0.7,0-1.3-0.2-1.9-0.5c-0.6-0.3-1-0.8-1.3-1.4
			c-0.3-0.6-0.5-1.3-0.5-2.1C198,41,198.2,40.3,198.5,39.7z M204.4,40.2c-0.3-0.5-0.6-0.8-1-1.1s-0.9-0.4-1.5-0.4
			c-0.5,0-1,0.1-1.5,0.4c-0.4,0.2-0.8,0.6-1,1.1s-0.4,1-0.4,1.7c0,0.6,0.1,1.2,0.4,1.7c0.2,0.5,0.6,0.8,1,1.1s0.9,0.4,1.5,0.4
			c0.5,0,1-0.1,1.5-0.4s0.8-0.6,1-1.1s0.4-1,0.4-1.6C204.7,41.2,204.6,40.7,204.4,40.2z"/>
	</g>
	<g class="st2">
		<path class="st3" d="M174.8,53.4c0.8,0.4,1.4,1,1.8,1.7s0.6,1.6,0.6,2.6c0,1-0.2,1.8-0.6,2.6s-1,1.3-1.8,1.8
			c-0.8,0.4-1.7,0.6-2.7,0.6h-3.7v-9.9h3.7C173.1,52.8,174,53,174.8,53.4z M174,59.8c0.5-0.5,0.8-1.2,0.8-2.1s-0.3-1.6-0.8-2.1
			c-0.5-0.5-1.2-0.8-2.1-0.8h-1.1v5.8h1.1C172.8,60.6,173.5,60.3,174,59.8z"/>
		<path class="st3" d="M178.8,53.6c-0.3-0.2-0.4-0.6-0.4-0.9c0-0.4,0.1-0.7,0.4-0.9s0.6-0.4,1-0.4c0.4,0,0.8,0.1,1,0.4
			s0.4,0.6,0.4,0.9c0,0.4-0.1,0.7-0.4,0.9c-0.3,0.2-0.6,0.4-1,0.4C179.4,54,179.1,53.8,178.8,53.6z M181.1,54.8v7.9h-2.4v-7.9H181.1
			z"/>
		<path class="st3" d="M187.3,55c0.4,0.2,0.7,0.5,1,0.9v-1.1h2.4v7.9c0,0.7-0.1,1.4-0.4,2c-0.3,0.6-0.7,1.1-1.3,1.4
			c-0.6,0.3-1.3,0.5-2.2,0.5c-1.2,0-2.1-0.3-2.8-0.8s-1.1-1.3-1.2-2.2h2.4c0.1,0.3,0.3,0.5,0.5,0.7c0.3,0.2,0.6,0.3,1,0.3
			c0.5,0,0.9-0.1,1.2-0.4c0.3-0.3,0.4-0.7,0.4-1.4v-1.1c-0.2,0.4-0.6,0.7-1,0.9s-0.9,0.3-1.5,0.3c-0.7,0-1.2-0.2-1.8-0.5
			s-0.9-0.8-1.3-1.4c-0.3-0.6-0.5-1.3-0.5-2.1s0.2-1.5,0.5-2.1s0.7-1.1,1.3-1.4s1.1-0.5,1.8-0.5C186.4,54.7,186.9,54.8,187.3,55z
			 M187.7,57.3c-0.3-0.3-0.7-0.5-1.2-0.5c-0.5,0-0.9,0.2-1.2,0.5c-0.3,0.3-0.5,0.8-0.5,1.4s0.2,1.1,0.5,1.4c0.3,0.4,0.7,0.5,1.2,0.5
			c0.5,0,0.9-0.2,1.2-0.5s0.5-0.8,0.5-1.4C188.2,58.1,188.1,57.7,187.7,57.3z"/>
		<path class="st3" d="M192.6,53.6c-0.3-0.2-0.4-0.6-0.4-0.9c0-0.4,0.1-0.7,0.4-0.9c0.3-0.2,0.6-0.4,1-0.4c0.4,0,0.8,0.1,1,0.4
			c0.3,0.2,0.4,0.6,0.4,0.9c0,0.4-0.1,0.7-0.4,0.9c-0.3,0.2-0.6,0.4-1,0.4C193.2,54,192.9,53.8,192.6,53.6z M194.8,54.8v7.9h-2.4
			v-7.9H194.8z"/>
		<path class="st3" d="M201,60.6v2.1h-1.2c-0.9,0-1.6-0.2-2.1-0.6c-0.5-0.4-0.7-1.1-0.7-2.1v-3.1h-1v-2h1v-1.9h2.4v1.9h1.6v2h-1.6
			V60c0,0.2,0.1,0.4,0.2,0.5c0.1,0.1,0.3,0.2,0.6,0.2H201z"/>
		<path class="st3" d="M202.3,56.6c0.3-0.6,0.7-1.1,1.3-1.4s1.1-0.5,1.8-0.5c0.6,0,1,0.1,1.5,0.3c0.4,0.2,0.7,0.5,1,0.9v-1.1h2.4
			v7.9h-2.4v-1.1c-0.2,0.4-0.6,0.7-1,0.9s-0.9,0.3-1.5,0.3c-0.6,0-1.2-0.2-1.8-0.5s-0.9-0.8-1.3-1.4c-0.3-0.6-0.5-1.3-0.5-2.1
			S202,57.2,202.3,56.6z M207.3,57.3c-0.3-0.3-0.7-0.5-1.2-0.5c-0.5,0-0.9,0.2-1.2,0.5c-0.3,0.3-0.5,0.8-0.5,1.4s0.2,1.1,0.5,1.4
			c0.3,0.4,0.7,0.5,1.2,0.5c0.5,0,0.9-0.2,1.2-0.5s0.5-0.8,0.5-1.4C207.8,58.1,207.6,57.7,207.3,57.3z"/>
		<path class="st3" d="M214.4,52.2v10.5h-2.4V52.2H214.4z"/>
	</g>
</g>
</svg>
