<?xml version="1.0" encoding="utf-8"?>
<!-- Generator: Adobe Illustrator 27.0.0, SVG Export Plug-In . SVG Version: 6.00 Build 0)  -->
<svg version="1.1" id="Capa_2_00000108991190009790733230000002659297960956118925_"
	 xmlns="http://www.w3.org/2000/svg" xmlns:xlink="http://www.w3.org/1999/xlink" x="0px" y="0px" viewBox="0 0 389 207.3"
	 style="enable-background:new 0 0 389 207.3;" xml:space="preserve">
<style type="text/css">
	.st0{fill-rule:evenodd;clip-rule:evenodd;fill:#195C9B;}
	.st1{fill-rule:evenodd;clip-rule:evenodd;fill:#F4F8FC;}
	.st2{fill:#195C9B;}
	.st3{fill:#FFFFFF;}
</style>
<g id="Capa_1-2">
	<g>
		<path class="st0" d="M4.2,34c16.1-6.9,126,90.1,126,107.9c4-6.2,9.3-12.2,15.4-17.1l0,0c-18.3,3.7-103-70.5-97-88.1"/>
		<path class="st0" d="M204.3,11.2c-15.8,8.3-16.1,86.2-0.9,96.4c-8.6-0.9-17.3-0.6-26,1.5l0,0c16-11.1,13.6-90.8-4.4-97.7"/>
		<path class="st0" d="M384.6,34c-16-6.9-126,90.1-126,107.9c-4-6.2-9.3-12.2-15.5-17.1l0,0c18.3,3.7,103-70.5,97-88.1"/>
	</g>
	<path class="st1" d="M193.5,204.7c-36.5,0.7-66.6-21-67.1-48.4c-0.5-27.4,28.7-50.2,65.2-50.9s66.6,21,67.1,48.4
		C259.3,181.3,230.1,204.1,193.5,204.7L193.5,204.7z"/>
	<g>
		<path class="st2" d="M163.9,172.7c-2.9-0.7-5.4-2-7.6-4c-2.9-2.6-4.8-5.8-5.7-9.5c-0.1-0.2-0.1-0.5-0.1-0.7c0-0.1-0.1-0.2-0.1-0.4
			c0-0.1,0-0.2,0-0.4c0-0.1,0-0.3-0.1-0.4c0-0.2,0-0.5,0-0.7c0-1,0-1.9,0-2.8c0-0.2,0-0.4,0-0.6c0.1-0.1,0.1-0.3,0.1-0.5
			c0-0.1,0-0.2,0-0.4c0.1-0.1,0.1-0.2,0.1-0.4c0.1-0.3,0.1-0.6,0.1-0.9c0-0.1,0.1-0.1,0.1-0.2c1.9-6.7,6.1-11,12.8-13
			c0.1,0,0.1-0.1,0.2-0.1c0,0,0.1,0,0.1,0c0.1,0,0.2,0,0.4-0.1c0.3,0.1,0.6-0.1,0.9-0.1c0.1,0,0.3,0,0.4-0.1c0.2,0,0.3,0,0.5,0
			c0.1,0,0.3,0,0.4-0.1c0.3,0,0.6,0,0.9,0c0.6,0,1.2,0,1.9,0c0.3,0,0.5,0,0.8,0c0.2,0.1,0.4,0.1,0.5,0.1c0.1,0,0.3,0,0.4,0
			c0.1,0.1,0.2,0.1,0.3,0.1c0.1,0,0.2,0,0.4,0c0.1,0,0.2,0.1,0.3,0.1c7.6,1.9,12.2,6.6,14,14.2c0,0.1,0,0.2,0.1,0.3
			c0,0.1,0,0.2,0,0.4c0,0.1,0,0.3,0.1,0.4c0,0.2,0,0.4,0,0.6c0,0.3,0,0.5,0.1,0.8c0,0.6,0,1.3,0,1.9c-0.1,0.3-0.1,0.6-0.1,0.9
			c0,0.2,0,0.3,0,0.5c-0.1,0.1-0.1,0.3-0.1,0.5c-0.7,4.1-2.6,7.7-5.7,10.5c-2.5,2.2-5.3,3.7-8.5,4.3c-0.1,0-0.2,0.1-0.3,0.1
			c-0.1,0-0.2,0-0.4,0c-0.1,0-0.3,0-0.4,0.1c-0.2,0-0.3,0-0.5,0c-0.2,0-0.4,0-0.6,0.1c-1,0-2,0-2.9,0c-0.2-0.1-0.4-0.1-0.6-0.1
			c-0.2,0-0.3,0-0.5,0c-0.1-0.1-0.2-0.1-0.4-0.1c-0.3,0-0.6-0.2-0.9-0.1C164.2,172.7,164.1,172.6,163.9,172.7L163.9,172.7z
			 M174.4,163.2c0.5,0,1-0.1,1.5-0.2c2.5-0.6,4.4-2,5.1-4.6c0.6-2.5-0.3-4.5-2.3-6.1c-0.2-0.2-0.3-0.3-0.2-0.6
			c0.3-2.4-0.5-4.3-2.5-5.5c-2-1.3-4.1-1.2-6.1,0.2c-0.2,0.2-0.4,0.2-0.6,0c-1-0.8-2.2-1.2-3.5-1.3c-2.5-0.2-5.2,1.4-6,3.6
			c-0.2,0.5-0.4,0.8-1,1c-2.9,1.2-4.4,4.3-3.5,7.1c0.6,2,2.1,3.3,4.1,4c0.2,0.1,0.5,0.1,0.5,0.5c0,1.3,0.7,2.3,1.7,3.2
			c1.2,1,2.7,1.5,4.2,1.6c2.1,0.1,4.2-0.3,5.7-1.8C172.4,163.3,173.2,162.7,174.4,163.2L174.4,163.2z"/>
		<path class="st2" d="M224.5,160.4c0-1,0-1.9,0-2.9c0-0.5,0.1-0.9,0.7-0.9c0.5,0,0.6,0.4,0.6,0.9c0,2.7,0,5.4,0,8.1
			c0,0.5,0,0.9-0.6,1c-0.6,0.1-0.7-0.4-0.8-0.9c-0.7,0.7-1.6,1.1-2.6,1c-0.8-0.1-1.4-0.4-2-1c-1.3-1.3-1.3-3.7-0.1-5.2
			C220.9,159.3,222.5,159.2,224.5,160.4L224.5,160.4z M222.4,160.8c-1.2,0-2.2,1-2.2,2.4s0.9,2.5,2.2,2.5c1.3,0,2.2-1.1,2.2-2.5
			C224.5,161.8,223.6,160.8,222.4,160.8L222.4,160.8z"/>
		<path class="st2" d="M192.5,145.8c0,2.3,0,4.5,0,6.8c0,0.4,0.1,0.9-0.4,0.9c-0.5,0-0.4-0.5-0.4-0.9c0-2.6,0-5.2,0-7.8
			c0-0.1,0-0.2,0-0.2c0-0.3,0-0.6,0.4-0.6c0.3-0.1,0.4,0.1,0.6,0.4c1,1.5,1.9,2.9,2.9,4.4c0.2,0.2,0.3,0.5,0.6,0.8
			c1.1-1.7,2.2-3.4,3.3-5c0.1-0.2,0.2-0.6,0.6-0.4c0.4,0.1,0.4,0.4,0.4,0.8c0,2.7,0,5.4,0,8.1c0,0.2,0,0.3-0.1,0.5
			c0,0.2-0.2,0.3-0.4,0.3c-0.2,0-0.3-0.1-0.4-0.4c0-0.2,0-0.4,0-0.5c0-2,0-4,0-6v-0.7c-0.3,0-0.3,0.2-0.4,0.3
			c-0.8,1.3-1.7,2.6-2.5,3.9c-0.5,0.7-0.7,0.7-1.1,0c-0.9-1.4-1.9-2.9-2.8-4.3C192.6,145.8,192.5,145.8,192.5,145.8L192.5,145.8z"/>
		<path class="st2" d="M190.9,162c0-3.7,3.7-6,7-4.4c0.4,0.2,0.8,0.4,0.5,1c-0.2,0.5-0.7,0.4-1.1,0.2c-1-0.5-1.9-0.5-2.9-0.2
			c-1.8,0.7-2.7,3-1.9,5c0.7,1.8,2.8,2.6,4.6,1.8c0.1-0.1,0.2-0.1,0.4-0.2c0.4-0.2,0.7-0.1,0.9,0.3c0.2,0.4,0,0.7-0.4,0.9
			c-3.1,1.5-7-0.1-7.2-3.9C191,162.2,190.9,162.1,190.9,162L190.9,162z"/>
		<path class="st2" d="M210,163.2c0,2.1-1.5,3.6-3.6,3.6c-2,0-3.5-1.6-3.5-3.6c0-2.1,1.5-3.7,3.6-3.7
			C208.5,159.5,210.1,161.1,210,163.2z M206.5,160.8c-1.3,0-2.3,1-2.3,2.5c0,1.4,1,2.4,2.3,2.4c1.3,0,2.3-1.1,2.3-2.4
			C208.8,161.8,207.8,160.8,206.5,160.8L206.5,160.8z"/>
		<path class="st2" d="M215.4,147.6c0-1.1,0-2.1,0-3.2c0-0.2,0-0.4,0-0.6c0-0.2,0.2-0.4,0.4-0.4c0.2,0,0.3,0.1,0.4,0.3
			c0,0.2,0,0.4,0,0.6c0,2.8,0,5.6,0,8.3c0,0.1,0,0.2,0,0.3c0,0.3-0.1,0.6-0.4,0.6c-0.3,0-0.4-0.3-0.4-0.6c0-0.2,0-0.3,0-0.5
			c-0.1-0.1-0.2,0-0.2,0.1c-1.5,1.7-3.9,1.4-4.9-0.5c-0.8-1.4-0.7-2.9,0.1-4.2c1.1-1.7,3.4-1.9,4.8-0.4
			C215.2,147.5,215.2,147.6,215.4,147.6L215.4,147.6z M215.5,150c0-0.2,0-0.4,0-0.6c-0.1-1.1-1-2.1-2-2.2c-1.1-0.1-2.1,0.4-2.6,1.5
			c-0.4,1-0.4,2,0.2,2.9c0.9,1.4,2.7,1.6,3.8,0.3C215.3,151.5,215.5,150.8,215.5,150L215.5,150z"/>
		<path class="st2" d="M211.5,162.3c0-0.7,0-1.3,0-2c0-0.4,0.2-0.7,0.7-0.7c0.4,0,0.6,0.3,0.6,0.7c0,1.1,0,2.3,0,3.5
			c0,1.3,0.6,1.9,1.9,1.8c0.8-0.1,1.4-0.6,1.4-1.4c0-1.1,0-2.3,0-3.4c0-0.2,0-0.5,0.1-0.7c0.1-0.3,0.3-0.5,0.6-0.4
			c0.3,0,0.6,0.2,0.6,0.5c0,1.5,0.2,3.1-0.1,4.6c-0.2,1-0.9,1.6-1.9,1.9c-0.7,0.2-1.3,0.2-2,0c-1.1-0.3-1.9-1.2-1.9-2.4
			C211.5,163.6,211.5,163,211.5,162.3L211.5,162.3L211.5,162.3z"/>
		<path class="st2" d="M233.5,152.3c-0.9,1.1-1.9,1.5-3.2,1.2c-1.4-0.3-2.4-1.5-2.5-3.1c-0.1-0.8,0-1.6,0.4-2.4c1-2,3.5-2.3,5-0.6
			c0,0,0.1,0.1,0.1,0.1c0.1-0.2,0.1-0.4,0.1-0.6c0-0.3,0.1-0.4,0.4-0.5c0.3,0,0.4,0.2,0.4,0.4c0,0.1,0,0.3,0,0.4c0,1.8,0,3.5,0,5.3
			c0,0.1,0,0.3,0,0.4c0,0.2-0.2,0.5-0.4,0.4c-0.3,0-0.4-0.2-0.4-0.5C233.5,152.8,233.5,152.6,233.5,152.3L233.5,152.3z M233.5,150
			c0-0.2,0-0.4,0-0.5c-0.1-1.2-1-2.1-2.1-2.2c-1.2-0.1-2.2,0.5-2.6,1.7c-0.3,0.9-0.2,1.8,0.2,2.6c0.8,1.5,2.7,1.8,3.9,0.5
			C233.3,151.5,233.5,150.8,233.5,150L233.5,150z"/>
		<path class="st2" d="M205.6,150c-0.7,0-1.4,0-2.2,0c-0.4,0-0.5,0.1-0.4,0.5c0.2,1,0.7,1.8,1.7,2.1c1,0.4,2,0.2,2.8-0.6
			c0.2-0.2,0.4-0.5,0.7-0.2c0.3,0.3,0,0.6-0.2,0.8c-1.1,1-2.3,1.2-3.6,0.7c-1.3-0.5-2-1.5-2.1-2.9c-0.2-2,0.7-3.4,2.2-4
			c2-0.7,4.1,0.9,4.1,2.9c0,0.5-0.2,0.6-0.6,0.6C207.2,150,206.4,150,205.6,150L205.6,150z M205.3,149.3c0.6,0,1.2,0,1.8,0
			c0.5,0,0.6-0.1,0.4-0.6c-0.3-1-1.3-1.6-2.4-1.5c-1,0.1-1.9,0.9-2.1,1.8c-0.1,0.3,0.1,0.3,0.3,0.3
			C204.1,149.3,204.7,149.3,205.3,149.3L205.3,149.3z"/>
		<path class="st2" d="M224.2,146.4c0.8,0,1.5,0.1,2.1,0.5c0.3,0.2,0.4,0.5,0.2,0.8c-0.2,0.3-0.5,0.1-0.7-0.1
			c-1.5-1.1-3.8-0.2-4.2,1.7c-0.4,1.7,0.6,3.3,2.3,3.5c0.7,0.1,1.3,0,1.9-0.4c0.2-0.2,0.5-0.5,0.8-0.1c0.3,0.4-0.1,0.6-0.4,0.8
			c-1.6,1-4.4,0.7-5.2-1.7c-0.7-2.1,0.3-4.2,2.2-4.8C223.6,146.4,223.9,146.4,224.2,146.4L224.2,146.4z"/>
		<path class="st2" d="M201.4,161.7c0,1.4,0,2.8,0,4.2c0,0.5-0.1,0.8-0.6,0.8c-0.5,0-0.6-0.3-0.6-0.8c0-2.8,0-5.6,0-8.5
			c0-0.5,0.2-0.8,0.7-0.8s0.6,0.4,0.6,0.8C201.4,158.9,201.4,160.3,201.4,161.7L201.4,161.7z"/>
		<path class="st2" d="M237.3,148.4c0,1.4,0,2.9,0,4.3c0,0.3,0,0.7-0.4,0.7c-0.5,0-0.5-0.4-0.5-0.7c0-2.9,0-5.8,0-8.6
			c0-0.3,0-0.7,0.5-0.7c0.4,0,0.4,0.4,0.4,0.7C237.3,145.5,237.3,147,237.3,148.4z"/>
		<path class="st2" d="M219.2,150c0,0.9,0,1.9,0,2.8c0,0.3,0,0.6-0.4,0.6c-0.4,0-0.5-0.3-0.5-0.6c0-2,0-3.9,0-5.8
			c0-0.3,0.1-0.6,0.4-0.6c0.4,0,0.4,0.3,0.4,0.6C219.2,148.1,219.2,149.1,219.2,150L219.2,150z"/>
		<path class="st2" d="M219.3,144.9c0,0.4-0.1,0.6-0.5,0.6c-0.4,0-0.6-0.2-0.6-0.5c0-0.4,0.2-0.6,0.6-0.6
			C219.2,144.3,219.3,144.5,219.3,144.9L219.3,144.9z"/>
		<path class="st3" d="M174.4,163.2c-1.3-0.5-2,0.2-2.9,1c-1.5,1.5-3.6,2-5.7,1.8c-1.6-0.1-3-0.6-4.2-1.6c-1-0.8-1.6-1.8-1.7-3.2
			c0-0.4-0.2-0.4-0.5-0.5c-2-0.7-3.4-2-4.1-4c-0.9-2.8,0.6-5.9,3.5-7.1c0.5-0.2,0.8-0.5,1-1c0.8-2.3,3.5-3.9,6-3.6
			c1.3,0.1,2.5,0.5,3.5,1.3c0.2,0.2,0.4,0.2,0.6,0c2-1.3,4.1-1.4,6.1-0.2c2,1.3,2.8,3.2,2.5,5.5c0,0.3,0,0.4,0.2,0.6
			c2,1.6,2.9,3.6,2.3,6.1c-0.7,2.6-2.5,4-5.1,4.6C175.5,163.1,174.9,163.2,174.4,163.2L174.4,163.2z M177.6,150.1
			c0-1.5-0.7-2.6-1.9-3.4c-1.1-0.7-2.7-0.9-3.5-0.4C175.1,146.2,176.8,147.5,177.6,150.1L177.6,150.1z M179.3,159.7
			c0.9-0.5,1.4-2.3,1-3.8c-0.3-1.2-1.2-2.2-1.8-2.2C180.2,155.2,180.6,157.6,179.3,159.7z"/>
		<path class="st2" d="M177.6,150.1c-0.9-2.7-2.6-3.9-5.4-3.8c0.8-0.5,2.4-0.3,3.5,0.4C176.9,147.5,177.6,148.6,177.6,150.1
			L177.6,150.1z"/>
		<path class="st2" d="M179.4,159.7c1.2-2.1,0.9-4.5-0.8-6c0.6,0,1.5,1.1,1.8,2.2C180.7,157.4,180.3,159.2,179.4,159.7z"/>
	</g>
</g>
</svg>
