<?xml version="1.0" encoding="utf-8"?>
<!-- Generator: Adobe Illustrator 27.0.0, SVG Export Plug-In . SVG Version: 6.00 Build 0)  -->
<svg version="1.1" id="Capa_1-2" xmlns="http://www.w3.org/2000/svg" xmlns:xlink="http://www.w3.org/1999/xlink" x="0px" y="0px"
	 viewBox="0 0 140.1 312.3" style="enable-background:new 0 0 140.1 312.3;" xml:space="preserve">
<style type="text/css">
	.st0{fill-rule:evenodd;clip-rule:evenodd;fill:#195C9B;}
	.st1{clip-path:url(#SVGID_00000182510935332748022880000008426914919360812958_);}
	.st2{clip-path:url(#SVGID_00000101071824331886595970000008856904541619842183_);}
	.st3{clip-path:url(#SVGID_00000090984979111522554960000004264765861656239288_);}
	.st4{fill-rule:evenodd;clip-rule:evenodd;fill:#F4F8FC;}
	.st5{clip-path:url(#SVGID_00000083770874208704315370000007062415645014512804_);}
	.st6{clip-path:url(#SVGID_00000039852161829440842100000003333286061840744595_);}
	.st7{clip-path:url(#SVGID_00000098218511483572605220000000619332937492783788_);}
	.st8{clip-path:url(#SVGID_00000168812727499428352740000004015278178953805229_);}
	.st9{clip-path:url(#SVGID_00000152228188607326006280000014851333363574287784_);}
	.st10{clip-path:url(#SVGID_00000167384932494251131920000002803681074144632475_);}
	.st11{clip-path:url(#SVGID_00000010297870905357315240000005585141601234414246_);}
	.st12{fill-rule:evenodd;clip-rule:evenodd;fill:#FFFFFF;}
	.st13{clip-path:url(#SVGID_00000085209639886951461760000001434762929839447214_);}
	.st14{clip-path:url(#SVGID_00000081626899559090947340000005590027335957942695_);}
	.st15{clip-path:url(#SVGID_00000140712165333816709520000018356618996499034532_);}
	.st16{fill:none;}
	.st17{fill:#195C9B;}
	.st18{fill:#E9E8EA;}
	.st19{fill:#E4BE28;}
	.st20{fill:#BBBABE;}
	.st21{fill:#FFFFFF;}
	.st22{enable-background:new    ;}
</style>
<g>
	<g>
		<g>
			<path class="st0" d="M23.2,213.1l50.4,0.4l0.8-115.7l-50.4-0.4C57.8,144.4,57.7,166.6,23.2,213.1
				C23.2,213.1,23.2,213.1,23.2,213.1z"/>
			<path class="st0" d="M123.8,213.8c-33.8-47-33.6-69.2,0.8-115.7l-50.2-0.4l-0.8,115.7L123.8,213.8L123.8,213.8z"/>
			<g>
				<defs>
					<polyline id="SVGID_1_" points="137.4,-10.4 2.5,-11.4 2.5,-11.4 0,329.6 134.9,330.6 					"/>
				</defs>
				<clipPath id="SVGID_00000082369247003017492450000009321285859773879451_">
					<use xlink:href="#SVGID_1_"  style="overflow:visible;"/>
				</clipPath>
				<g style="clip-path:url(#SVGID_00000082369247003017492450000009321285859773879451_);">
					<path class="st0" d="M73.6,188.1c34.3,0.2,61.8,28.3,61.6,62.6s-28.2,61.9-62.5,61.7s-61.8-28.3-61.6-62.6
						C11.4,215.4,39.4,187.8,73.6,188.1L73.6,188.1z"/>
					<path class="st0" d="M75-0.1c34.3,0.2,61.8,28.2,61.6,62.5s-28.2,61.8-62.5,61.6S12.3,95.7,12.5,61.5S40.8-0.3,75-0.1L75-0.1
						L75-0.1z"/>
					<g>
						<defs>
							<polyline id="SVGID_00000096018847418553683340000016714634698791568061_" points="140.1,-379.2 5.2,-380.2 5.2,-380.2 
								0,329.6 134.9,330.6 							"/>
						</defs>
						<clipPath id="SVGID_00000007387077738804679320000017535398265730749106_">
							<use xlink:href="#SVGID_00000096018847418553683340000016714634698791568061_"  style="overflow:visible;"/>
						</clipPath>
						<g style="clip-path:url(#SVGID_00000007387077738804679320000017535398265730749106_);">
							<g>
								<defs>
									<polyline id="SVGID_00000036248492325189609690000001487540748171404223_" points="140.1,-379.2 5.2,-380.2 5.2,-380.2 
										0,329.6 134.9,330.6 									"/>
								</defs>
								<clipPath id="SVGID_00000012449338878685179660000018157303472928637830_">
									<use xlink:href="#SVGID_00000036248492325189609690000001487540748171404223_"  style="overflow:visible;"/>
								</clipPath>
								<g style="clip-path:url(#SVGID_00000012449338878685179660000018157303472928637830_);">
									<path class="st4" d="M73.6,196.9c29.6,0.2,53.3,24.3,53.1,53.8s-24.3,53.2-53.9,53c-29.6-0.2-53.3-24.3-53.1-53.8
										C19.9,220.5,44,196.7,73.6,196.9L73.6,196.9z"/>
									<g>
										<defs>
											<polyline id="SVGID_00000112590994984057648870000017551902952989700236_" points="140.1,-379.2 5.2,-380.2 5.2,-380.2 
												0,329.6 134.9,330.6 											"/>
										</defs>
										<clipPath id="SVGID_00000110443637532462094840000012840295441080346003_">
											<use xlink:href="#SVGID_00000112590994984057648870000017551902952989700236_"  style="overflow:visible;"/>
										</clipPath>
										<g style="clip-path:url(#SVGID_00000110443637532462094840000012840295441080346003_);">
											<path class="st4" d="M75,8.3c29.6,0.2,53.3,24.3,53.1,53.8c-0.2,29.5-24.3,53.2-53.9,53C44.6,114.9,20.8,90.8,21,61.3
												C21.3,31.8,45.4,8.1,75,8.3C75,8.3,75,8.3,75,8.3z"/>
											<g>
												<defs>
													<line id="SVGID_00000114768443297670585630000008400476628057975961_" x1="0" y1="329.6" x2="134.9" y2="330.6"/>
												</defs>
												<clipPath id="SVGID_00000043446798453844797250000001359379597825569717_">
													<use xlink:href="#SVGID_00000114768443297670585630000008400476628057975961_"  style="overflow:visible;"/>
												</clipPath>
												<g style="clip-path:url(#SVGID_00000043446798453844797250000001359379597825569717_);">
													<g>
														<defs>
															<line id="SVGID_00000084523655527189601580000015141816418737477300_" x1="0" y1="329.6" x2="134.9" y2="330.6"/>
														</defs>
														<clipPath id="SVGID_00000128469698232651848820000014352672879647351463_">
															<use xlink:href="#SVGID_00000084523655527189601580000015141816418737477300_"  style="overflow:visible;"/>
														</clipPath>
														<g style="clip-path:url(#SVGID_00000128469698232651848820000014352672879647351463_);">
															<g>
																<defs>
																	<line id="SVGID_00000000210098515902251760000009075948264892189867_" x1="0" y1="329.6" x2="134.9" y2="330.6"/>
																</defs>
																<clipPath id="SVGID_00000111907714161420419310000006388332225291952537_">
																	<use xlink:href="#SVGID_00000000210098515902251760000009075948264892189867_"  style="overflow:visible;"/>
																</clipPath>
																<g style="clip-path:url(#SVGID_00000111907714161420419310000006388332225291952537_);">
																	<g>
																		<defs>
																			
																				<line id="SVGID_00000031913075232398151370000013266723114419629757_" x1="0" y1="329.6" x2="134.9" y2="330.6"/>
																		</defs>
																		<clipPath id="SVGID_00000086654401044558143920000006330973039501641381_">
																			<use xlink:href="#SVGID_00000031913075232398151370000013266723114419629757_"  style="overflow:visible;"/>
																		</clipPath>
																		<g style="clip-path:url(#SVGID_00000086654401044558143920000006330973039501641381_);">
																			<g>
																				<defs>
																					
																						<line id="SVGID_00000134217632746060024810000003686856339857137293_" x1="0" y1="329.6" x2="134.9" y2="330.6"/>
																				</defs>
																				<clipPath id="SVGID_00000066474903243379543090000014184113083785649842_">
																					<use xlink:href="#SVGID_00000134217632746060024810000003686856339857137293_"  style="overflow:visible;"/>
																				</clipPath>
																				<g style="clip-path:url(#SVGID_00000066474903243379543090000014184113083785649842_);">
																					<g transform="translate(114.82 402.1) rotate(90.42) scale(.24)">
																						
																							<image style="overflow:visible;enable-background:new    ;" width="339" height="339" id="image" xlink:href="BEC5D483.png"  transform="matrix(-1.759268e-03 0.24 -0.24 -1.759268e-03 114.82 21.9289)">
																						</image>
																					</g>
																					<g>
																						<defs>
																							
																								<line id="SVGID_00000145757280090176173780000014557443840656767926_" x1="0" y1="329.6" x2="134.9" y2="330.6"/>
																						</defs>
																						<clipPath id="SVGID_00000011729891725473325880000015526041113759389608_">
																							<use xlink:href="#SVGID_00000145757280090176173780000014557443840656767926_"  style="overflow:visible;"/>
																						</clipPath>
																						<g style="clip-path:url(#SVGID_00000011729891725473325880000015526041113759389608_);">
																							<path class="st12" d="M86.3,71.9l0.1-14c0-1.1-0.9-2-2-2h-0.5c-0.3,0-0.5,0.2-0.5,0.5s0.2,0.5,0.5,0.5h0.5
																								c0.6,0,1,0.5,1,1l-0.1,14c0,0.5-0.4,1-1,1l-14-0.1c-0.6,0-1-0.5-1-1v-0.5c0-0.3-0.2-0.5-0.5-0.5
																								s-0.5,0.2-0.5,0.5v0.5c0,1.1,0.9,2,2,2l14,0.1C85.3,73.9,86.2,73,86.3,71.9 M68.4,56.2l4.6,3.1l-2.3,1.5
																								c-0.2,0.1-0.3,0.2-0.3,0.5c0,0.1,0.1,0.3,0.1,0.4l1.5,1.6l-3.7,2.2L68.4,56.2L68.4,56.2L68.4,56.2z M68,66.7
																								L68,66.7C68,66.7,68,66.7,68,66.7l5-3l0,0c0.2-0.1,0.3-0.2,0.3-0.5c0-0.1-0.1-0.3-0.1-0.4l-1.6-1.6l2.4-1.6
																								c0.2-0.1,0.3-0.2,0.3-0.5c0-0.2-0.1-0.3-0.2-0.4l0,0l-6-4.1l0,0c-0.1,0-0.2-0.1-0.3-0.1
																								c-0.3,0-0.5,0.2-0.5,0.5l-0.1,11c0,0.3,0.2,0.5,0.5,0.5C67.9,66.8,68,66.8,68,66.7L68,66.7L68,66.7z
																								 M78.4,56.8c0,0.5-0.4,1-1,1s-1-0.5-1-1s0.4-1,1-1S78.4,56.3,78.4,56.8 M75.4,56.8c0,1.1,0.9,2,2,2
																								s2-0.9,2-2s-0.9-2-2-2S75.4,55.7,75.4,56.8 M66.3,68.8c-0.6,0-1-0.5-1-1l0.1-14c0-0.5,0.4-1,1-1l14,0.1
																								c0.6,0,1,0.5,1,1l-0.1,14c0,0.5-0.4,1-1,1L66.3,68.8L66.3,68.8z M82.3,67.9l0.1-14c0-1.1-0.9-2-2-2l-14-0.1
																								c-1.1,0-2,0.9-2,2l-0.1,14c0,1.1,0.9,2,2,2l14,0.1C81.4,69.9,82.3,69,82.3,67.9"/>
																							<g>
																								<defs>
																									
																										<line id="SVGID_00000164515164715441669940000003268046166963489173_" x1="0" y1="329.6" x2="134.9" y2="330.6"/>
																								</defs>
																								<clipPath id="SVGID_00000111889823164774124280000005925760424717471634_">
																									
																										<use xlink:href="#SVGID_00000164515164715441669940000003268046166963489173_"  style="overflow:visible;"/>
																								</clipPath>
																								<g style="clip-path:url(#SVGID_00000111889823164774124280000005925760424717471634_);">
																									<g>
																										<defs>
																											
																												<line id="SVGID_00000080894391579352551360000001432404004828838550_" x1="0" y1="329.6" x2="134.9" y2="330.6"/>
																										</defs>
																										<clipPath id="SVGID_00000145052096286564327920000007706304997630677937_">
																											
																												<use xlink:href="#SVGID_00000080894391579352551360000001432404004828838550_"  style="overflow:visible;"/>
																										</clipPath>
																										<g style="clip-path:url(#SVGID_00000145052096286564327920000007706304997630677937_);">
																											<g>
																												<defs>
																													
																														<line id="SVGID_00000129180640320775813700000005547839491882279810_" x1="0" y1="329.6" x2="134.9" y2="330.6"/>
																												</defs>
																												<clipPath id="SVGID_00000150805505251078812670000010893289670304013703_">
																													
																														<use xlink:href="#SVGID_00000129180640320775813700000005547839491882279810_"  style="overflow:visible;"/>
																												</clipPath>
																												<g style="clip-path:url(#SVGID_00000150805505251078812670000010893289670304013703_);">
																													<path class="st16" d="M75.2,263.5l0-3h1c0.6,0,1-0.4,1-1v-2c0-0.5-0.4-1-1-1h-1l0-6h1c0.6,0,1-0.4,1-1
																														v-2c0-0.5-0.4-1-1-1h-1l0-3l5,0l-0.2,20L75.2,263.5L75.2,263.5L75.2,263.5z"/>
																													<polygon class="st16" points="76.2,257.5 76.2,259.5 73.2,259.5 73.2,257.5 76.2,257.5 
																																																											"/>
																													<polygon class="st16" points="76.3,247.6 76.3,249.6 73.3,249.5 73.3,247.5 76.3,247.6 
																																																											"/>
																													<path class="st16" d="M66.2,262.5l0.1-18l8,0.1v2h-1c-0.6,0-1,0.4-1,1v2c0,0.5,0.4,1,1,1h1l0,6h-1
																														c-0.6,0-1,0.4-1,1v2c0,0.5,0.4,1,1,1h1l0,2L66.2,262.5L66.2,262.5L66.2,262.5z"/>
																													<path class="st16" d="M82.2,251.6l0,4c0,0.5-0.5,1-1,1l0-6C81.8,250.6,82.2,251,82.2,251.6"/>
																													<path class="st12" d="M81.2,263.6l0-6c1.1,0,2-0.9,2-2l0-4c0-1.1-0.9-2-2-2l0-6c0-0.5-0.4-1-1-1l-5,0
																														c-0.6,0-1,0.4-1,1l-8-0.1c-0.6,0-1,0.4-1,1l-0.1,18c0,0.5,0.4,1,1,1l8,0.1c0,0.5,0.4,1,1,1l5,0
																														C80.7,264.6,81.1,264.1,81.2,263.6"/>
																												</g>
																											</g>
																										</g>
																									</g>
																								</g>
																							</g>
																						</g>
																					</g>
																				</g>
																			</g>
																		</g>
																	</g>
																</g>
															</g>
														</g>
													</g>
												</g>
											</g>
										</g>
									</g>
								</g>
							</g>
							<polyline class="st16" points="140.1,-379.2 5.2,-380.2 5.2,-380.2 0,329.6 134.9,330.6 							"/>
						</g>
					</g>
				</g>
			</g>
			<polyline class="st16" points="140.1,-379.2 5.2,-380.2 5.2,-380.2 0,329.6 134.9,330.6 			"/>
		</g>
	</g>
	<g>
		<g>
			<path class="st17" d="M95.2,215.7H52.8c-3.6,0-6.5,2.9-6.5,6.5v21.6h55.6v-21.6C101.8,218.7,98.8,215.7,95.2,215.7L95.2,215.7z"
				/>
			<path class="st18" d="M46.2,243.9v8.3c0,2.3,1.9,4.2,4.2,4.2h47.1c2.3,0,4.2-1.9,4.2-4.2v-8.3H46.2L46.2,243.9z"/>
			<circle class="st19" cx="74" cy="250.1" r="1.8"/>
			<rect x="68.3" y="256.4" class="st20" width="11.3" height="4.2"/>
			<path class="st18" d="M61.3,260.5h25.4c0.9,0,1.7,0.7,1.7,1.7v0c0,0.9-0.7,1.7-1.7,1.7H61.3c-0.9,0-1.7-0.7-1.7-1.7v0
				C59.6,261.3,60.4,260.5,61.3,260.5z"/>
		</g>
		<g>
			<path class="st18" d="M78.5,267.5c0,2.1,1.7,3.8,3.8,3.8h17.6c2.1,0,3.8-1.7,3.8-3.8v-2.2H78.5L78.5,267.5L78.5,267.5z"/>
			<path class="st18" d="M99.9,233.9H82.2c-2.1,0-3.7,1.7-3.8,3.7h25.1C103.6,235.5,101.9,233.9,99.9,233.9L99.9,233.9L99.9,233.9z"
				/>
			<path class="st17" d="M103.6,237.6H78.5v27.7h25.1L103.6,237.6L103.6,237.6L103.6,237.6z"/>
		</g>
		<g>
			<path class="st20" d="M47.4,271.2h7.3c2,0,3.7-1.6,3.8-3.7H43.6C43.7,269.6,45.3,271.2,47.4,271.2z"/>
			<path class="st20" d="M54.7,243.8h-7.3c-2,0-3.7,1.6-3.8,3.7h14.8C58.4,245.4,56.7,243.8,54.7,243.8L54.7,243.8L54.7,243.8z"/>
			<path class="st17" d="M58.4,247.5L58.4,247.5l-14.8-0.1v20.1h14.8V247.5L58.4,247.5z"/>
		</g>
	</g>
	<g>
		<path class="st17" d="M99.1,33.2H53.2c-3.9,0-7.1,3.2-7.1,7.1v23.4h60V40.3C106.2,36.4,103,33.2,99.1,33.2z"/>
		<path class="st18" d="M46.2,63.6v9c0,2.5,2,4.5,4.5,4.5h50.9c2.5,0,4.6-2,4.6-4.5v-9H46.2z"/>
		<circle class="st19" cx="76.2" cy="70.3" r="2"/>
		<rect x="70" y="77.1" class="st20" width="12.3" height="4.5"/>
		<path class="st18" d="M62.5,81.6h27.4c1,0,1.8,0.8,1.8,1.8l0,0c0,1-0.8,1.8-1.8,1.8H62.4c-1,0-1.8-0.8-1.8-1.8l0,0
			C60.7,82.4,61.5,81.6,62.5,81.6L62.5,81.6z"/>
		<g>
			<path class="st21" d="M71.9,56.4c-0.4,0-0.9-0.2-1.2-0.5L64.7,50c-0.7-0.7-0.7-1.8,0-2.5l5.9-5.9c0.7-0.7,1.8-0.7,2.5,0
				s0.7,1.8,0,2.5l-4.7,4.6l4.7,4.6c0.7,0.7,0.7,1.8,0,2.5C72.8,56.3,72.3,56.4,71.9,56.4L71.9,56.4z"/>
			<path class="st21" d="M80.5,41.1c0.4,0,0.9,0.2,1.2,0.5l5.9,5.9c0.7,0.7,0.7,1.8,0,2.5l-5.9,5.9c-0.7,0.7-1.8,0.7-2.5,0
				s-0.7-1.8,0-2.5l4.7-4.6l-4.7-4.6c-0.7-0.7-0.7-1.8,0-2.5C79.6,41.3,80,41.2,80.5,41.1L80.5,41.1z"/>
		</g>
	</g>
	<g class="st22">
		<path class="st17" d="M63.4,280.4c-0.1,0.2-0.2,0.3-0.4,0.4c-0.2,0.1-0.4,0.1-0.6,0.1h-0.5v1.1h-0.8v-3.2h1.2c0.3,0,0.5,0,0.6,0.1
			c0.2,0.1,0.3,0.2,0.4,0.4c0.1,0.2,0.1,0.3,0.1,0.5C63.5,280.1,63.5,280.3,63.4,280.4z M62.6,280.2c0.1-0.1,0.1-0.2,0.1-0.3
			s0-0.2-0.1-0.3c-0.1-0.1-0.2-0.1-0.3-0.1h-0.4v0.8h0.4C62.5,280.3,62.6,280.3,62.6,280.2z"/>
		<path class="st17" d="M64.7,281.5h1v0.6h-1.8v-3.2h0.8V281.5z"/>
		<path class="st17" d="M68,281.5h-1.2l-0.2,0.6h-0.8l1.1-3.2h0.9l1.1,3.2h-0.8L68,281.5z M67.8,280.9l-0.4-1.2l-0.4,1.2H67.8z"/>
		<path class="st17" d="M71.7,278.9v0.6h-0.8v2.5h-0.8v-2.5h-0.8v-0.6H71.7z"/>
		<path class="st17" d="M74,281.5h-1.2l-0.2,0.6h-0.8l1.1-3.2h0.9l1.1,3.2h-0.8L74,281.5z M73.8,280.9l-0.4-1.2l-0.4,1.2H73.8z"/>
		<path class="st17" d="M77.4,278.9v0.6h-1.3v0.7h1v0.6h-1v1.3h-0.8v-3.2H77.4z"/>
		<path class="st17" d="M78.5,281.9c-0.2-0.1-0.4-0.3-0.6-0.6c-0.1-0.2-0.2-0.5-0.2-0.8c0-0.3,0.1-0.6,0.2-0.8s0.3-0.4,0.6-0.6
			s0.5-0.2,0.8-0.2s0.6,0.1,0.8,0.2c0.2,0.1,0.4,0.3,0.6,0.6s0.2,0.5,0.2,0.8c0,0.3-0.1,0.6-0.2,0.8c-0.1,0.2-0.3,0.4-0.6,0.6
			c-0.2,0.1-0.5,0.2-0.8,0.2S78.8,282.1,78.5,281.9z M79.9,281.2c0.2-0.2,0.2-0.4,0.2-0.7c0-0.3-0.1-0.5-0.2-0.7
			c-0.2-0.2-0.4-0.2-0.6-0.2c-0.3,0-0.5,0.1-0.6,0.2s-0.2,0.4-0.2,0.7c0,0.3,0.1,0.5,0.2,0.7c0.2,0.2,0.4,0.2,0.6,0.2
			C79.6,281.4,79.8,281.3,79.9,281.2z"/>
		<path class="st17" d="M83,282.1l-0.7-1.2h-0.2v1.2h-0.8v-3.2h1.3c0.2,0,0.5,0,0.6,0.1c0.2,0.1,0.3,0.2,0.4,0.4s0.1,0.3,0.1,0.5
			c0,0.2-0.1,0.4-0.2,0.6c-0.1,0.2-0.3,0.3-0.5,0.4l0.7,1.3H83z M82.1,280.4h0.5c0.1,0,0.2,0,0.3-0.1c0.1-0.1,0.1-0.2,0.1-0.3
			c0-0.1,0-0.2-0.1-0.3c-0.1-0.1-0.2-0.1-0.3-0.1h-0.5V280.4z"/>
		<path class="st17" d="M87.9,278.9v3.2h-0.8v-1.9l-0.7,1.9h-0.6l-0.7-1.9v1.9h-0.8v-3.2h0.9l0.9,2.2l0.9-2.2H87.9z"/>
		<path class="st17" d="M90.4,281.5h-1.2l-0.2,0.6h-0.8l1.1-3.2h0.9l1.1,3.2h-0.8L90.4,281.5z M90.2,280.9l-0.4-1.2l-0.4,1.2H90.2z"
			/>
	</g>
	<g class="st22">
		<path class="st17" d="M61.1,91.4V92h-0.8v2.5h-0.8V92h-0.8v-0.6H61.1z"/>
		<path class="st17" d="M62.3,92v0.6h1v0.6h-1v0.7h1.2v0.6h-1.9v-3.2h1.9V92H62.3z"/>
		<path class="st17" d="M64,92.1c0.1-0.2,0.3-0.4,0.6-0.6c0.2-0.1,0.5-0.2,0.8-0.2c0.4,0,0.7,0.1,1,0.3c0.3,0.2,0.4,0.5,0.5,0.8
			h-0.8c-0.1-0.1-0.2-0.2-0.3-0.3c-0.1-0.1-0.2-0.1-0.4-0.1c-0.2,0-0.4,0.1-0.6,0.2s-0.2,0.4-0.2,0.7s0.1,0.5,0.2,0.7
			s0.3,0.2,0.6,0.2c0.1,0,0.3,0,0.4-0.1c0.1-0.1,0.2-0.2,0.3-0.3h0.8c-0.1,0.3-0.3,0.6-0.5,0.8c-0.3,0.2-0.6,0.3-1,0.3
			c-0.3,0-0.6-0.1-0.8-0.2c-0.2-0.1-0.4-0.3-0.6-0.6c-0.1-0.2-0.2-0.5-0.2-0.8C63.8,92.7,63.9,92.4,64,92.1z"/>
		<path class="st17" d="M70.2,94.5h-0.8l-1.3-1.9v1.9h-0.8v-3.2h0.8l1.3,2v-2h0.8V94.5z"/>
		<path class="st17" d="M71.4,94.4c-0.2-0.1-0.4-0.3-0.6-0.6c-0.1-0.2-0.2-0.5-0.2-0.8c0-0.3,0.1-0.6,0.2-0.8s0.3-0.4,0.6-0.6
			c0.2-0.1,0.5-0.2,0.8-0.2s0.6,0.1,0.8,0.2c0.2,0.1,0.4,0.3,0.6,0.6s0.2,0.5,0.2,0.8c0,0.3-0.1,0.6-0.2,0.8
			c-0.1,0.2-0.3,0.4-0.6,0.6c-0.2,0.1-0.5,0.2-0.8,0.2S71.7,94.5,71.4,94.4z M72.9,93.6c0.2-0.2,0.2-0.4,0.2-0.7
			c0-0.3-0.1-0.5-0.2-0.7c-0.2-0.2-0.4-0.2-0.6-0.2c-0.3,0-0.5,0.1-0.6,0.2c-0.2,0.2-0.2,0.4-0.2,0.7c0,0.3,0.1,0.5,0.2,0.7
			c0.2,0.2,0.4,0.2,0.6,0.2C72.5,93.9,72.7,93.8,72.9,93.6z"/>
		<path class="st17" d="M75.1,94h1v0.6h-1.8v-3.2h0.8V94z"/>
		<path class="st17" d="M77.1,94.4c-0.2-0.1-0.4-0.3-0.6-0.6c-0.1-0.2-0.2-0.5-0.2-0.8c0-0.3,0.1-0.6,0.2-0.8s0.3-0.4,0.6-0.6
			c0.2-0.1,0.5-0.2,0.8-0.2s0.6,0.1,0.8,0.2c0.2,0.1,0.4,0.3,0.6,0.6s0.2,0.5,0.2,0.8c0,0.3-0.1,0.6-0.2,0.8
			c-0.1,0.2-0.3,0.4-0.6,0.6c-0.2,0.1-0.5,0.2-0.8,0.2S77.4,94.5,77.1,94.4z M78.5,93.6c0.2-0.2,0.2-0.4,0.2-0.7
			c0-0.3-0.1-0.5-0.2-0.7c-0.2-0.2-0.4-0.2-0.6-0.2c-0.3,0-0.5,0.1-0.6,0.2c-0.2,0.2-0.2,0.4-0.2,0.7c0,0.3,0.1,0.5,0.2,0.7
			c0.2,0.2,0.4,0.2,0.6,0.2C78.2,93.9,78.4,93.8,78.5,93.6z"/>
		<path class="st17" d="M82.1,92.4c-0.1-0.1-0.1-0.2-0.2-0.2s-0.2-0.1-0.4-0.1c-0.2,0-0.4,0.1-0.6,0.2c-0.2,0.2-0.2,0.4-0.2,0.7
			c0,0.3,0.1,0.5,0.2,0.7c0.2,0.2,0.4,0.2,0.7,0.2c0.2,0,0.3,0,0.5-0.1c0.1-0.1,0.2-0.2,0.3-0.4h-1v-0.6H83v0.7
			c-0.1,0.2-0.2,0.4-0.3,0.5s-0.3,0.3-0.5,0.4c-0.2,0.1-0.4,0.2-0.7,0.2c-0.3,0-0.6-0.1-0.8-0.2c-0.2-0.1-0.4-0.3-0.6-0.6
			c-0.1-0.2-0.2-0.5-0.2-0.8c0-0.3,0.1-0.6,0.2-0.8c0.1-0.2,0.3-0.4,0.6-0.6s0.5-0.2,0.8-0.2c0.4,0,0.7,0.1,1,0.3
			c0.3,0.2,0.4,0.4,0.5,0.8H82.1z"/>
		<path class="st17" d="M84.3,90.8l-1.1,0.5v-0.5l1.1-0.5V90.8z M84.2,91.4v3.2h-0.8v-3.2H84.2z"/>
		<path class="st17" d="M86.7,94h-1.2l-0.2,0.6h-0.8l1.1-3.2h0.9l1.1,3.2h-0.8L86.7,94z M86.5,93.4l-0.4-1.2l-0.4,1.2H86.5z"/>
		<path class="st17" d="M91.1,91.6c0.2,0.1,0.4,0.3,0.6,0.6c0.1,0.2,0.2,0.5,0.2,0.8c0,0.3-0.1,0.6-0.2,0.8
			c-0.1,0.2-0.3,0.4-0.6,0.6c-0.3,0.1-0.5,0.2-0.9,0.2H89v-3.2h1.2C90.5,91.4,90.8,91.5,91.1,91.6z M90.8,93.6
			c0.2-0.2,0.2-0.4,0.2-0.7s-0.1-0.5-0.2-0.7c-0.2-0.2-0.4-0.2-0.7-0.2h-0.4v1.8h0.4C90.4,93.9,90.7,93.8,90.8,93.6z"/>
		<path class="st17" d="M93.1,92v0.6h1v0.6h-1v0.7h1.2v0.6h-1.9v-3.2h1.9V92H93.1z"/>
	</g>
	<g class="st22">
		<path class="st17" d="M58.4,99.4h1v0.6h-1.8v-3.2h0.8V99.4z"/>
		<path class="st17" d="M61.8,99.4h-1.2l-0.2,0.6h-0.8l1.1-3.2h0.9l1.1,3.2H62L61.8,99.4z M61.6,98.8l-0.4-1.2l-0.4,1.2H61.6z"/>
		<path class="st17" d="M64.9,96.8v3.2h-0.8v-3.2H64.9z"/>
		<path class="st17" d="M68.2,99.9h-0.8L66.2,98v1.9h-0.8v-3.2h0.8l1.3,2v-2h0.8V99.9z"/>
		<path class="st17" d="M70.9,96.8v0.6h-1.3v0.7h1v0.6h-1v1.3h-0.8v-3.2H70.9z"/>
		<path class="st17" d="M71.9,99.8c-0.2-0.1-0.4-0.3-0.6-0.6s-0.2-0.5-0.2-0.8c0-0.3,0.1-0.6,0.2-0.8s0.3-0.4,0.6-0.6
			c0.2-0.1,0.5-0.2,0.8-0.2s0.6,0.1,0.8,0.2c0.2,0.1,0.4,0.3,0.6,0.6s0.2,0.5,0.2,0.8c0,0.3-0.1,0.6-0.2,0.8
			c-0.1,0.2-0.3,0.4-0.6,0.6S73,100,72.8,100S72.2,99.9,71.9,99.8z M73.4,99c0.2-0.2,0.2-0.4,0.2-0.7s-0.1-0.5-0.2-0.7
			c-0.2-0.2-0.4-0.2-0.6-0.2c-0.3,0-0.5,0.1-0.6,0.2c-0.2,0.2-0.2,0.4-0.2,0.7c0,0.3,0.1,0.5,0.2,0.7c0.2,0.2,0.4,0.2,0.6,0.2
			C73,99.3,73.2,99.2,73.4,99z"/>
		<path class="st17" d="M76.4,99.9l-0.7-1.2h-0.2v1.2h-0.8v-3.2h1.3c0.2,0,0.5,0,0.6,0.1c0.2,0.1,0.3,0.2,0.4,0.4
			c0.1,0.2,0.1,0.3,0.1,0.5c0,0.2-0.1,0.4-0.2,0.6c-0.1,0.2-0.3,0.3-0.5,0.3l0.7,1.3H76.4z M75.6,98.2H76c0.1,0,0.2,0,0.3-0.1
			c0.1-0.1,0.1-0.2,0.1-0.3c0-0.1,0-0.2-0.1-0.3c-0.1-0.1-0.2-0.1-0.3-0.1h-0.5V98.2z"/>
		<path class="st17" d="M81.3,96.8v3.2h-0.8v-1.9l-0.7,1.9h-0.6L78.5,98v1.9h-0.8v-3.2h0.9l0.9,2.2l0.9-2.2H81.3z"/>
		<path class="st17" d="M83.8,99.4h-1.2l-0.2,0.6h-0.8l1.1-3.2h0.9l1.1,3.2H84L83.8,99.4z M83.6,98.8l-0.4-1.2l-0.4,1.2H83.6z"/>
		<path class="st17" d="M85.2,97.5c0.1-0.2,0.3-0.4,0.6-0.6c0.2-0.1,0.5-0.2,0.8-0.2c0.4,0,0.7,0.1,1,0.3c0.3,0.2,0.4,0.5,0.5,0.8
			h-0.8c-0.1-0.1-0.2-0.2-0.3-0.3c-0.1-0.1-0.2-0.1-0.4-0.1c-0.2,0-0.4,0.1-0.6,0.2c-0.1,0.2-0.2,0.4-0.2,0.7c0,0.3,0.1,0.5,0.2,0.7
			c0.1,0.2,0.3,0.2,0.6,0.2c0.1,0,0.3,0,0.4-0.1c0.1-0.1,0.2-0.2,0.3-0.3h0.8c-0.1,0.3-0.3,0.6-0.5,0.8c-0.3,0.2-0.6,0.3-1,0.3
			c-0.3,0-0.6-0.1-0.8-0.2c-0.2-0.1-0.4-0.3-0.6-0.6S85,98.7,85,98.4S85.1,97.8,85.2,97.5z"/>
		<path class="st17" d="M89.4,96.8v3.2h-0.8v-3.2H89.4z"/>
		<path class="st17" d="M90.6,99.8c-0.2-0.1-0.4-0.3-0.6-0.6s-0.2-0.5-0.2-0.8c0-0.3,0.1-0.6,0.2-0.8s0.3-0.4,0.6-0.6
			c0.2-0.1,0.5-0.2,0.8-0.2s0.6,0.1,0.8,0.2c0.2,0.1,0.4,0.3,0.6,0.6s0.2,0.5,0.2,0.8c0,0.3-0.1,0.6-0.2,0.8
			c-0.1,0.2-0.3,0.4-0.6,0.6s-0.5,0.2-0.8,0.2S90.9,99.9,90.6,99.8z M92,99c0.2-0.2,0.2-0.4,0.2-0.7s-0.1-0.5-0.2-0.7
			c-0.2-0.2-0.4-0.2-0.6-0.2c-0.3,0-0.5,0.1-0.6,0.2c-0.2,0.2-0.2,0.4-0.2,0.7c0,0.3,0.1,0.5,0.2,0.7c0.2,0.2,0.4,0.2,0.6,0.2
			C91.7,99.3,91.9,99.2,92,99z M91.9,96.2l-1.1,0.5v-0.5l1.1-0.5V96.2z"/>
		<path class="st17" d="M96.3,99.9h-0.8L94.2,98v1.9h-0.8v-3.2h0.8l1.3,2v-2h0.8V99.9z"/>
	</g>
</g>
<line class="st16" x1="0" y1="329.6" x2="134.9" y2="330.6"/>
</svg>
