<?xml version="1.0" encoding="utf-8"?>
<!-- Generator: Adobe Illustrator 27.0.0, SVG Export Plug-In . SVG Version: 6.00 Build 0)  -->
<svg version="1.1" xmlns="http://www.w3.org/2000/svg" xmlns:xlink="http://www.w3.org/1999/xlink" x="0px" y="0px"
	 viewBox="0 0 140.1 314" style="enable-background:new 0 0 140.1 314;" xml:space="preserve">
<style type="text/css">
	.st0{fill-rule:evenodd;clip-rule:evenodd;fill:#195C9B;}
	.st1{clip-path:url(#SVGID_00000164481275791973853740000009508459777044424611_);}
	.st2{clip-path:url(#SVGID_00000047052858103176149670000000585817802173567365_);}
	.st3{clip-path:url(#SVGID_00000103966455246673617160000002579674522349128579_);}
	.st4{fill-rule:evenodd;clip-rule:evenodd;fill:#F4F8FC;}
	.st5{clip-path:url(#SVGID_00000037660114389015328710000003794788786612168603_);}
	.st6{clip-path:url(#SVGID_00000095312826560022919250000016348834615836761759_);}
	.st7{clip-path:url(#SVGID_00000111169656583294781930000011550388990370355883_);}
	.st8{clip-path:url(#SVGID_00000072240657660237629920000006186112049999543971_);}
	.st9{clip-path:url(#SVGID_00000177458347056946723840000013709369976739561634_);}
	.st10{clip-path:url(#SVGID_00000119812954198358635600000005858573717541402510_);}
	.st11{clip-path:url(#SVGID_00000011716488163940798420000006094529803857592508_);}
	.st12{fill-rule:evenodd;clip-rule:evenodd;fill:#FFFFFF;}
	.st13{clip-path:url(#SVGID_00000051380895911720714330000000259491516222892728_);}
	.st14{fill:none;}
	.st15{fill:#E9E8EA;}
	.st16{fill:#25A2DA;}
	.st17{fill:#E4BE28;}
	.st18{fill:#FFFFFF;}
	.st19{fill:#195C9B;}
	.st20{enable-background:new    ;}
</style>
<g id="Capa_2">
</g>
<g id="Capa_2_00000057849394433579264820000012848219056741161349_">
	<g>
		<g>
			<g>
				<g>
					<path class="st0" d="M23.2,213.8l50.4,0.4l0.8-115.7l-50.4-0.4C57.8,145.1,57.7,167.3,23.2,213.8
						C23.2,213.8,23.2,213.8,23.2,213.8z"/>
					<path class="st0" d="M123.8,214.5c-33.8-47-33.6-69.2,0.8-115.7l-50.2-0.4l-0.8,115.7L123.8,214.5L123.8,214.5z"/>
					<g>
						<defs>
							<polyline id="SVGID_1_" points="137.4,-9.7 2.5,-10.7 2.5,-10.7 0,330.3 134.9,331.3 							"/>
						</defs>
						<clipPath id="SVGID_00000089565572863793300910000008577903103638194597_">
							<use xlink:href="#SVGID_1_"  style="overflow:visible;"/>
						</clipPath>
						<g style="clip-path:url(#SVGID_00000089565572863793300910000008577903103638194597_);">
							<path class="st0" d="M73.6,188.8c34.3,0.2,61.8,28.3,61.6,62.6s-28.2,61.9-62.5,61.7s-61.8-28.3-61.6-62.6
								C11.4,216.1,39.4,188.5,73.6,188.8L73.6,188.8z"/>
							<path class="st0" d="M75,0.6c34.3,0.2,61.8,28.2,61.6,62.5s-28.2,61.8-62.5,61.6S12.3,96.4,12.5,62.2S40.8,0.3,75,0.6L75,0.6
								L75,0.6z"/>
							<g>
								<defs>
									<polyline id="SVGID_00000016064688689205402270000018337119402231898786_" points="140.1,-378.5 5.2,-379.5 5.2,-379.5 
										0,330.3 134.9,331.3 									"/>
								</defs>
								<clipPath id="SVGID_00000158740936534839048520000011618943012473500847_">
									<use xlink:href="#SVGID_00000016064688689205402270000018337119402231898786_"  style="overflow:visible;"/>
								</clipPath>
								<g style="clip-path:url(#SVGID_00000158740936534839048520000011618943012473500847_);">
									<g>
										<defs>
											<polyline id="SVGID_00000093174098201393809490000004372166528096497538_" points="140.1,-378.5 5.2,-379.5 5.2,-379.5 
												0,330.3 134.9,331.3 											"/>
										</defs>
										<clipPath id="SVGID_00000142880053071709721300000015041469200273348748_">
											<use xlink:href="#SVGID_00000093174098201393809490000004372166528096497538_"  style="overflow:visible;"/>
										</clipPath>
										<g style="clip-path:url(#SVGID_00000142880053071709721300000015041469200273348748_);">
											<path class="st4" d="M73.6,197.6c29.6,0.2,53.3,24.3,53.1,53.8s-24.3,53.2-53.9,53c-29.6-0.2-53.3-24.3-53.1-53.8
												C19.9,221.2,44,197.4,73.6,197.6L73.6,197.6z"/>
											<g>
												<defs>
													<polyline id="SVGID_00000160176889729594034290000017799593444795331201_" points="140.1,-378.5 5.2,-379.5 
														5.2,-379.5 0,330.3 134.9,331.3 													"/>
												</defs>
												<clipPath id="SVGID_00000070821284554522005800000016847989282549831053_">
													<use xlink:href="#SVGID_00000160176889729594034290000017799593444795331201_"  style="overflow:visible;"/>
												</clipPath>
												<g style="clip-path:url(#SVGID_00000070821284554522005800000016847989282549831053_);">
													<path class="st4" d="M75,9c29.6,0.2,53.3,24.3,53.1,53.8c-0.2,29.5-24.3,53.2-53.9,53C44.6,115.6,20.8,91.5,21,62
														C21.3,32.5,45.4,8.8,75,9C75,9,75,9,75,9z"/>
													<g>
														<defs>
															<line id="SVGID_00000041993258366621136090000012075893896870843041_" x1="0" y1="330.3" x2="134.9" y2="331.3"/>
														</defs>
														<clipPath id="SVGID_00000145761294446584402880000015265681419064538007_">
															<use xlink:href="#SVGID_00000041993258366621136090000012075893896870843041_"  style="overflow:visible;"/>
														</clipPath>
														<g style="clip-path:url(#SVGID_00000145761294446584402880000015265681419064538007_);">
															<g>
																<defs>
																	<line id="SVGID_00000023998435423728318970000018138874186284747963_" x1="0" y1="330.3" x2="134.9" y2="331.3"/>
																</defs>
																<clipPath id="SVGID_00000023277658635883318240000006687090329543402917_">
																	<use xlink:href="#SVGID_00000023998435423728318970000018138874186284747963_"  style="overflow:visible;"/>
																</clipPath>
																<g style="clip-path:url(#SVGID_00000023277658635883318240000006687090329543402917_);">
																	<g>
																		<defs>
																			
																				<line id="SVGID_00000162333832023145507950000015935905574171809411_" x1="0" y1="330.3" x2="134.9" y2="331.3"/>
																		</defs>
																		<clipPath id="SVGID_00000016782163274974776230000000065925513080490149_">
																			<use xlink:href="#SVGID_00000162333832023145507950000015935905574171809411_"  style="overflow:visible;"/>
																		</clipPath>
																		<g style="clip-path:url(#SVGID_00000016782163274974776230000000065925513080490149_);">
																			<g>
																				<defs>
																					
																						<line id="SVGID_00000116193530776264874760000003464861717082957192_" x1="0" y1="330.3" x2="134.9" y2="331.3"/>
																				</defs>
																				<clipPath id="SVGID_00000036225465414239854490000016276106149523985065_">
																					<use xlink:href="#SVGID_00000116193530776264874760000003464861717082957192_"  style="overflow:visible;"/>
																				</clipPath>
																				<g style="clip-path:url(#SVGID_00000036225465414239854490000016276106149523985065_);">
																					<g>
																						<defs>
																							
																								<line id="SVGID_00000064349751546287464470000013363213464464670595_" x1="0" y1="330.3" x2="134.9" y2="331.3"/>
																						</defs>
																						<clipPath id="SVGID_00000180345848142686836150000007364611572911432624_">
																							<use xlink:href="#SVGID_00000064349751546287464470000013363213464464670595_"  style="overflow:visible;"/>
																						</clipPath>
																						<g style="clip-path:url(#SVGID_00000180345848142686836150000007364611572911432624_);">
																							<g transform="translate(114.82 402.1) rotate(90.42) scale(.24)">
																								
																									<image style="overflow:visible;enable-background:new    ;" width="339" height="339" id="image" xlink:href="49302E25.png"  transform="matrix(-1.759268e-03 0.24 -0.24 -1.759268e-03 114.82 22.6137)">
																								</image>
																							</g>
																							<g>
																								<defs>
																									
																										<line id="SVGID_00000130634664627304278970000017119398386196211365_" x1="0" y1="330.3" x2="134.9" y2="331.3"/>
																								</defs>
																								<clipPath id="SVGID_00000176015190000758947750000015797762039406013884_">
																									
																										<use xlink:href="#SVGID_00000130634664627304278970000017119398386196211365_"  style="overflow:visible;"/>
																								</clipPath>
																								<g style="clip-path:url(#SVGID_00000176015190000758947750000015797762039406013884_);">
																									<path class="st12" d="M86.3,72.6l0.1-14c0-1.1-0.9-2-2-2h-0.5c-0.3,0-0.5,0.2-0.5,0.5s0.2,0.5,0.5,0.5h0.5
																										c0.6,0,1,0.5,1,1l-0.1,14c0,0.5-0.4,1-1,1l-14-0.1c-0.6,0-1-0.5-1-1V72c0-0.3-0.2-0.5-0.5-0.5
																										s-0.5,0.2-0.5,0.5v0.5c0,1.1,0.9,2,2,2l14,0.1C85.3,74.6,86.2,73.7,86.3,72.6 M68.4,56.9L73,60l-2.3,1.5
																										c-0.2,0.1-0.3,0.2-0.3,0.5c0,0.1,0.1,0.3,0.1,0.4l1.5,1.6l-3.7,2.2L68.4,56.9L68.4,56.9L68.4,56.9z
																										 M68,67.4L68,67.4C68,67.4,68,67.4,68,67.4l5-3l0,0c0.2-0.1,0.3-0.2,0.3-0.5c0-0.1-0.1-0.3-0.1-0.4
																										L71.7,62l2.4-1.6c0.2-0.1,0.3-0.2,0.3-0.5c0-0.2-0.1-0.3-0.2-0.4l0,0l-6-4.1l0,0c-0.1,0-0.2-0.1-0.3-0.1
																										c-0.3,0-0.5,0.2-0.5,0.5l-0.1,11c0,0.3,0.2,0.5,0.5,0.5C67.9,67.5,68,67.5,68,67.4L68,67.4L68,67.4z
																										 M78.4,57.5c0,0.5-0.4,1-1,1s-1-0.5-1-1s0.4-1,1-1S78.4,57,78.4,57.5 M75.4,57.5c0,1.1,0.9,2,2,2
																										s2-0.9,2-2s-0.9-2-2-2S75.4,56.4,75.4,57.5 M66.3,69.5c-0.6,0-1-0.5-1-1l0.1-14c0-0.5,0.4-1,1-1l14,0.1
																										c0.6,0,1,0.5,1,1l-0.1,14c0,0.5-0.4,1-1,1L66.3,69.5L66.3,69.5z M82.3,68.6l0.1-14c0-1.1-0.9-2-2-2
																										l-14-0.1c-1.1,0-2,0.9-2,2l-0.1,14c0,1.1,0.9,2,2,2l14,0.1C81.4,70.6,82.3,69.7,82.3,68.6"/>
																									<g>
																										<defs>
																											
																												<line id="SVGID_00000066491679538152674730000004702005921767642770_" x1="0" y1="330.3" x2="134.9" y2="331.3"/>
																										</defs>
																										<clipPath id="SVGID_00000070084934621274041560000013129858025937120424_">
																											
																												<use xlink:href="#SVGID_00000066491679538152674730000004702005921767642770_"  style="overflow:visible;"/>
																										</clipPath>
																										<g style="clip-path:url(#SVGID_00000070084934621274041560000013129858025937120424_);">
																											<g>
																												<defs>
																													
																														<line id="SVGID_00000074425295952324234180000013016365132249198981_" x1="0" y1="330.3" x2="134.9" y2="331.3"/>
																												</defs>
																												<clipPath id="SVGID_00000012473949659700586900000015407650495101989770_">
																													
																														<use xlink:href="#SVGID_00000074425295952324234180000013016365132249198981_"  style="overflow:visible;"/>
																												</clipPath>
																											</g>
																										</g>
																									</g>
																								</g>
																							</g>
																						</g>
																					</g>
																				</g>
																			</g>
																		</g>
																	</g>
																</g>
															</g>
														</g>
													</g>
												</g>
											</g>
											<polyline class="st14" points="140.1,-378.5 5.2,-379.5 5.2,-379.5 0,330.3 134.9,331.3 											"/>
										</g>
									</g>
								</g>
							</g>
							<polyline class="st14" points="140.1,-378.5 5.2,-379.5 5.2,-379.5 0,330.3 134.9,331.3 							"/>
						</g>
					</g>
				</g>
				<g>
					<path class="st15" d="M98,218.7H71.9c-5.2,0-10.3,0-15.5,0l0,0c-3.2,0-6.5,0-9.7,0c-2.3,0-4.1,1.8-4.1,4.1
						c0,14.4,0,28.8,0,43.1c0,2.3,1.7,4.1,4.1,4.1c3.2,0,6.5,0,9.7,0c0.2,0,0.4,0,0.6,0c13.7,0,27.4,0,41.1,0c2.9,0,4.6-1.6,4.6-4.5
						v-42.3C102.6,220.3,100.9,218.7,98,218.7L98,218.7z M94.2,223.2c1.3,0,2.4,1.1,2.4,2.3c0,1.2-1.1,2.2-2.4,2.2
						c-1.4,0-2.3-0.9-2.3-2.3C92,224.1,92.9,223.2,94.2,223.2L94.2,223.2z M87.1,223.2c1.3,0,2.5,1,2.5,2.2c0,1.2-1.2,2.4-2.4,2.4
						s-2.3-1-2.3-2.3C84.9,224.2,85.8,223.2,87.1,223.2L87.1,223.2z M56.4,218.9c0,0,0,0.1-0.1,0.2C56.3,219,56.3,219,56.4,218.9z
						 M96.5,262.6c0,1-0.4,1.3-1.2,1.3c-0.4,0-0.8,0-1.2,0c-13.3,0-26.6,0-40,0l0,0c-1.4,0-2.9,0-4.3,0c-0.9,0-1.2-0.2-1.2-1.2
						c0-8.3,0-16.6,0-24.9c0-0.5,0-0.9,0-1.4c0-1.1,0-2.2,0-3.3c0-0.8,0.3-1,1-1c1.5,0,2.9,0,4.4,0l0,0c13.6,0,27.3,0,40.9,0
						c1.6,0,1.7,0.1,1.7,1.6c0,0.9,0.2,1.8-0.2,2.7C96.5,245.2,96.5,253.9,96.5,262.6L96.5,262.6L96.5,262.6z"/>
					<path class="st16" d="M84.9,225.5c0-1.3,0.9-2.3,2.2-2.3c1.3,0,2.5,1,2.5,2.2c0,1.2-1.2,2.4-2.4,2.4
						C86,227.8,84.9,226.8,84.9,225.5L84.9,225.5z"/>
					<path class="st17" d="M94.2,227.7c-1.4,0-2.3-0.9-2.3-2.3c0-1.3,0.9-2.2,2.3-2.2c1.3,0,2.4,1.1,2.4,2.3
						C96.6,226.8,95.5,227.7,94.2,227.7L94.2,227.7z"/>
					<path class="st18" d="M96.5,236.6H54.1l-0.1-0.1c-1.8,0-3.6,0-5.4,0c0,0.5,0,0.9,0,1.4c0,8.3,0,16.6,0,24.9
						c0,1,0.3,1.2,1.2,1.2c1.4-0.1,2.9,0,4.3,0l0,0c13.3,0,26.6,0,40,0c0.4,0,0.8,0,1.2,0c0.8,0,1.2-0.4,1.2-1.3
						C96.5,253.9,96.5,245.2,96.5,236.6L96.5,236.6L96.5,236.6z"/>
					<path class="st19" d="M96.7,233.9c0-1.6-0.1-1.6-1.7-1.6c-13.6,0-27.3,0-40.9,0l0,0c-1.5,0-2.9,0-4.4,0c-0.8,0-1.1,0.2-1,1
						c0.1,1.1,0,2.2,0,3.3c1.8,0,3.6,0,5.4,0l0.1,0.1h42.4C96.9,235.7,96.7,234.8,96.7,233.9L96.7,233.9L96.7,233.9z"/>
					<rect x="55.2" y="243.3" class="st19" width="21.2" height="2.7"/>
					<rect x="55.2" y="248.9" class="st19" width="34.8" height="2.7"/>
					<rect x="55.2" y="254.4" class="st19" width="34.8" height="2.7"/>
				</g>
				<g>
					<path class="st19" d="M78.4,75c0-2.3,0-4.6,0-6.9c0-0.6,0.1-0.8,0.8-0.9c4.9-0.3,8.7-3.9,9.9-7.9c0.7-2.1,0.6-4.2,0.1-6.5
						c-0.9-4.1-5.4-7.9-9.3-8.2c-1.5-0.1-1.5-0.1-1.5-1.6c0-4.4,0-8.8,0-13.2c0-0.6,0-0.9,0.8-0.9c1.5,0,2.9,0.1,4.4,0
						c0.6,0,0.8,0.1,0.8,0.7c0,1.9,0,3.8-0.1,5.7c0,0.5,0.1,0.9,0.7,1c0.8,0.3,1.6,0.6,2.4,1c0.5,0.3,0.8,0.2,1.2-0.2
						c1.3-1.3,2.7-2.6,4-4c0.4-0.4,0.6-0.4,1,0c2.4,2.5,4.9,4.9,7.3,7.4c0.5,0.5,0.4,0.8-0.1,1.2c-1.3,1.2-2.6,2.5-3.9,3.8
						c-0.4,0.4-0.6,0.7-0.3,1.3c0.4,0.8,0.7,1.6,1,2.4c0.2,0.5,0.3,0.7,0.9,0.7c2,0,4,0,6,0c0.6,0,0.5,0.5,0.5,0.9c0,2.7,0,5.3,0,8
						c0,0.7,0,1.4,0,2c0,0.7-0.1,1-1,1c-1.8-0.1-3.6,0-5.3,0c-0.6,0-0.9,0.2-1.1,0.8c-0.3,0.9-0.6,1.8-1.1,2.6
						C96,66,96.3,66.4,96.9,67c1.3,1.2,2.5,2.5,3.7,3.7c0.4,0.4,0.4,0.7,0,1.1c-2.5,2.4-5,4.8-7.5,7.2c-0.3,0.3-0.6,0.4-1,0
						c-1.4-1.4-2.8-2.8-4.1-4.2c-0.3-0.3-0.6-0.3-0.9-0.2c-0.4,0.2-0.7,0.4-1.1,0.5c-0.7,0.2-1.7,0.2-2.1,0.8
						c-0.3,0.6-0.1,1.4-0.2,2.2c0,1.3-0.1,2.6-0.1,3.9c0,0.6-0.1,0.9-0.8,0.8c-1.2-0.1-2.5-0.1-3.7-0.1c-0.7,0-0.8-0.3-0.8-0.9
						C78.4,79.7,78.3,77.4,78.4,75L78.4,75L78.4,75z"/>
					<rect x="68.3" y="29.3" class="st19" width="7.7" height="7.7"/>
					<rect x="60.6" y="37" class="st19" width="7.7" height="7.7"/>
					<rect x="68.3" y="44.7" class="st16" width="7.7" height="7.7"/>
					<rect x="60.6" y="52.4" class="st19" width="7.7" height="7.7"/>
					<rect x="68.3" y="60" class="st19" width="7.7" height="7.7"/>
					<rect x="60.6" y="67.7" class="st19" width="7.7" height="7.7"/>
					<rect x="45.2" y="52.4" class="st19" width="7.7" height="7.7"/>
					<rect x="45.2" y="67.7" class="st16" width="7.7" height="7.7"/>
					<rect x="68.3" y="75.4" class="st19" width="7.7" height="7.7"/>
					<rect x="52.9" y="44.7" class="st16" width="7.7" height="7.7"/>
					<rect x="52.9" y="60" class="st16" width="7.7" height="7.7"/>
					<rect x="52.9" y="75.4" class="st19" width="7.7" height="7.7"/>
				</g>
			</g>
			<g class="st20">
				<path class="st19" d="M57.7,277.3h-1.2l-0.2,0.6h-0.8l1.1-3.2h0.9l1.1,3.2h-0.8L57.7,277.3z M57.5,276.7l-0.4-1.2l-0.4,1.2H57.5
					z"/>
				<path class="st19" d="M61.1,274.9c0.2,0.1,0.4,0.3,0.6,0.6c0.1,0.2,0.2,0.5,0.2,0.8c0,0.3-0.1,0.6-0.2,0.8
					c-0.1,0.2-0.3,0.4-0.6,0.6c-0.3,0.1-0.5,0.2-0.9,0.2h-1.2v-3.2h1.2C60.6,274.7,60.9,274.8,61.1,274.9z M60.9,277
					c0.2-0.2,0.2-0.4,0.2-0.7s-0.1-0.5-0.2-0.7c-0.2-0.2-0.4-0.2-0.7-0.2h-0.4v1.8h0.4C60.5,277.2,60.7,277.1,60.9,277z"/>
				<path class="st19" d="M64.3,277.3h-1.2l-0.2,0.6h-0.8l1.1-3.2h0.9l1.1,3.2h-0.8L64.3,277.3z M64.1,276.7l-0.4-1.2l-0.4,1.2H64.1
					z"/>
				<path class="st19" d="M68,276.3c-0.1,0.2-0.2,0.3-0.4,0.4c-0.2,0.1-0.4,0.1-0.6,0.1h-0.5v1.1h-0.8v-3.2h1.2c0.3,0,0.5,0,0.6,0.1
					s0.3,0.2,0.4,0.4c0.1,0.2,0.1,0.3,0.1,0.5C68.1,275.9,68,276.1,68,276.3z M67.2,276c0.1-0.1,0.1-0.2,0.1-0.3s0-0.2-0.1-0.3
					c-0.1-0.1-0.2-0.1-0.3-0.1h-0.4v0.8h0.4C67,276.1,67.1,276.1,67.2,276z"/>
				<path class="st19" d="M70.8,274.7v0.6h-0.8v2.5h-0.8v-2.5h-0.8v-0.6H70.8z"/>
				<path class="st19" d="M73.1,277.3h-1.2l-0.2,0.6h-0.8l1.1-3.2H73l1.1,3.2h-0.8L73.1,277.3z M72.9,276.7l-0.4-1.2l-0.4,1.2H72.9z
					"/>
				<path class="st19" d="M74.5,275.5c0.1-0.2,0.3-0.4,0.6-0.6c0.2-0.1,0.5-0.2,0.8-0.2c0.4,0,0.7,0.1,1,0.3
					c0.3,0.2,0.4,0.5,0.5,0.8h-0.8c-0.1-0.1-0.2-0.2-0.3-0.3c-0.1-0.1-0.2-0.1-0.4-0.1c-0.2,0-0.4,0.1-0.6,0.2
					c-0.1,0.2-0.2,0.4-0.2,0.7s0.1,0.5,0.2,0.7c0.1,0.2,0.3,0.2,0.6,0.2c0.1,0,0.3,0,0.4-0.1c0.1-0.1,0.2-0.2,0.3-0.3h0.8
					c-0.1,0.3-0.3,0.6-0.5,0.8c-0.3,0.2-0.6,0.3-1,0.3c-0.3,0-0.6-0.1-0.8-0.2c-0.2-0.1-0.4-0.3-0.6-0.6c-0.1-0.2-0.2-0.5-0.2-0.8
					C74.3,276,74.4,275.7,74.5,275.5z"/>
				<path class="st19" d="M78.7,274.7v3.2h-0.8v-3.2H78.7z"/>
				<path class="st19" d="M79.9,277.7c-0.2-0.1-0.4-0.3-0.6-0.6c-0.1-0.2-0.2-0.5-0.2-0.8c0-0.3,0.1-0.6,0.2-0.8s0.3-0.4,0.6-0.6
					c0.2-0.1,0.5-0.2,0.8-0.2s0.6,0.1,0.8,0.2c0.2,0.1,0.4,0.3,0.6,0.6s0.2,0.5,0.2,0.8c0,0.3-0.1,0.6-0.2,0.8
					c-0.1,0.2-0.3,0.4-0.6,0.6c-0.2,0.1-0.5,0.2-0.8,0.2S80.1,277.9,79.9,277.7z M81.3,277c0.2-0.2,0.2-0.4,0.2-0.7
					c0-0.3-0.1-0.5-0.2-0.7c-0.2-0.2-0.4-0.2-0.6-0.2c-0.3,0-0.5,0.1-0.6,0.2c-0.2,0.2-0.2,0.4-0.2,0.7c0,0.3,0.1,0.5,0.2,0.7
					c0.2,0.2,0.4,0.2,0.6,0.2C81,277.2,81.2,277.1,81.3,277z M81.2,274.1l-1.1,0.5V274l1.1-0.5V274.1z"/>
				<path class="st19" d="M85.6,277.9h-0.8l-1.3-1.9v1.9h-0.8v-3.2h0.8l1.3,2v-2h0.8V277.9z"/>
				<path class="st19" d="M89.1,274.9c0.2,0.1,0.4,0.3,0.6,0.6s0.2,0.5,0.2,0.8c0,0.3-0.1,0.6-0.2,0.8s-0.3,0.4-0.6,0.6
					c-0.2,0.1-0.5,0.2-0.9,0.2h-1.2v-3.2h1.2C88.6,274.7,88.9,274.8,89.1,274.9z M88.9,277c0.2-0.2,0.2-0.4,0.2-0.7
					s-0.1-0.5-0.2-0.7s-0.4-0.2-0.7-0.2h-0.4v1.8h0.4C88.5,277.2,88.7,277.1,88.9,277z"/>
				<path class="st19" d="M91.1,275.4v0.6h1v0.6h-1v0.7h1.2v0.6h-1.9v-3.2h1.9v0.6H91.1z"/>
			</g>
			<g class="st20">
				<path class="st19" d="M64.9,281.7c-0.1,0.2-0.2,0.3-0.4,0.4c-0.2,0.1-0.4,0.1-0.6,0.1h-0.5v1.1h-0.8v-3.2h1.2
					c0.3,0,0.5,0,0.6,0.1c0.2,0.1,0.3,0.2,0.4,0.4c0.1,0.2,0.1,0.3,0.1,0.5C65.1,281.3,65,281.5,64.9,281.7z M64.2,281.4
					c0.1-0.1,0.1-0.2,0.1-0.3s0-0.2-0.1-0.3c-0.1-0.1-0.2-0.1-0.3-0.1h-0.4v0.8h0.4C64,281.5,64.1,281.5,64.2,281.4z"/>
				<path class="st19" d="M67.1,283.3l-0.7-1.2h-0.2v1.2h-0.8v-3.2h1.3c0.2,0,0.5,0,0.6,0.1c0.2,0.1,0.3,0.2,0.4,0.4
					s0.1,0.3,0.1,0.5c0,0.2-0.1,0.4-0.2,0.6s-0.3,0.3-0.5,0.4l0.7,1.3H67.1z M66.2,281.6h0.5c0.1,0,0.2,0,0.3-0.1
					c0.1-0.1,0.1-0.2,0.1-0.3c0-0.1,0-0.2-0.1-0.3c-0.1-0.1-0.2-0.1-0.3-0.1h-0.5V281.6z"/>
				<path class="st19" d="M69.1,283.1c-0.2-0.1-0.4-0.3-0.6-0.6c-0.1-0.2-0.2-0.5-0.2-0.8c0-0.3,0.1-0.6,0.2-0.8s0.3-0.4,0.6-0.6
					c0.2-0.1,0.5-0.2,0.8-0.2s0.6,0.1,0.8,0.2s0.4,0.3,0.6,0.6s0.2,0.5,0.2,0.8c0,0.3-0.1,0.6-0.2,0.8c-0.1,0.2-0.3,0.4-0.6,0.6
					c-0.2,0.1-0.5,0.2-0.8,0.2S69.3,283.3,69.1,283.1z M70.5,282.4c0.2-0.2,0.2-0.4,0.2-0.7c0-0.3-0.1-0.5-0.2-0.7
					c-0.2-0.2-0.4-0.2-0.6-0.2c-0.3,0-0.5,0.1-0.6,0.2c-0.2,0.2-0.2,0.4-0.2,0.7c0,0.3,0.1,0.5,0.2,0.7c0.2,0.2,0.4,0.2,0.6,0.2
					C70.1,282.6,70.3,282.5,70.5,282.4z"/>
				<path class="st19" d="M72,280.9c0.1-0.2,0.3-0.4,0.6-0.6s0.5-0.2,0.8-0.2c0.4,0,0.7,0.1,1,0.3c0.3,0.2,0.4,0.5,0.5,0.8H74
					c-0.1-0.1-0.2-0.2-0.3-0.3c-0.1-0.1-0.2-0.1-0.4-0.1c-0.2,0-0.4,0.1-0.6,0.2c-0.1,0.2-0.2,0.4-0.2,0.7s0.1,0.5,0.2,0.7
					c0.1,0.2,0.3,0.2,0.6,0.2c0.1,0,0.3,0,0.4-0.1s0.2-0.2,0.3-0.3h0.8c-0.1,0.3-0.3,0.6-0.5,0.8s-0.6,0.3-1,0.3
					c-0.3,0-0.6-0.1-0.8-0.2c-0.2-0.1-0.4-0.3-0.6-0.6c-0.1-0.2-0.2-0.5-0.2-0.8C71.8,281.4,71.9,281.1,72,280.9z"/>
				<path class="st19" d="M76.1,280.8v0.6h1v0.6h-1v0.7h1.2v0.6h-1.9v-3.2h1.9v0.6H76.1z"/>
				<path class="st19" d="M78.3,283.2c-0.2-0.1-0.3-0.2-0.4-0.3c-0.1-0.1-0.2-0.3-0.2-0.5h0.8c0,0.1,0.1,0.2,0.1,0.3
					c0.1,0.1,0.2,0.1,0.3,0.1c0.1,0,0.2,0,0.3-0.1c0.1-0.1,0.1-0.1,0.1-0.2c0-0.1,0-0.1-0.1-0.2c-0.1-0.1-0.1-0.1-0.2-0.1
					c-0.1,0-0.2-0.1-0.3-0.1c-0.2-0.1-0.4-0.1-0.5-0.2c-0.1-0.1-0.2-0.2-0.3-0.3s-0.1-0.3-0.1-0.5c0-0.3,0.1-0.5,0.3-0.7
					c0.2-0.2,0.5-0.2,0.8-0.2c0.3,0,0.6,0.1,0.8,0.2c0.2,0.2,0.3,0.4,0.3,0.7h-0.8c0-0.1,0-0.2-0.1-0.2s-0.2-0.1-0.3-0.1
					c-0.1,0-0.2,0-0.2,0.1c-0.1,0-0.1,0.1-0.1,0.2c0,0.1,0,0.2,0.1,0.2c0.1,0.1,0.2,0.1,0.4,0.2c0.2,0.1,0.4,0.1,0.5,0.2
					c0.1,0.1,0.2,0.2,0.3,0.3s0.1,0.3,0.1,0.5c0,0.2,0,0.3-0.1,0.5c-0.1,0.1-0.2,0.3-0.4,0.4c-0.2,0.1-0.4,0.1-0.6,0.1
					C78.7,283.3,78.5,283.3,78.3,283.2z"/>
				<path class="st19" d="M81.2,283.1c-0.2-0.1-0.4-0.3-0.6-0.6c-0.1-0.2-0.2-0.5-0.2-0.8c0-0.3,0.1-0.6,0.2-0.8s0.3-0.4,0.6-0.6
					c0.2-0.1,0.5-0.2,0.8-0.2s0.6,0.1,0.8,0.2c0.2,0.1,0.4,0.3,0.6,0.6s0.2,0.5,0.2,0.8c0,0.3-0.1,0.6-0.2,0.8
					c-0.1,0.2-0.3,0.4-0.6,0.6c-0.2,0.1-0.5,0.2-0.8,0.2S81.5,283.3,81.2,283.1z M82.7,282.4c0.2-0.2,0.2-0.4,0.2-0.7
					c0-0.3-0.1-0.5-0.2-0.7c-0.2-0.2-0.4-0.2-0.6-0.2c-0.3,0-0.5,0.1-0.6,0.2c-0.2,0.2-0.2,0.4-0.2,0.7c0,0.3,0.1,0.5,0.2,0.7
					c0.2,0.2,0.4,0.2,0.6,0.2C82.3,282.6,82.5,282.5,82.7,282.4z"/>
				<path class="st19" d="M84.6,283.2c-0.2-0.1-0.3-0.2-0.4-0.3c-0.1-0.1-0.2-0.3-0.2-0.5h0.8c0,0.1,0.1,0.2,0.1,0.3
					c0.1,0.1,0.2,0.1,0.3,0.1c0.1,0,0.2,0,0.3-0.1c0.1-0.1,0.1-0.1,0.1-0.2c0-0.1,0-0.1-0.1-0.2c-0.1-0.1-0.1-0.1-0.2-0.1
					c-0.1,0-0.2-0.1-0.3-0.1c-0.2-0.1-0.4-0.1-0.5-0.2c-0.1-0.1-0.2-0.2-0.3-0.3S84,281.2,84,281c0-0.3,0.1-0.5,0.3-0.7
					c0.2-0.2,0.5-0.2,0.8-0.2c0.3,0,0.6,0.1,0.8,0.2c0.2,0.2,0.3,0.4,0.3,0.7h-0.8c0-0.1,0-0.2-0.1-0.2s-0.2-0.1-0.3-0.1
					c-0.1,0-0.2,0-0.2,0.1c-0.1,0-0.1,0.1-0.1,0.2c0,0.1,0,0.2,0.1,0.2c0.1,0.1,0.2,0.1,0.4,0.2c0.2,0.1,0.4,0.1,0.5,0.2
					c0.1,0.1,0.2,0.2,0.3,0.3s0.1,0.3,0.1,0.5c0,0.2,0,0.3-0.1,0.5c-0.1,0.1-0.2,0.3-0.4,0.4c-0.2,0.1-0.4,0.1-0.6,0.1
					C85,283.3,84.8,283.3,84.6,283.2z"/>
			</g>
			<g class="st20">
				<path class="st19" d="M66.4,285.7c0.2,0.1,0.4,0.3,0.6,0.6c0.1,0.2,0.2,0.5,0.2,0.8c0,0.3-0.1,0.6-0.2,0.8
					c-0.1,0.2-0.3,0.4-0.6,0.6s-0.5,0.2-0.9,0.2h-1.2v-3.2h1.2C65.9,285.5,66.2,285.6,66.4,285.7z M66.2,287.8
					c0.2-0.2,0.2-0.4,0.2-0.7s-0.1-0.5-0.2-0.7c-0.2-0.2-0.4-0.2-0.7-0.2h-0.4v1.8h0.4C65.8,288,66,287.9,66.2,287.8z"/>
				<path class="st19" d="M68.4,285.5v3.2h-0.8v-3.2H68.4z"/>
				<path class="st19" d="M71.1,286.5c-0.1-0.1-0.1-0.2-0.2-0.2s-0.2-0.1-0.4-0.1c-0.2,0-0.4,0.1-0.6,0.2c-0.2,0.2-0.2,0.4-0.2,0.7
					c0,0.3,0.1,0.5,0.2,0.7c0.2,0.2,0.4,0.2,0.6,0.2c0.2,0,0.3,0,0.5-0.1c0.1-0.1,0.2-0.2,0.3-0.4h-1v-0.6H72v0.7
					c-0.1,0.2-0.2,0.4-0.3,0.5s-0.3,0.3-0.5,0.4c-0.2,0.1-0.4,0.2-0.7,0.2c-0.3,0-0.6-0.1-0.8-0.2c-0.2-0.1-0.4-0.3-0.6-0.6
					c-0.1-0.2-0.2-0.5-0.2-0.8c0-0.3,0.1-0.6,0.2-0.8c0.1-0.2,0.3-0.4,0.6-0.6c0.2-0.1,0.5-0.2,0.8-0.2c0.4,0,0.7,0.1,1,0.3
					c0.3,0.2,0.4,0.4,0.5,0.8H71.1z"/>
				<path class="st19" d="M73.2,285.5v3.2h-0.8v-3.2H73.2z"/>
				<path class="st19" d="M76,285.5v0.6h-0.8v2.5h-0.8v-2.5h-0.8v-0.6H76z"/>
				<path class="st19" d="M78.4,288.1h-1.2l-0.2,0.6h-0.8l1.1-3.2h0.9l1.1,3.2h-0.8L78.4,288.1z M78.2,287.5l-0.4-1.2l-0.4,1.2H78.2
					z"/>
				<path class="st19" d="M80.5,288.1h1v0.6h-1.8v-3.2h0.8V288.1z"/>
				<path class="st19" d="M82.6,286.2v0.6h1v0.6h-1v0.7h1.2v0.6h-1.9v-3.2h1.9v0.6H82.6z"/>
				<path class="st19" d="M84.8,288.6c-0.2-0.1-0.3-0.2-0.4-0.3c-0.1-0.1-0.2-0.3-0.2-0.5H85c0,0.1,0.1,0.2,0.1,0.3
					c0.1,0.1,0.2,0.1,0.3,0.1c0.1,0,0.2,0,0.3-0.1c0.1-0.1,0.1-0.1,0.1-0.2c0-0.1,0-0.1-0.1-0.2c-0.1-0.1-0.1-0.1-0.2-0.1
					c-0.1,0-0.2-0.1-0.3-0.1c-0.2-0.1-0.4-0.1-0.5-0.2c-0.1-0.1-0.2-0.2-0.3-0.3s-0.1-0.3-0.1-0.5c0-0.3,0.1-0.5,0.3-0.7
					c0.2-0.2,0.5-0.2,0.8-0.2c0.3,0,0.6,0.1,0.8,0.2c0.2,0.2,0.3,0.4,0.3,0.7h-0.8c0-0.1,0-0.2-0.1-0.2s-0.2-0.1-0.3-0.1
					c-0.1,0-0.2,0-0.2,0.1c-0.1,0-0.1,0.1-0.1,0.2c0,0.1,0,0.2,0.1,0.2c0.1,0.1,0.2,0.1,0.4,0.2c0.2,0.1,0.4,0.1,0.5,0.2
					c0.1,0.1,0.2,0.2,0.3,0.3s0.1,0.3,0.1,0.5c0,0.2,0,0.3-0.1,0.5c-0.1,0.1-0.2,0.3-0.4,0.4c-0.2,0.1-0.4,0.1-0.6,0.1
					C85.2,288.7,85,288.7,84.8,288.6z"/>
			</g>
			<g class="st20">
				<path class="st19" d="M55,92.8v0.6h-0.8v2.5h-0.8v-2.5h-0.8v-0.6H55z"/>
				<path class="st19" d="M57,95.9l-0.7-1.2h-0.2v1.2h-0.8v-3.2h1.3c0.2,0,0.5,0,0.6,0.1c0.2,0.1,0.3,0.2,0.4,0.4s0.1,0.3,0.1,0.5
					c0,0.2-0.1,0.4-0.2,0.6s-0.3,0.3-0.5,0.4l0.7,1.3H57z M56.1,94.2h0.5c0.1,0,0.2,0,0.3-0.1C57,94,57,93.9,57,93.8
					c0-0.1,0-0.2-0.1-0.3c-0.1-0.1-0.2-0.1-0.3-0.1h-0.5V94.2z"/>
				<path class="st19" d="M60.3,95.4h-1.2l-0.2,0.6h-0.8l1.1-3.2h0.9l1.1,3.2h-0.8L60.3,95.4z M60.1,94.8l-0.4-1.2l-0.4,1.2H60.1z"
					/>
				<path class="st19" d="M64.5,95.9h-0.8L62.4,94v1.9h-0.8v-3.2h0.8l1.3,2v-2h0.8V95.9z"/>
				<path class="st19" d="M65.5,95.9c-0.2-0.1-0.3-0.2-0.4-0.3c-0.1-0.1-0.2-0.3-0.2-0.5h0.8c0,0.1,0.1,0.2,0.1,0.3
					c0.1,0.1,0.2,0.1,0.3,0.1c0.1,0,0.2,0,0.3-0.1c0.1-0.1,0.1-0.1,0.1-0.2c0-0.1,0-0.1-0.1-0.2c-0.1-0.1-0.1-0.1-0.2-0.1
					c-0.1,0-0.2-0.1-0.3-0.1c-0.2-0.1-0.4-0.1-0.5-0.2c-0.1-0.1-0.2-0.2-0.3-0.3c-0.1-0.1-0.1-0.3-0.1-0.5c0-0.3,0.1-0.5,0.3-0.7
					c0.2-0.2,0.5-0.2,0.8-0.2c0.3,0,0.6,0.1,0.8,0.2c0.2,0.2,0.3,0.4,0.3,0.7h-0.8c0-0.1,0-0.2-0.1-0.2c-0.1-0.1-0.2-0.1-0.3-0.1
					c-0.1,0-0.2,0-0.2,0.1c-0.1,0-0.1,0.1-0.1,0.2c0,0.1,0,0.2,0.1,0.2c0.1,0.1,0.2,0.1,0.4,0.2c0.2,0.1,0.4,0.1,0.5,0.2
					c0.1,0.1,0.2,0.2,0.3,0.3c0.1,0.1,0.1,0.3,0.1,0.5c0,0.2,0,0.3-0.1,0.5c-0.1,0.1-0.2,0.3-0.4,0.4c-0.2,0.1-0.4,0.1-0.6,0.1
					C65.9,96,65.7,95.9,65.5,95.9z"/>
				<path class="st19" d="M69.8,92.8v0.6h-1.3v0.7h1v0.6h-1v1.3h-0.8v-3.2H69.8z"/>
				<path class="st19" d="M70.9,95.8c-0.2-0.1-0.4-0.3-0.6-0.6c-0.1-0.2-0.2-0.5-0.2-0.8c0-0.3,0.1-0.6,0.2-0.8s0.3-0.4,0.6-0.6
					c0.2-0.1,0.5-0.2,0.8-0.2s0.6,0.1,0.8,0.2c0.2,0.1,0.4,0.3,0.6,0.6s0.2,0.5,0.2,0.8c0,0.3-0.1,0.6-0.2,0.8
					c-0.1,0.2-0.3,0.4-0.6,0.6C72.3,95.9,72,96,71.7,96S71.2,95.9,70.9,95.8z M72.3,95c0.2-0.2,0.2-0.4,0.2-0.7
					c0-0.3-0.1-0.5-0.2-0.7c-0.2-0.2-0.4-0.2-0.6-0.2c-0.3,0-0.5,0.1-0.6,0.2c-0.2,0.2-0.2,0.4-0.2,0.7c0,0.3,0.1,0.5,0.2,0.7
					c0.2,0.2,0.4,0.2,0.6,0.2C72,95.3,72.2,95.2,72.3,95z"/>
				<path class="st19" d="M75.4,95.9l-0.7-1.2h-0.2v1.2h-0.8v-3.2h1.3c0.2,0,0.5,0,0.6,0.1s0.3,0.2,0.4,0.4s0.1,0.3,0.1,0.5
					c0,0.2-0.1,0.4-0.2,0.6c-0.1,0.2-0.3,0.3-0.5,0.4l0.7,1.3H75.4z M74.5,94.2H75c0.1,0,0.2,0,0.3-0.1c0.1-0.1,0.1-0.2,0.1-0.3
					c0-0.1,0-0.2-0.1-0.3c-0.1-0.1-0.2-0.1-0.3-0.1h-0.5V94.2z"/>
				<path class="st19" d="M80.3,92.8v3.2h-0.8V94l-0.7,1.9h-0.6L77.5,94v1.9h-0.8v-3.2h0.9l0.9,2.2l0.9-2.2H80.3z"/>
				<path class="st19" d="M82.8,95.4h-1.2l-0.2,0.6h-0.8l1.1-3.2h0.9l1.1,3.2H83L82.8,95.4z M82.6,94.8l-0.4-1.2l-0.4,1.2H82.6z"/>
				<path class="st19" d="M84.2,93.5c0.1-0.2,0.3-0.4,0.6-0.6c0.2-0.1,0.5-0.2,0.8-0.2c0.4,0,0.7,0.1,1,0.3c0.3,0.2,0.4,0.5,0.5,0.8
					h-0.8c-0.1-0.1-0.2-0.2-0.3-0.3c-0.1-0.1-0.2-0.1-0.4-0.1c-0.2,0-0.4,0.1-0.6,0.2c-0.1,0.2-0.2,0.4-0.2,0.7s0.1,0.5,0.2,0.7
					c0.1,0.2,0.3,0.2,0.6,0.2c0.1,0,0.3,0,0.4-0.1c0.1-0.1,0.2-0.2,0.3-0.3h0.8c-0.1,0.3-0.3,0.6-0.5,0.8c-0.3,0.2-0.6,0.3-1,0.3
					c-0.3,0-0.6-0.1-0.8-0.2c-0.2-0.1-0.4-0.3-0.6-0.6c-0.1-0.2-0.2-0.5-0.2-0.8C84,94,84.1,93.8,84.2,93.5z"/>
				<path class="st19" d="M88.4,92.8v3.2h-0.8v-3.2H88.4z"/>
				<path class="st19" d="M89.6,95.8c-0.2-0.1-0.4-0.3-0.6-0.6c-0.1-0.2-0.2-0.5-0.2-0.8c0-0.3,0.1-0.6,0.2-0.8s0.3-0.4,0.6-0.6
					c0.2-0.1,0.5-0.2,0.8-0.2s0.6,0.1,0.8,0.2c0.2,0.1,0.4,0.3,0.6,0.6S92,94,92,94.3c0,0.3-0.1,0.6-0.2,0.8
					c-0.1,0.2-0.3,0.4-0.6,0.6C91,95.9,90.7,96,90.4,96S89.8,95.9,89.6,95.8z M91,95c0.2-0.2,0.2-0.4,0.2-0.7c0-0.3-0.1-0.5-0.2-0.7
					c-0.2-0.2-0.4-0.2-0.6-0.2c-0.3,0-0.5,0.1-0.6,0.2c-0.2,0.2-0.2,0.4-0.2,0.7c0,0.3,0.1,0.5,0.2,0.7c0.2,0.2,0.4,0.2,0.6,0.2
					C90.7,95.3,90.9,95.2,91,95z M90.9,92.1l-1.1,0.5v-0.5l1.1-0.5V92.1z"/>
				<path class="st19" d="M95.3,95.9h-0.8L93.2,94v1.9h-0.8v-3.2h0.8l1.3,2v-2h0.8V95.9z"/>
			</g>
			<g class="st20">
				<path class="st19" d="M67.6,98.4c0.2,0.1,0.4,0.3,0.6,0.6s0.2,0.5,0.2,0.8c0,0.3-0.1,0.6-0.2,0.8s-0.3,0.4-0.6,0.6
					c-0.2,0.1-0.5,0.2-0.9,0.2h-1.2v-3.2h1.2C67.1,98.2,67.3,98.2,67.6,98.4z M67.4,100.4c0.2-0.2,0.2-0.4,0.2-0.7s-0.1-0.5-0.2-0.7
					s-0.4-0.2-0.7-0.2h-0.4v1.8h0.4C67,100.7,67.2,100.6,67.4,100.4z"/>
				<path class="st19" d="M69.6,98.2v3.2h-0.8v-3.2H69.6z"/>
				<path class="st19" d="M72.2,99.2c-0.1-0.1-0.1-0.2-0.2-0.2s-0.2-0.1-0.4-0.1c-0.2,0-0.4,0.1-0.6,0.2c-0.2,0.2-0.2,0.4-0.2,0.7
					c0,0.3,0.1,0.5,0.2,0.7c0.2,0.2,0.4,0.2,0.6,0.2c0.2,0,0.3,0,0.5-0.1c0.1-0.1,0.2-0.2,0.3-0.4h-1v-0.6h1.7v0.7
					c-0.1,0.2-0.2,0.4-0.3,0.5s-0.3,0.3-0.5,0.4c-0.2,0.1-0.4,0.2-0.7,0.2c-0.3,0-0.6-0.1-0.8-0.2c-0.2-0.1-0.4-0.3-0.6-0.6
					c-0.1-0.2-0.2-0.5-0.2-0.8c0-0.3,0.1-0.6,0.2-0.8c0.1-0.2,0.3-0.4,0.6-0.6c0.2-0.1,0.5-0.2,0.8-0.2c0.4,0,0.7,0.1,1,0.3
					c0.3,0.2,0.4,0.4,0.5,0.8H72.2z"/>
				<path class="st19" d="M74.3,98.2v3.2h-0.8v-3.2H74.3z"/>
				<path class="st19" d="M77.2,98.2v0.6h-0.8v2.5h-0.8v-2.5h-0.8v-0.6H77.2z"/>
				<path class="st19" d="M79.5,100.8h-1.2l-0.2,0.6h-0.8l1.1-3.2h0.9l1.1,3.2h-0.8L79.5,100.8z M79.3,100.2L78.9,99l-0.4,1.2H79.3z
					"/>
				<path class="st19" d="M81.6,100.7h1v0.6h-1.8v-3.2h0.8V100.7z"/>
			</g>
		</g>
	</g>
	<line class="st14" x1="0" y1="330.3" x2="134.9" y2="331.3"/>
</g>
</svg>
