<?xml version="1.0" encoding="UTF-8"?>
<svg id="Layer_1" data-name="Layer 1" xmlns="http://www.w3.org/2000/svg" viewBox="0 0 110.06 94.27">
  <defs>
    <style>
      .cls-1 {
        fill: #fff;
      }

      .cls-2 {
        fill: #00b0f0;
      }

      .cls-3 {
        fill: #0061a8;
      }

      .cls-4 {
        fill: #e8e8ea;
      }

      .cls-5 {
        fill: #efc516;
      }
    </style>
  </defs>
  <path class="cls-4" d="M101.69,0c-15.98,0-31.96,0-47.94,0-9.48,0-18.95,.03-28.43,.05,0,0,0,0,0,0C19.37,.04,13.42-.03,7.46,.03,3.18,.07,.02,3.29,.01,7.58,0,33.94,0,60.31,.01,86.68c0,4.29,3.17,7.51,7.45,7.55,5.95,.05,11.9,0,17.86-.02,.34,.02,.69,.06,1.03,.06,25.11,0,50.22,0,75.34-.02,5.36,0,8.37-2.99,8.37-8.32,0-25.87,0-51.74,0-77.61,0-5.32-3.01-8.32-8.37-8.32Zm-6.96,8.28c2.39,0,4.45,2.02,4.37,4.3-.08,2.26-2.01,4.06-4.33,4.05-2.64-.02-4.27-1.66-4.24-4.26,.03-2.48,1.7-4.1,4.2-4.09Zm-13.05-.02c2.4-.07,4.51,1.84,4.57,4.12,.05,2.22-2.11,4.4-4.37,4.41-2.26,.01-4.19-1.92-4.24-4.22-.04-2.46,1.62-4.24,4.04-4.31ZM25.26,.42c-.03,.1-.09,.19-.15,.28,.06-.08,.11-.17,.15-.28ZM98.95,80.54c0,1.76-.69,2.32-2.19,2.42-.76,.05-1.52,.05-2.28,.05-24.43,.01-48.85,.02-73.28,.03l.04-.08c-2.63,.02-5.26-.05-7.88,.1-1.71,.1-2.23-.44-2.22-2.19,.07-15.21,.04-30.42,.04-45.63,0-.83,0-1.66,.01-2.49,0-2,.09-4.01-.01-6-.08-1.49,.51-1.9,1.92-1.86,2.69,.09,5.38,.02,8.07,.02,0,0,0,0,0,0h0c25,0,50,.02,75,.02,2.88,0,3.09,.15,3.03,3-.03,1.62,.42,3.3-.32,4.88,0,15.91-.03,31.83,.06,47.74Z"/>
  <path class="cls-2" d="M77.64,12.58c-.04-2.46,1.62-4.24,4.04-4.31,2.4-.07,4.51,1.84,4.57,4.12,.05,2.22-2.11,4.4-4.37,4.41-2.26,.01-4.19-1.92-4.24-4.22Z"/>
  <path class="cls-5" d="M94.77,16.63c-2.64-.02-4.27-1.66-4.24-4.26,.03-2.48,1.7-4.1,4.2-4.09,2.39,0,4.45,2.02,4.37,4.3-.08,2.26-2.01,4.06-4.33,4.05Z"/>
  <path class="cls-1" d="M98.89,32.8c-25.9,0-51.8,0-77.71,0l-.11-.11c-3.3,.02-6.59,.03-9.89,.05,0,.83-.01,1.66-.01,2.49,0,15.21,.03,30.42-.04,45.63,0,1.74,.51,2.28,2.22,2.19,2.62-.15,5.25-.08,7.88-.1,0,0-.04,.08-.04,.08,24.43,0,48.85-.02,73.28-.03,.76,0,1.52,0,2.28-.05,1.5-.1,2.2-.66,2.19-2.42-.09-15.91-.06-31.83-.06-47.74Z"/>
  <path class="cls-3" d="M99.21,27.92c.06-2.86-.16-3-3.03-3-25,0-50-.02-75-.02,0,0,0,0,0,0h0c-2.69,0-5.39,.07-8.07-.02-1.41-.05-2,.36-1.92,1.86,.11,2,.02,4,.01,6,3.3-.02,6.59-.03,9.89-.05l.11,.11c25.9,0,51.8,0,77.71,0,.74-1.58,.29-3.25,.32-4.88Z"/>
  <rect class="cls-3" x="23.16" y="45.22" width="38.83" height="4.99"/>
  <rect class="cls-3" x="23.16" y="55.38" width="63.76" height="4.99"/>
  <rect class="cls-3" x="23.16" y="65.54" width="63.76" height="4.99"/>
</svg>