<?xml version="1.0" encoding="UTF-8"?>
<svg id="Layer_1" data-name="Layer 1" xmlns="http://www.w3.org/2000/svg" viewBox="0 0 105.43 94.27">
  <defs>
    <style>
      .cls-1 {
        fill: #0061a8;
      }

      .cls-2 {
        fill: #e8e8ea;
      }

      .cls-3 {
        fill: #bbbbbf;
      }

      .cls-4 {
        fill: #efc516;
      }
    </style>
  </defs>
  <path class="cls-4" d="M100.78,10.21c-12.99,0-25.99-.02-38.98,.03-1.34,0-2.06-.24-2.22-1.75-.18-1.7-.66-3.38-1.03-5.06C57.94,.67,57-.02,54.1,.08,44.49,.05,34.89-.02,25.28,0c-1.92,0-3.23,1.03-3.6,3.05-.26,1.43-.75,2.83-.86,4.27-.16,2.27-1.04,3.19-3.45,2.96-2.25-.21-3.48,1.12-3.48,3.35,0,12.39,.05,24.78,.08,37.17,2.32-.44,4.55-1.13,6.97-1.3,5.31-.37,10.11,.92,14.35,3.91,6.44,4.53,9.54,10.99,9.59,18.81,.02,3.23-.75,6.41-2.29,9.32,3.7-.03,7.39-.06,11.09-.09,.59,.03,1.19,.07,1.78,.07,15.25,0,30.5,0,45.74,0,3.36,0,4.21-.86,4.21-4.23,0-20.82,0-41.63,0-62.45,0-3.83-.82-4.66-4.65-4.66Zm-12.17,58.54c-6.69,.02-13.38,.02-20.08,0-2.28,0-3.64-1.15-3.69-3-.05-1.92,1.34-3.12,3.74-3.14,3.38-.02,6.76,0,10.14,0,3.31,0,6.63-.02,9.94,0,2.32,.02,3.64,1.12,3.67,2.99,.04,1.96-1.32,3.14-3.72,3.15Z"/>
  <path class="cls-2" d="M13.98,50.82c2.32-.44,4.55-1.13,6.97-1.3,5.31-.37,10.11,.92,14.35,3.91,6.44,4.53,9.54,10.99,9.59,18.81,.02,3.23-.75,6.41-2.29,9.32-7.35,13.92-24.2,16.94-35.75,6.4-11.02-10.05-8.35-28.93,5.07-35.96,.7-.37,1.37-.78,2.05-1.18Zm8.29,30.63c2.45,0,4.9,.01,7.35,0,2.58-.02,3.39-.85,3.4-3.48,.01-2.91,.01-5.83,0-8.74-.01-2.27-1.17-3.69-2.98-3.69-1.81,0-2.98,1.41-3,3.68-.02,1.72,0,3.44,0,5.16,0,.59-.14,1.08-.87,1.02-.63-.05-.67-.54-.68-1.02-.01-.33,0-.66,0-.99-.03-2.33-1.28-3.88-3.08-3.83-1.83,.05-2.87,1.4-2.91,3.76,0,.2,.02,.4,0,.6-.07,.6,.23,1.5-.82,1.46-1.03-.04-.75-.93-.75-1.52-.03-2.98,.05-5.96-.04-8.94-.07-2.1-1.37-3.38-3.16-3.37-1.85,0-3.09,1.2-3.13,3.35-.08,4.5-.07,9,0,13.51,.03,1.88,1.3,3.02,3.17,3.04,2.52,.02,5.03,0,7.55,0Z"/>
  <path class="cls-1" d="M78.72,62.6c3.31,0,6.63-.02,9.94,0,2.32,.02,3.64,1.12,3.67,2.99,.04,1.96-1.32,3.14-3.72,3.15-6.69,.02-13.38,.02-20.08,0-2.28,0-3.64-1.15-3.69-3-.05-1.92,1.34-3.12,3.74-3.14,3.38-.02,6.76,0,10.14,0Z"/>
  <path class="cls-3" d="M22.27,81.46c-2.52,0-5.03,.02-7.55,0-1.86-.02-3.14-1.16-3.17-3.04-.06-4.5-.08-9.01,0-13.51,.04-2.16,1.28-3.35,3.13-3.35,1.79,0,3.1,1.27,3.16,3.37,.09,2.98,.01,5.96,.04,8.94,0,.6-.28,1.49,.75,1.52,1.05,.04,.75-.86,.82-1.46,.02-.2,0-.4,0-.6,.03-2.36,1.08-3.71,2.91-3.76,1.8-.05,3.05,1.5,3.08,3.83,0,.33,0,.66,0,.99,.02,.48,.05,.97,.68,1.02,.74,.06,.87-.44,.87-1.02,0-1.72,0-3.44,0-5.16,.02-2.26,1.19-3.68,3-3.68,1.81,0,2.97,1.42,2.98,3.69,.02,2.91,.01,5.83,0,8.74-.01,2.63-.82,3.46-3.4,3.48-2.45,.02-4.9,0-7.35,0Z"/>
</svg>