<?xml version="1.0" encoding="UTF-8"?>
<svg id="Layer_1" data-name="Layer 1" xmlns="http://www.w3.org/2000/svg" viewBox="0 0 98.98 91.54">
  <defs>
    <style>
      .cls-1 {
        fill: #0061a8;
      }

      .cls-2 {
        fill: #e8e8ea;
      }

      .cls-3 {
        fill: #bbbbbf;
      }

      .cls-4 {
        fill: #efc516;
      }
    </style>
  </defs>
  <g>
    <path class="cls-1" d="M85.12,0H15.05C9.1,0,4.27,4.83,4.27,10.79V46.46H95.91V10.79c0-5.96-4.83-10.79-10.79-10.79Z"/>
    <path class="cls-2" d="M4.27,46.39v13.68c0,3.84,3.11,6.95,6.95,6.95H88.96c3.84,0,6.95-3.11,6.95-6.95v-13.68H4.27Z"/>
    <circle class="cls-4" cx="50.09" cy="56.71" r="3.03"/>
    <rect class="cls-3" x="40.72" y="67.02" width="18.73" height="6.87"/>
    <rect class="cls-2" x="26.42" y="73.89" width="47.33" height="5.45" rx="2.72" ry="2.72"/>
  </g>
  <g>
    <path class="cls-2" d="M57.53,85.36c0,3.41,2.77,6.18,6.18,6.18h29.1c3.41,0,6.18-2.77,6.18-6.18v-3.72H57.53v3.72Z"/>
    <path class="cls-2" d="M92.8,29.94h-29.1c-3.38,0-6.13,2.72-6.18,6.09h41.45c-.05-3.37-2.79-6.09-6.18-6.09Z"/>
    <path class="cls-1" d="M98.98,36.04H57.53s0,.06,0,.09v45.52h41.46V36.12s0-.06,0-.09Z"/>
  </g>
  <g>
    <path class="cls-3" d="M6.18,91.54h12c3.38,0,6.12-2.71,6.18-6.07H0c.06,3.36,2.8,6.07,6.18,6.07Z"/>
    <path class="cls-3" d="M18.19,46.29H6.18C2.81,46.29,.07,49,0,52.36H24.36c-.06-3.36-2.8-6.07-6.18-6.07Z"/>
    <path class="cls-1" d="M24.37,52.47s0-.07,0-.11H0s0,.07,0,.11v32.89s0,.07,0,.11H24.36s0-.07,0-.11V52.47Z"/>
  </g>
</svg>