<?xml version="1.0" encoding="UTF-8"?><svg id="Layer_1" xmlns="http://www.w3.org/2000/svg" viewBox="0 0 138.87 124.25"><defs><style>.cls-1{fill:#00b0f0;}.cls-2{fill:#0061a8;}.cls-3{fill:#e8e8ea;}.cls-4{fill:#bbbbbf;}.cls-5{fill:#efc516;}</style></defs><g><path class="cls-2" d="M126.37,14.87H7.43c-4.11,0-7.43,3.33-7.43,7.43v22.3c0,8.21,6.66,14.87,14.87,14.87H118.93c8.21,0,14.87-6.66,14.87-14.87V22.3c0-4.11-3.33-7.43-7.43-7.43Z"/><path class="cls-3" d="M66.9,44.6H0V111.5c0,4.11,3.33,7.43,7.43,7.43H126.37c4.11,0,7.43-3.33,7.43-7.43V44.6H66.9Z"/><g><path class="cls-3" d="M37.17,29.73c-4.11,0-7.43-3.32-7.43-7.43V7.43c0-4.11,3.32-7.43,7.43-7.43s7.43,3.32,7.43,7.43v14.87c0,4.11-3.32,7.43-7.43,7.43h0Zm0,0"/><path class="cls-3" d="M96.63,29.73c-4.11,0-7.43-3.32-7.43-7.43V7.43c0-4.11,3.32-7.43,7.43-7.43s7.43,3.32,7.43,7.43v14.87c0,4.11-3.32,7.43-7.43,7.43h0Zm0,0"/></g><g><path class="cls-4" d="M30.98,62.3h-5.87c-2.24,0-4.06,1.82-4.06,4.06s1.82,4.06,4.06,4.06h5.87c2.24,0,4.06-1.82,4.06-4.06s-1.82-4.06-4.06-4.06Z"/><path class="cls-4" d="M69.84,62.3h-5.87c-2.24,0-4.06,1.82-4.06,4.06s1.82,4.06,4.06,4.06h5.87c2.24,0,4.06-1.82,4.06-4.06s-1.82-4.06-4.06-4.06Z"/><path class="cls-4" d="M102.82,70.42h5.87c2.24,0,4.06-1.82,4.06-4.06s-1.82-4.06-4.06-4.06h-5.87c-2.24,0-4.06,1.82-4.06,4.06s1.82,4.06,4.06,4.06Z"/><path class="cls-4" d="M30.98,87.05h-5.87c-2.24,0-4.06,1.82-4.06,4.06s1.82,4.06,4.06,4.06h5.87c2.24,0,4.06-1.82,4.06-4.06s-1.82-4.06-4.06-4.06Z"/><path class="cls-4" d="M69.84,87.05h-5.87c-2.24,0-4.06,1.82-4.06,4.06s1.82,4.06,4.06,4.06h5.87c2.24,0,4.06-1.82,4.06-4.06s-1.82-4.06-4.06-4.06Z"/><path class="cls-4" d="M108.7,87.05h-5.87c-2.24,0-4.06,1.82-4.06,4.06s1.82,4.06,4.06,4.06h5.87c2.24,0,4.06-1.82,4.06-4.06s-1.82-4.06-4.06-4.06Z"/></g></g><g><circle class="cls-1" cx="118.82" cy="104.2" r="20.05"/><polygon class="cls-5" points="120.04 104.64 120.04 91.88 116.1 91.88 116.1 104.64 116.1 108.41 116.1 108.59 127.94 108.59 127.94 104.64 120.04 104.64"/></g></svg>