<?xml version="1.0" encoding="UTF-8"?>
<svg id="Layer_1" data-name="Layer 1" xmlns="http://www.w3.org/2000/svg" viewBox="0 0 91.36 85.96">
  <defs>
    <style>
      .cls-1 {
        fill: #fff;
      }

      .cls-2 {
        fill: #e9686a;
      }

      .cls-3 {
        fill: #0061a8;
      }

      .cls-4 {
        fill: #e8e8ea;
      }

      .cls-5 {
        fill: #bbbbbf;
      }

      .cls-6 {
        fill: #efc516;
      }
    </style>
  </defs>
  <path class="cls-3" d="M80.6,6.88H10.75C4.81,6.88,0,11.69,0,17.63V53.19H91.36V17.63c0-5.94-4.81-10.75-10.75-10.75Z"/>
  <path class="cls-4" d="M0,53.12v13.64c0,3.83,3.1,6.93,6.93,6.93H84.43c3.83,0,6.93-3.1,6.93-6.93v-13.64H0Z"/>
  <circle class="cls-6" cx="45.68" cy="63.41" r="3.02"/>
  <rect class="cls-5" x="36.34" y="73.69" width="18.67" height="6.84"/>
  <rect class="cls-4" x="22.09" y="80.53" width="47.18" height="5.43" rx="2.71" ry="2.71"/>
  <g>
    <path class="cls-5" d="M65.16,53.12H26.19V4.29c0-2.37,1.92-4.29,4.29-4.29h30.39c2.37,0,4.29,1.92,4.29,4.29V53.12Zm0,0"/>
    <path class="cls-2" d="M58.71,19.66c0,7.2-5.83,13.03-13.03,13.03s-13.03-5.83-13.03-13.03,5.83-13.03,13.03-13.03c3.46,0,6.77,1.37,9.21,3.82,2.44,2.44,3.82,5.76,3.82,9.21h0Zm0,0"/>
    <path class="cls-4" d="M58.39,41h-25.43c-.61,0-1.1-.49-1.1-1.1s.49-1.1,1.1-1.1h25.43c.61,0,1.1,.49,1.1,1.1s-.49,1.1-1.1,1.1h0Zm0,0"/>
    <path class="cls-4" d="M58.39,47.63h-25.43c-.61,0-1.1-.49-1.1-1.1s.49-1.1,1.1-1.1h25.43c.61,0,1.1,.49,1.1,1.1s-.49,1.1-1.1,1.1h0Zm0,0"/>
    <path class="cls-1" d="M45.68,12.72c.51,0,1.02,0,1.53,0,1.02,0,1.33,.33,1.34,1.37,0,.94,.02,1.88,0,2.81-.01,.44,.09,.61,.57,.59,1-.04,2-.02,3,0,.83,0,1.19,.35,1.21,1.19,.02,1.1,.01,2.2,0,3.3-.01,.87-.37,1.22-1.23,1.23-1.02,0-2.04,.02-3.06,0-.38,0-.48,.12-.48,.49,.02,1.02,.02,2.04,0,3.06,0,.87-.36,1.21-1.24,1.22-1.08,0-2.16,0-3.24,0-.9,0-1.24-.35-1.24-1.28,0-.98-.02-1.96,0-2.94,.01-.42-.1-.57-.54-.56-1,.03-2,.02-3,0-.87,0-1.23-.36-1.24-1.23-.01-1.08-.01-2.16,0-3.24,0-.91,.36-1.25,1.27-1.26,1,0,2-.02,3,0,.41,.01,.52-.13,.51-.52-.02-1-.01-2,0-3,0-.91,.35-1.24,1.27-1.25,.53,0,1.06,0,1.59,0Z"/>
  </g>
</svg>