<?xml version="1.0" encoding="UTF-8"?><svg id="Layer_1" xmlns="http://www.w3.org/2000/svg" viewBox="0 0 148.43 128.49"><defs><style>.cls-1{fill:#00b0f0;}.cls-2{fill:#0061a8;}.cls-3{fill:#e8e8ea;}.cls-4{fill:#bbbbbf;}.cls-5{fill:#efc516;}</style></defs><path class="cls-1" d="M130.96,0H17.47C7.82,0,0,7.82,0,17.47v57.77H148.43V17.47c0-9.65-7.82-17.47-17.47-17.47Z"/><path class="cls-3" d="M0,75.14v22.16c0,6.22,5.04,11.26,11.26,11.26h125.91c6.22,0,11.26-5.04,11.26-11.26v-22.16H0Z"/><circle class="cls-5" cx="74.21" cy="91.84" r="4.9"/><rect class="cls-4" x="59.05" y="108.55" width="30.33" height="11.12"/><rect class="cls-3" x="35.89" y="119.67" width="76.65" height="8.82" rx="4.41" ry="4.41"/><g><g><path class="cls-2" d="M43.59,40.07l8.28-19.84c-3.39-1.42-7.19-2.08-11.17-1.74-11.65,.99-20.98,10.69-21.56,22.36-.67,13.6,10.16,24.84,23.61,24.84s23.64-10.59,23.64-23.64c0-.77-.04-1.54-.12-2.29l-21.39,2.08c-.97,.09-1.68-.88-1.31-1.77Z"/><path class="cls-2" d="M65.92,37.09c-.7-7.23-5.37-13.3-11.81-16l-7.13,17.07c-.15,.36,.14,.76,.53,.72l18.4-1.79Z"/></g><g><rect class="cls-2" x="80.5" y="21.08" width="34.83" height="6.67" rx="2.41" ry="2.41"/><rect class="cls-2" x="80.5" y="33.6" width="47.24" height="6.67" rx="2.41" ry="2.41"/><rect class="cls-2" x="80.5" y="44.98" width="47.24" height="6.67" rx="2.41" ry="2.41"/><rect class="cls-2" x="80.5" y="56.36" width="47.24" height="6.67" rx="2.41" ry="2.41"/></g></g></svg>