<?xml version="1.0" encoding="utf-8"?>
<!-- Generator: Adobe Illustrator 27.0.1, SVG Export Plug-In . SVG Version: 6.00 Build 0)  -->
<svg version="1.1" id="Layer_1" xmlns="http://www.w3.org/2000/svg" xmlns:xlink="http://www.w3.org/1999/xlink" x="0px" y="0px"
	 viewBox="0 0 87 80.4" style="enable-background:new 0 0 87 80.4;" xml:space="preserve">
<style type="text/css">
	.st0{fill:#E8E8EA;}
	.st1{fill:#BBBBBF;}
	.st2{fill:#FEFEFE;}
	.st3{fill:#0061A8;}
	.st4{fill:#EFC516;}
</style>
<g>
	<path class="st0" d="M60.7,70.6c1.7,0,3.2-0.4,4.2-1.9c0.3-0.4,0.5-0.9,0.8-1.4c0-0.5,0-1.1,0-1.6c0-17,0-34,0-51c0-0.5,0-1,0-1.4
		c-0.4-1.3-1.1-2.3-2.3-2.9c-0.7-0.4-1.4-0.5-2.1-0.5c0,0,0,0,0,0.1c-0.4,0-0.7,0-1.1,0c-10.7,0-21.3,0-32,0c-2.6,0-4.5,0.7-5.5,3.2
		c0,0.6,0,1.3,0,1.9c0,16.8,0,33.6,0,50.4c0,0.6,0,1.3,0,1.9c0,0,0.1,0.1,0.1,0.1c0.8,2.3,2.4,3.1,4.7,3.1c7.4,0,14.8,0,22.2,0
		c3.6,0,7.2,0,10.8,0H60.7"/>
	<path class="st1" d="M65.6,67.3c-0.2,0.5-0.5,1-0.8,1.4c-1,1.5-2.4,1.9-4.2,1.9h-0.3c-3.6,0-7.2,0-10.8,0c-7.4,0-14.8,0-22.2,0
		c-2.3,0-3.9-0.9-4.7-3.1c0,0-0.1-0.3-0.1-0.3c0,1.7,0,3.6,0,5.3c0,0.7-0.1,1.4,0,2.1c0.1,2.3,1.8,4,4.1,4c11.6,0,23.3,0,34.9,0
		c2.3,0,4-1.7,4.1-4C65.7,72.1,65.6,69.7,65.6,67.3L65.6,67.3z M45.4,75.5c-0.4,0-0.8,0-1.3,0c0,0,0,0,0,0c-0.5,0-0.9,0-1.4,0
		c-0.6,0-0.9-0.4-1-1c0-0.6,0.2-1,0.8-1.1c1-0.2,2-0.1,2.9,0c0.6,0.1,0.9,0.5,0.9,1.1C46.4,75.1,46,75.5,45.4,75.5L45.4,75.5z"/>
	<path class="st2" d="M48.3,4.7c0.6,0.3,1,0.7,0.8,1.5c-0.2,0.7-0.8,0.8-1.4,0.8c-2.4,0-4.8,0-7.2,0c-0.6,0-1.2-0.1-1.4-0.8
		c-0.2-0.7,0.2-1.2,0.8-1.5C42.7,4.7,45.5,4.7,48.3,4.7L48.3,4.7z"/>
	<path class="st1" d="M61.2,1.9c-0.1,0-0.1,0-0.2,0c-11.5,0-22.9,0-34.4,0c-2.4,0-4,1.7-4.1,4.1c0,2.4,0,4.8,0,7.1
		c1-2.5,2.9-3.3,5.5-3.2c10.7,0.1,21.3,0,32,0c0.4,0,0.7,0,1.1,0l0,0c0.7,0,1.4,0.1,2.1,0.4c1.2,0.6,1.9,1.6,2.3,2.9
		c0-2.4,0.1-4.8,0-7.2C65.6,3.4,63.8,1.8,61.2,1.9L61.2,1.9z M48.3,4.7c0.6,0.3,1,0.7,0.8,1.5c-0.2,0.7-0.8,0.8-1.4,0.8
		c-2.4,0-4.8,0-7.2,0c-0.6,0-1.2-0.1-1.4-0.8c-0.2-0.7,0.2-1.2,0.8-1.5l0,0C42.7,4.7,45.5,4.7,48.3,4.7"/>
	<path class="st2" d="M44.1,75.5c-0.5,0-0.9,0-1.4,0c-0.6,0-0.9-0.4-1-1c0-0.6,0.2-1,0.8-1.1c1-0.2,2-0.1,2.9,0
		c0.6,0.1,0.9,0.5,0.9,1.1c0,0.6-0.4,1-1,1C45,75.5,44.5,75.5,44.1,75.5C44.1,75.5,44.1,75.5,44.1,75.5L44.1,75.5z"/>
</g>
<g>
	<path class="st3" d="M52.6,41h-0.1c-5.1,0-9.3,4.2-9.3,9.3c0,1.6-1.3,2.8-2.8,2.8h-0.8c-1.6,0-2.8-1.3-2.8-2.8V41
		c9.5-1.6,16.7-9.8,16.7-19.7V13c0-1.8-1.4-3.2-3.2-3.2H41v6.5h6v5.1c0,7.4-6,13.5-13.5,13.5S20,28.7,20,21.3v-5.1h6V9.7h-9.2
		c-1.8,0-3.2,1.4-3.2,3.2v8.3c0,9.9,7.3,18.1,16.7,19.7v9.3c0,5.1,4.2,9.3,9.3,9.3h0.8c5.1,0,9.3-4.2,9.3-9.3c0-1.6,1.3-2.8,2.8-2.8
		h0.1c1.6,0,2.8,1.3,2.8,2.8v14h6.5v-14C61.9,45.1,57.7,41,52.6,41L52.6,41z"/>
	<circle class="st4" cx="58.6" cy="64.3" r="7.8"/>
	<circle class="st4" cx="26" cy="13" r="4.7"/>
	<circle class="st4" cx="41.4" cy="13" r="4.7"/>
</g>
</svg>
