<?xml version="1.0" encoding="utf-8"?>
<!-- Generator: Adobe Illustrator 27.0.0, SVG Export Plug-In . SVG Version: 6.00 Build 0)  -->
<svg version="1.1" id="Layer_1" xmlns="http://www.w3.org/2000/svg" xmlns:xlink="http://www.w3.org/1999/xlink" x="0px" y="0px"
	 viewBox="0 0 67.3 86" style="enable-background:new 0 0 67.3 86;" xml:space="preserve">
<style type="text/css">
	.st0{fill:#E9686A;}
	.st1{fill:#E8E8EA;}
	.st2{fill:#FEE7A2;}
	.st3{fill:#0061A8;}
</style>
<path class="st0" d="M36.5,72.5c-6.9-6.2-8.3-16.1-3.4-24c1.3-2.2,3.2-3.9,5.1-5.5l0,0H38l-0.1,0c-3.8,0.1-7.6,0.1-11.4,0
	c-0.1,0-0.2,0-0.2,0c0,0,0,0.1,0,0.1c-5.9,0-11.7,0-17.6,0c0,0.1,0,0.1,0.1,0.1c-0.3,0.9-0.1,1.8-0.1,2.8c0.1,5.2-0.3,10.5,0.2,15.7
	c0.7,8.8,8.7,15.9,17.5,15.7c0-11.3,0-22.6,0-34c-5.4,0-10.9,0-16.3,0c5.4,0,10.9,0,16.3,0c0,11.3,0,22.6,0,34
	c4.2,0.1,7.9-1.4,11.2-3.8C37.3,73,36.8,72.8,36.5,72.5z"/>
<path class="st1" d="M44,28.2c0-1.5,0-3.1-0.2-4.6c-1.3-8.5-8.8-15-17.5-14.9c-4.8,0-9,1.7-12.4,5.1c-3.5,3.4-5.2,7.7-5.3,12.6
	c-0.1,5.1,0,10.2,0,15.2c0,0.5,0.1,0.9,0.1,1.4c5.9,0,11.7,0,17.6,0c0,0,0-0.1,0-0.1c0-0.1,0-0.2,0-0.3l0,0c0,0.1,0,0.2,0,0.3
	c0.1,0,0.2,0,0.2,0c3.8,0.1,7.6,0.1,11.4,0c0.1-0.2,0.2-0.2,0.2,0l0,0c1.9-1.2,3.8-2,5.9-2.8C44,36.2,44,32.2,44,28.2L44,28.2z"/>
<path class="st2" d="M38.1,42.9H38l-0.1,0C38,42.7,38.1,42.7,38.1,42.9z"/>
<path class="st3" d="M49.1,71.6L49.1,71.6c4.1-0.2,7.5-1.6,10.2-4.8c4.3-5,4-12.7-0.5-17.5c-2.6-2.7-5.9-3.9-9.6-4.2h0l0,0
	c-7.2,0-13.2,6.3-13.1,13.5C36.1,65.5,42.1,72,49.1,71.6"/>
<path class="st1" d="M53.4,56.3h-2.1v-2.1c0-0.8-0.7-1.5-1.5-1.5h-1.3c-0.8,0-1.5,0.7-1.5,1.5v2.1h-2.1c-0.8,0-1.5,0.7-1.5,1.5v1.3
	c0,0.8,0.7,1.5,1.5,1.5H47v2.1c0,0.8,0.7,1.5,1.5,1.5h1.3c0.8,0,1.5-0.7,1.5-1.5v-2.1h2.1c0.8,0,1.5-0.7,1.5-1.5v-1.3
	C54.9,57,54.2,56.3,53.4,56.3z"/>
</svg>
