<?xml version="1.0" encoding="utf-8"?>
<!-- Generator: Adobe Illustrator 27.0.0, SVG Export Plug-In . SVG Version: 6.00 Build 0)  -->
<svg version="1.1" id="Layer_1" xmlns="http://www.w3.org/2000/svg" xmlns:xlink="http://www.w3.org/1999/xlink" x="0px" y="0px"
	 viewBox="0 0 123.7 109.1" style="enable-background:new 0 0 123.7 109.1;" xml:space="preserve">
<style type="text/css">
	.st0{fill:#EFC516;}
	.st1{fill:#D8B419;}
	.st2{fill:#7FD3A3;}
</style>
<g>
	<path class="st0" d="M44.1,54.7c-0.6-3.2,1-5.1,3.6-6.4c5.8-3.1,12-3.5,18.3-2.9c3.5,0.3,6.8,1.2,9.9,2.9c2.7,1.5,4.3,3.6,3.7,6.9
		c-2.1,1.2-3.7,3.1-6.1,3.9c-6.3,2.2-12.7,2.3-19.2,1.1C50.4,59.5,46.7,58.1,44.1,54.7L44.1,54.7z"/>
	<path class="st1" d="M44.1,72.4c2.6,3.4,6.3,4.7,10.2,5.5c6.4,1.2,12.9,1.1,19.2-1.1c2.4-0.8,4-2.7,6.1-3.9c0.1,3,0.2,6.1-0.1,9.1
		c-0.5,0.1-0.6,0.4-0.7,0.9c-2.2,2-4.7,3.2-7.5,4c-5.3,1.5-10.6,1.7-16,0.8c-4.4-0.8-8.6-2.1-11.2-6C43.8,78.5,43.9,75.4,44.1,72.4
		L44.1,72.4z"/>
	<path class="st1" d="M68.2,105.8c-4.4,0.2-8.8,0.6-13.2-0.3c-2.8-0.6-5.5-1.4-7.9-2.8c-2-1.2-3.3-2.9-3.1-5.5
		c0.2-2.2,0.1-4.3,0.1-6.5c1,0.6,1.4,1.7,2.4,2.4c7.2,4.4,15,4.4,23,3c3.8-0.7,7.1-2.5,10.1-5c0.1,1.7,0,3.3,0.2,4.9
		c0.4,3.7-1.6,5.9-4.7,7.4C72.9,104.5,70.4,104.8,68.2,105.8L68.2,105.8z"/>
	<path class="st0" d="M79.6,88.9c-0.8-0.5-1.5-1.1-1.6-1.8c0-0.2,0-0.5,0.1-0.7c-0.1,0.3-0.1,0.5-0.1,0.7
		C78.2,87.8,78.9,88.4,79.6,88.9c0.1-0.1,0.1-0.2,0.1-0.3c-0.1-2.2-0.2-4.5-0.2-6.7c-0.5,0.1-0.6,0.4-0.7,0.9c-2.2,2-4.7,3.2-7.5,4
		c-5.3,1.5-10.6,1.7-16,0.8c-4.4-0.8-8.6-2.1-11.2-6c0,3,0,6.1,0,9.1c1,0.6,1.4,1.7,2.4,2.4c7.2,4.4,15,4.4,23,3
		c3.8-0.7,7.1-2.5,10.1-5l0.2-1.8C79.8,89.2,79.7,89,79.6,88.9L79.6,88.9z"/>
	<path class="st1" d="M44.1,54.5c2.6,3.4,6.3,4.7,10.2,5.5c6.4,1.2,12.9,1.1,19.2-1.1c2.4-0.8,4-2.7,6.1-3.9c0.1,3,0.2,6.1-0.1,9.1
		c-0.5,0.1-0.6,0.4-0.7,0.9c-2.2,2-4.7,3.2-7.5,4c-5.3,1.5-10.6,1.7-16,0.8c-4.4-0.8-8.6-2.1-11.2-6C43.8,60.6,43.9,57.6,44.1,54.5
		L44.1,54.5z"/>
	<path class="st0" d="M79.6,71.1c-0.8-0.5-1.5-1.1-1.6-1.8c0-0.2,0-0.5,0.1-0.7C78,68.8,78,69,78.1,69.2
		C78.2,70,78.9,70.5,79.6,71.1c0.1-0.1,0.1-0.2,0.1-0.3c-0.1-2.2-0.2-4.5-0.2-6.7c-0.5,0.1-0.6,0.4-0.7,0.9c-2.2,2-4.7,3.2-7.5,4
		c-5.3,1.5-10.6,1.7-16,0.8c-4.4-0.8-8.6-2.1-11.2-6c0,3,0,6.1,0,9.1c1,0.6,1.4,1.7,2.4,2.4c7.2,4.4,15,4.4,23,3
		c3.8-0.7,7.1-2.5,10.1-5l0.2-1.8C79.8,71.3,79.7,71.2,79.6,71.1L79.6,71.1z"/>
</g>
<g>
	<path class="st0" d="M0.8,73c-0.6-3.2,1-5.1,3.6-6.4c5.8-3.1,12-3.5,18.3-2.9c3.5,0.3,6.8,1.2,9.9,2.9c2.7,1.5,4.3,3.6,3.7,6.9
		c-2.1,1.2-3.7,3.1-6.1,3.9c-6.3,2.2-12.7,2.3-19.2,1.1C7.1,77.7,3.4,76.4,0.8,73L0.8,73z"/>
	<path class="st1" d="M0.8,72.4c2.6,3.4,6.3,4.7,10.2,5.5c6.4,1.2,12.9,1.1,19.2-1.1c2.4-0.8,4-2.7,6.1-3.9c0.1,3,0.2,6.1-0.1,9.1
		c-0.5,0.1-0.6,0.4-0.7,0.9c-2.2,2-4.7,3.2-7.5,4c-5.3,1.5-10.6,1.7-16,0.8c-4.4-0.8-8.6-2.1-11.2-6C0.5,78.5,0.7,75.4,0.8,72.4
		L0.8,72.4z"/>
	<path class="st1" d="M24.9,105.8c-4.4,0.2-8.8,0.6-13.2-0.3c-2.8-0.6-5.5-1.4-7.9-2.8c-2-1.2-3.3-2.9-3.1-5.5
		c0.2-2.2,0.1-4.3,0.1-6.5c1,0.6,1.4,1.7,2.4,2.4c7.2,4.4,15,4.4,23,3c3.8-0.7,7.1-2.5,10.1-5c0.1,1.7,0,3.3,0.2,4.9
		c0.4,3.7-1.6,5.9-4.7,7.4C29.6,104.5,27.1,104.8,24.9,105.8L24.9,105.8z"/>
	<path class="st0" d="M36.4,88.9c-0.8-0.5-1.5-1.1-1.6-1.8c0-0.2,0-0.5,0.1-0.7c-0.1,0.3-0.1,0.5-0.1,0.7
		C34.9,87.8,35.6,88.4,36.4,88.9c0.1-0.1,0.1-0.2,0.1-0.3c-0.1-2.2-0.2-4.5-0.2-6.7c-0.5,0.1-0.6,0.4-0.7,0.9c-2.2,2-4.7,3.2-7.5,4
		c-5.3,1.5-10.6,1.7-16,0.8c-4.4-0.8-8.6-2.1-11.2-6c0,3,0,6.1,0,9.1c1,0.6,1.4,1.7,2.4,2.4c7.2,4.4,15,4.4,23,3
		c3.8-0.7,7.1-2.5,10.1-5l0.2-1.8C36.5,89.2,36.5,89,36.4,88.9L36.4,88.9z"/>
</g>
<g>
	<path class="st0" d="M87.3,81.9c-0.6-3.2,1-5.1,3.6-6.4c5.8-3.1,12-3.5,18.3-2.9c3.5,0.3,6.8,1.2,9.9,2.9c2.7,1.5,4.3,3.6,3.7,6.9
		c-2.1,1.2-3.7,3.1-6.1,3.9c-6.3,2.2-12.7,2.3-19.2,1.1C93.7,86.7,89.9,85.3,87.3,81.9L87.3,81.9z"/>
	<path class="st0" d="M111.4,105.8c-4.4,0.2-8.8,0.6-13.2-0.3c-2.8-0.6-5.5-1.4-7.9-2.8c-2-1.2-3.3-2.9-3.1-5.5
		c0.2-2.2,0.1-4.3,0.1-6.5c1,0.6,1.4,1.7,2.4,2.4c7.2,4.4,15,4.4,23,3c3.8-0.7,7.1-2.5,10.1-5c0.1,1.7,0,3.3,0.2,4.9
		c0.4,3.7-1.6,5.9-4.7,7.4C116.1,104.5,113.7,104.8,111.4,105.8L111.4,105.8z"/>
	<path class="st1" d="M122.9,88.9c-0.8-0.5-1.5-1.1-1.6-1.8c0-0.2,0-0.5,0.1-0.7c-0.1,0.3-0.1,0.5-0.1,0.7
		C121.4,87.8,122.1,88.4,122.9,88.9c0.1-0.1,0.1-0.2,0.1-0.3c-0.1-2.2-0.2-4.5-0.2-6.7c-0.5,0.1-0.6,0.4-0.7,0.9
		c-2.2,2-4.7,3.2-7.5,4c-5.3,1.5-10.6,1.7-16,0.8c-4.4-0.8-8.6-2.1-11.2-6c0,3,0,6.1,0,9.1c1,0.6,1.4,1.7,2.4,2.4
		c7.2,4.4,15,4.4,23,3c3.8-0.7,7.1-2.5,10.1-5l0.2-1.8C123,89.2,123,89,122.9,88.9L122.9,88.9z"/>
</g>
<g>
	<path class="st2" d="M60.1,52.2c0-3.7-0.1-7.3-0.1-11c1.9,0,1.9,0,1.8-1.9c0-0.4-0.1-0.7-0.1-1c-0.2-2-1.3-3.8-1.6-5.8
		c0-5.3,0-10.6,0-15.9c0.8-0.4,2.6,0.2,2-1.8C62.7,9,67.6,4,73.4,3.3c1.6-0.2,3.2-0.1,4.8-0.2c0.7,0,0.9,0.3,0.8,1
		c-0.3,6.6-6,12.1-12.7,12.4c-1.7,0.1-2.5,0.9-2.5,2.6c0,4.4,0,8.8,0,13.2c0.5,0,0.5-0.4,0.7-0.6c3.8-6.1,9.3-9.3,16.5-9.4
		c0.7,0,1.3,0,2,0c1.3,0,1.8,0.6,1.7,1.9c-1.2,9.9-9.1,16.9-19.1,17.1c-1.8,0-1.7,0-1.8,1.8c0,3.1,0,6.1-0.1,9.2
		c-0.1,0.1-0.1,0.2-0.1,0.3c-0.1,0-0.1,0.1-0.2,0c-1,0-2,0-3,0c-0.1,0-0.1,0-0.2,0C60.1,52.4,60.1,52.3,60.1,52.2L60.1,52.2z"/>
	<path class="st2" d="M60.1,32.5c0.3,2,1.4,3.8,1.6,5.8c0,0.4,0.1,0.7,0.1,1c0.1,1.9,0.1,1.9-1.8,1.9c-5.6,0.2-10.6-1.2-14.7-5.1
		c-3.7-3.4-5.7-7.7-6.1-12.7c-0.1-0.9,0.1-1.3,1.2-1.3c5.1-0.2,9.9,0.7,14.1,3.9c1.9,1.5,3.5,3.3,4.8,5.3
		C59.4,31.8,59.5,32.3,60.1,32.5L60.1,32.5z"/>
	<path class="st2" d="M62,14.8c0.5,2-1.2,1.4-2,1.8c-1-0.1-1.9-0.1-2.9-0.2C50.6,16,45.2,10.6,44.8,4.1c0-0.5-0.1-1,0.6-1
		c5-0.3,9.7,0.6,13.2,4.6c1.6,1.9,2.7,4.1,3.1,6.5C61.8,14.5,61.8,14.7,62,14.8z"/>
</g>
<g>
	<g>
		<path class="st0" d="M122.4,49.7c0.6,7.5-1.6,13.7-8.2,17.9C104,74.1,90.1,67.9,88.1,56c-0.3-2-0.3-4.1-0.2-6.1
			c0.6-0.4,0.3-1,0.4-1.5c1.6-5.2,4.8-9.1,9.9-11.4c4.3-1.9,8.6-2.1,13-0.4c5.3,2,8.8,5.7,10.6,11.1
			C121.9,48.3,121.7,49.2,122.4,49.7L122.4,49.7z"/>
		<path class="st1" d="M122.4,49.7c-0.7-0.5-0.5-1.3-0.7-2c-1.8-5.4-5.3-9.1-10.6-11.1c-4.4-1.7-8.7-1.5-13,0.4
			c-5.1,2.3-8.2,6.1-9.9,11.4c-0.2,0.5,0.1,1.1-0.4,1.5c-1.2-11.2,7-19.1,15.7-19.8c10.2-0.8,18.9,7,18.9,17.3
			C122.4,48.2,122.4,49,122.4,49.7L122.4,49.7z"/>
	</g>
	<g>
		<path class="st1" d="M105.1,60c-3.6,0-5.9-2.9-5.9-5.5h4.7c0,0.3,0.3,0.8,1.2,0.8c0.6,0,1-0.5,1.2-0.7c-0.1-0.9-0.5-1-1.2-1
			c-4.3,0-5.8-3-5.9-4.6c0-0.3-0.2-2.9,1.5-4.8c0.7-0.8,2.1-1.7,4.3-1.7s3.6,0.9,4.3,1.7c1.7,1.9,1.6,4.4,1.6,4.7l-4.7-0.3l2.4,0.2
			l-2.4-0.1c0-0.3-0.1-0.9-0.4-1.2c-0.2-0.2-0.4-0.2-0.9-0.2c-0.3,0-0.7,0-0.8,0.2c-0.2,0.2-0.3,0.8-0.3,1.1
			c0.1,0.3,0.7,0.4,1.2,0.4c4.1,0,5.9,3,5.9,5.9C111,56.9,108.6,60,105.1,60L105.1,60z M106.3,54.5L106.3,54.5z"/>
		<rect x="102.7" y="41.5" class="st1" width="4.7" height="3.4"/>
		<rect x="102.7" y="57.6" class="st1" width="4.7" height="3.4"/>
	</g>
</g>
</svg>
