<?xml version="1.0" encoding="UTF-8"?>
<svg id="Layer_1" data-name="Layer 1" xmlns="http://www.w3.org/2000/svg" viewBox="0 0 76.13 88.35">
  <defs>
    <style>
      .cls-1 {
        fill: #8bb43c;
      }

      .cls-2 {
        fill: #0061a8;
      }

      .cls-3 {
        fill: #e8e8ea;
      }

      .cls-4 {
        fill: #ede9e8;
      }

      .cls-5 {
        fill: #bbbbbf;
      }

      .cls-6 {
        fill: #fea83d;
      }

      .cls-7 {
        fill: #efc516;
      }
    </style>
  </defs>
  <path class="cls-1" d="M4.23,36.57c-.06,.01-.13,.03-.19,.04,.02-.09,.04-.18,.06-.27,.04,.08,.09,.16,.13,.23Z"/>
  <path class="cls-1" d="M7.63,36.61c-.06-.01-.13-.02-.19-.04,.04-.08,.09-.16,.13-.23,.02,.09,.04,.18,.06,.27Z"/>
  <path class="cls-6" d="M17.93,43.75c.08-.07,.16-.14,.24-.2,0,.16-.08,.22-.24,.2Z"/>
  <path class="cls-1" d="M7.26,36.61c-.95,.29-1.89,.29-2.84,0,.95,0,1.89,0,2.84,0Z"/>
  <g>
    <path class="cls-5" d="M61.85,34.4l-3.66-3.66,9.11-9.11,3.66,3.66-9.11,9.11Zm0,0"/>
    <path class="cls-5" d="M14.28,34.4L5.18,25.3l3.66-3.66,9.11,9.11-3.66,3.66Zm0,0"/>
    <rect class="cls-5" x="35.48" y="13.11" width="5.18" height="18.12"/>
    <path class="cls-2" d="M38.06,20.88c-18.53,0-33.65,15.11-33.65,33.65s15.12,33.82,33.65,33.82,33.65-15.29,33.65-33.82S56.6,20.88,38.06,20.88h0Zm0,0"/>
    <path class="cls-4" d="M38.06,26.06c-14.81,0-27.04,11.4-28.35,25.88-.08,.85-.12,1.72-.12,2.59s.04,1.74,.12,2.59c1.24,13.63,12.14,24.53,25.76,25.77,.85,.08,1.72,.12,2.59,.12s1.74-.04,2.59-.12c14.48-1.32,25.88-13.54,25.88-28.35,0-15.69-12.79-28.47-28.47-28.47h0Zm0,0"/>
    <path class="cls-5" d="M40.65,77.82v5.06c-.85,.08-1.71,.12-2.59,.12s-1.74-.04-2.59-.12v-5.06h5.18Zm0,0"/>
    <path class="cls-5" d="M14.77,51.94v5.18h-5.06c-.08-.85-.12-1.72-.12-2.59s.04-1.74,.12-2.59h5.06Zm0,0"/>
    <path class="cls-3" d="M38.06,0c-7.14,0-12.94,5.97-12.94,13.11v2.59h25.88v-2.59c0-7.14-5.8-13.11-12.94-13.11h0Zm0,0"/>
    <path class="cls-3" d="M72.47,30.47l-10.35-10.35,3.66-3.66,10.35,10.35-3.66,3.66Zm0,0"/>
    <path class="cls-3" d="M3.66,30.47l-3.66-3.66,10.35-10.35,3.66,3.66L3.66,30.47Zm0,0"/>
    <path class="cls-7" d="M38.06,31.23h-2.59v25.88h25.88v-2.59c0-12.84-10.46-23.29-23.29-23.29h0Zm0,0"/>
  </g>
</svg>